<?xml version="1.0" encoding="UTF-8"?>
<svg xmlns="http://www.w3.org/2000/svg" xmlns:xlink="http://www.w3.org/1999/xlink" width="90px" height="73px" viewBox="0 0 90 73" version="1.1">
<g id="surface1">
<path style=" stroke:none;fill-rule:nonzero;fill:rgb(100%,100%,100%);fill-opacity:1;" d="M 85.699219 45.9375 C 84.1875 45.140625 83.015625 44.289062 82.0625 43.4375 C 82.816406 40.613281 83.214844 37.625 83.214844 34.5625 C 83.214844 15.503906 67.804688 0 48.871094 0 C 30.726562 0 15.820312 14.21875 14.597656 32.171875 C 9.324219 33.023438 2.554688 36.136719 2.554688 42.605469 C 2.554688 47.566406 6.226562 49.742188 9.378906 49.742188 L 9.34375 50.011719 L 8.117188 50.25 C 4.878906 53.945312 7.019531 59.742188 2.339844 63.289062 C 2.195312 63.726562 2.070312 64.867188 2.140625 65.285156 C 1.0625 66.132812 0.0351562 66.480469 -0.0195312 66.480469 C 0.34375 67.566406 2.554688 68.253906 2.878906 68.289062 C 2.914062 68.382812 2.953125 68.488281 3.007812 68.617188 C 2.773438 69.648438 2.089844 70.300781 2.089844 70.300781 C 2.554688 70.988281 4.734375 71.117188 5.273438 70.972656 C 5.273438 70.972656 5.128906 71.75 4.84375 72.058594 C 4.84375 72.058594 6.75 72.4375 8.027344 71.640625 C 8.027344 71.640625 8.082031 72.3125 7.957031 72.527344 C 9.683594 72.238281 11.140625 71.277344 11.609375 70.679688 C 11.609375 70.679688 14.09375 70.066406 14.257812 68.597656 C 14.527344 66.097656 14.671875 64.179688 15.011719 62.402344 C 15.910156 62.492188 17.371094 62.402344 18.757812 61.660156 C 18.898438 61.480469 20.449219 59.488281 22.933594 57.222656 C 23.308594 57.65625 23.6875 58.074219 24.066406 58.472656 C 22.984375 61.988281 24.480469 64.414062 21.527344 66.585938 C 21.4375 67.148438 21.816406 68.253906 21.816406 68.253906 C 21.816406 68.253906 21.5625 69.339844 21.042969 69.921875 C 21.042969 69.921875 21.652344 70.628906 23.347656 70.554688 C 23.347656 70.554688 23.292969 71.675781 23.039062 72.128906 C 23.039062 72.128906 24.460938 72.527344 25.792969 71.96875 C 25.792969 71.96875 25.722656 72.566406 25.542969 72.964844 C 25.542969 72.964844 27.503906 72.582031 28.675781 71.570312 C 28.691406 71.875 28.691406 72.347656 28.636719 72.476562 C 30.007812 71.550781 31.285156 70.300781 31.554688 69.125 C 31.589844 69.085938 32.113281 68.707031 32.148438 68.671875 C 32.292969 68.144531 32.527344 66.679688 32.632812 65.03125 C 37.457031 67.636719 42.984375 69.125 48.851562 69.125 C 59.652344 69.125 69.316406 64.070312 75.617188 56.191406 C 76.445312 56.335938 77.488281 56.371094 78.535156 55.953125 C 78.535156 55.953125 77.867188 56.460938 77.722656 56.515625 C 77.722656 56.515625 80.351562 57.585938 81.828125 56.515625 C 81.828125 56.515625 81.71875 56.914062 81.574219 57.058594 C 81.574219 57.058594 84.023438 57.65625 85.300781 56.316406 C 85.300781 56.316406 85.195312 56.714844 85.121094 56.824219 C 85.121094 56.824219 87.535156 56.84375 88.34375 54.703125 C 88.34375 54.703125 90 53.582031 90 51.171875 C 90 47.058594 85.699219 45.9375 85.699219 45.9375 Z M 87.28125 53.761719 C 86.992188 54.324219 86.453125 55.140625 85.753906 55.03125 C 85.753906 55.03125 85.859375 54.851562 85.96875 54.558594 C 85.878906 54.613281 85.804688 54.648438 85.734375 54.667969 C 85.734375 54.667969 85.445312 54.886719 84.996094 54.976562 C 84.671875 55.339844 84.058594 55.753906 83.089844 55.554688 C 83.089844 55.554688 83.449219 55.300781 83.628906 54.832031 C 83.449219 54.757812 83.285156 54.667969 83.105469 54.558594 C 83.105469 54.558594 82.835938 54.742188 82.421875 54.796875 C 82.152344 55.15625 81.484375 55.808594 80.28125 55.5 C 80.28125 55.5 80.710938 55.066406 80.839844 54.34375 C 80.695312 54.234375 80.550781 54.105469 80.40625 53.945312 C 80.40625 53.945312 79.902344 54.050781 79.199219 54.070312 C 78.804688 54.488281 77.976562 55.140625 76.859375 54.976562 C 76.859375 54.976562 77.382812 54.503906 77.527344 53.851562 C 77.058594 53.707031 76.589844 53.453125 76.210938 53.09375 C 70.289062 61.933594 60.265625 67.730469 48.871094 67.730469 C 42.425781 67.730469 36.414062 65.863281 31.339844 62.640625 C 31.429688 65.046875 30.886719 67.875 30.886719 67.875 C 30.816406 67.945312 30.4375 68.179688 30.4375 68.179688 C 30.292969 68.617188 30.023438 69.160156 29.539062 69.628906 C 29.539062 69.628906 29.574219 69.269531 29.503906 68.851562 L 29.070312 69.558594 L 28.585938 69.703125 C 28.386719 70.046875 27.988281 70.5 27.253906 70.863281 C 27.253906 70.863281 27.449219 70.375 27.414062 69.792969 L 26.746094 70.28125 C 26.460938 70.28125 26.101562 70.265625 26.101562 70.265625 C 25.792969 70.589844 25.324219 70.972656 24.769531 71.007812 C 24.769531 71.007812 24.984375 70.609375 25.019531 70.011719 C 24.589844 69.847656 24.371094 69.558594 24.371094 69.558594 L 24.335938 68.707031 L 24.28125 68.671875 C 23.957031 68.925781 23.488281 69.195312 22.894531 69.214844 C 22.894531 69.214844 23.328125 68.761719 23.417969 68.035156 C 23.023438 67.636719 23.023438 67.222656 23.023438 67.222656 C 23.023438 67.222656 24.949219 65.734375 24.949219 62.945312 C 24.949219 60.683594 25.398438 59.089844 25.722656 58.199219 C 24.785156 57.277344 23.902344 56.296875 23.09375 55.25 C 19.890625 58 17.890625 60.554688 17.890625 60.554688 C 15.730469 61.570312 14.003906 60.738281 14.003906 60.738281 C 13.410156 63.109375 13.15625 64.976562 12.871094 68.507812 C 12.292969 69.085938 11.449219 69.339844 10.765625 69.46875 C 10.566406 69.847656 10.152344 70.410156 9.269531 70.734375 C 9.269531 70.734375 9.503906 70.410156 9.539062 69.9375 C 9.125 70.136719 8.710938 70.175781 8.335938 70.136719 C 8.0625 70.429688 7.597656 70.773438 6.804688 70.828125 C 6.804688 70.828125 7.144531 70.480469 7.324219 69.828125 L 6.820312 69.539062 L 6.679688 69.722656 C 6.210938 69.703125 5.832031 69.59375 5.507812 69.429688 C 5.164062 69.648438 4.644531 69.828125 3.886719 69.777344 C 3.886719 69.777344 4.300781 69.394531 4.609375 68.652344 C 4.230469 68.128906 4.121094 67.621094 4.121094 67.621094 L 4.375 67.367188 L 3.996094 66.839844 C 3.652344 66.96875 3.113281 67.058594 2.339844 66.734375 C 2.339844 66.734375 3.148438 66.515625 3.601562 65.828125 C 3.492188 65.335938 3.457031 64.777344 3.601562 64.105469 C 8.371094 59.976562 6.390625 54.796875 8.800781 51.589844 C 10.351562 51.371094 10.765625 50.917969 10.765625 50.917969 C 10.457031 49.6875 11.429688 48.128906 11.429688 48.128906 C 11.429688 48.128906 10.476562 48.363281 9.613281 48.363281 C 6.175781 48.363281 3.941406 45.992188 3.941406 42.730469 C 3.941406 35.484375 13.375 33.746094 15.929688 33.421875 C 16.542969 15.652344 31.050781 1.429688 48.851562 1.429688 C 67.050781 1.429688 81.808594 16.285156 81.808594 34.597656 C 81.808594 37.824219 81.34375 40.9375 80.496094 43.890625 C 81.664062 45.066406 83.125 46.226562 85.15625 47.277344 C 85.15625 47.277344 88.613281 48.09375 88.613281 51.15625 C 88.597656 53.019531 87.28125 53.761719 87.28125 53.761719 Z M 87.28125 53.761719 "/>
<path style=" stroke:none;fill-rule:nonzero;fill:rgb(100%,100%,100%);fill-opacity:1;" d="M 15.570312 38.09375 C 12.511719 38.09375 8.785156 40.195312 8.785156 42.585938 C 8.785156 43.347656 9.304688 43.671875 10.171875 43.671875 C 11.878906 43.671875 14.21875 42.476562 16.523438 40.992188 C 16.34375 40.050781 16.199219 39.070312 16.09375 38.09375 Z M 10.242188 42.277344 C 10.152344 41.898438 11.789062 39.871094 14.867188 39.542969 C 14.902344 39.777344 14.941406 40.03125 14.976562 40.269531 C 12.761719 41.609375 10.636719 42.515625 10.242188 42.277344 Z M 50.597656 60.101562 C 50.273438 60.121094 50.183594 60.300781 50.203125 60.664062 L 50.363281 63.054688 C 50.382812 63.398438 50.507812 63.5625 50.832031 63.542969 C 51.15625 63.527344 51.246094 63.34375 51.226562 62.984375 L 51.066406 60.59375 C 51.046875 60.230469 50.921875 60.066406 50.597656 60.101562 Z M 45.882812 59.976562 C 45.558594 59.941406 45.433594 60.101562 45.394531 60.445312 L 45.109375 62.820312 C 45.070312 63.164062 45.144531 63.34375 45.46875 63.398438 C 45.792969 63.4375 45.917969 63.273438 45.953125 62.929688 L 46.242188 60.539062 C 46.296875 60.210938 46.207031 60.011719 45.882812 59.976562 Z M 45.882812 59.976562 "/>
<path style=" stroke:none;fill-rule:nonzero;fill:rgb(100%,100%,100%);fill-opacity:1;" d="M 74.25 50.828125 C 73.765625 50.503906 73.3125 49.886719 73.546875 48.707031 C 73.546875 48.707031 68.992188 47.277344 66.472656 44.433594 C 66.472656 44.433594 61.488281 44.652344 59.203125 43.039062 C 56.699219 45.683594 53.710938 46.988281 53.710938 46.988281 C 53.710938 46.988281 52.234375 45.394531 49.390625 45.394531 C 46.691406 45.394531 46.078125 46.554688 43.074219 46.84375 L 43.703125 47.984375 C 44.460938 47.964844 46.097656 47.765625 47.988281 46.699219 C 47.988281 46.699219 52.378906 46.5 53.082031 49.652344 C 53.082031 49.652344 53.082031 50.066406 52.867188 50.648438 C 53.0625 51.207031 53.28125 52.277344 52.738281 53.164062 C 52.738281 53.164062 52.738281 52.476562 52.144531 51.914062 C 52.054688 52.003906 51.984375 52.113281 51.875 52.203125 C 51.894531 52.332031 51.910156 52.476562 51.910156 52.621094 C 51.910156 52.621094 51.839844 52.820312 51.695312 53.09375 C 51.964844 53.5625 52.21875 54.359375 51.679688 55.375 C 51.679688 55.375 51.550781 54.6875 50.941406 54.125 C 50.867188 54.199219 50.777344 54.289062 50.6875 54.359375 L 50.707031 54.449219 C 50.707031 54.449219 50.617188 54.757812 50.347656 55.121094 C 50.5625 55.539062 50.742188 56.226562 50.347656 57.132812 C 50.347656 57.132812 50.074219 56.316406 49.519531 55.9375 C 49.410156 56.007812 49.285156 56.082031 49.15625 56.152344 C 49.085938 56.351562 48.90625 56.625 48.582031 56.878906 C 48.707031 57.421875 48.707031 58.109375 48.1875 58.636719 C 48.1875 58.636719 48.1875 57.945312 47.628906 57.386719 C 47.230469 57.53125 46.726562 57.65625 46.117188 57.746094 L 44.53125 57.097656 C 44.53125 57.097656 40.769531 58.144531 39.023438 56.535156 C 37.078125 59.832031 34.21875 61.769531 34.21875 61.769531 C 33.660156 61.789062 33.175781 61.769531 32.761719 61.734375 C 37.476562 64.558594 42.964844 66.1875 48.851562 66.1875 C 59.472656 66.1875 68.867188 60.882812 74.554688 52.75 C 74.179688 52.1875 74.179688 51.40625 74.25 50.828125 Z M 42.785156 59.503906 L 41.398438 59.089844 L 41.058594 60.265625 L 42.101562 60.574219 L 41.902344 61.242188 L 40.859375 60.9375 L 40.265625 62.945312 L 39.492188 62.710938 L 40.824219 58.183594 L 42.984375 58.835938 Z M 47.050781 60.628906 L 46.765625 63.054688 C 46.691406 63.726562 46.242188 64.214844 45.394531 64.105469 C 44.550781 63.996094 44.226562 63.417969 44.316406 62.765625 L 44.605469 60.339844 C 44.675781 59.667969 45.125 59.179688 45.972656 59.289062 C 46.816406 59.378906 47.140625 59.957031 47.050781 60.628906 Z M 50.886719 64.25 C 50.039062 64.304688 49.609375 63.796875 49.570312 63.128906 L 49.410156 60.699219 C 49.355469 60.03125 49.714844 59.46875 50.5625 59.394531 C 51.40625 59.34375 51.839844 59.847656 51.875 60.519531 L 52.039062 62.945312 C 52.09375 63.617188 51.730469 64.179688 50.886719 64.25 Z M 55.242188 63.542969 L 54.324219 59.632812 L 53.566406 59.8125 L 53.40625 59.125 L 55.710938 58.582031 L 55.871094 59.269531 L 55.117188 59.449219 L 56.035156 63.363281 Z M 60.265625 61.933594 L 59.09375 62.421875 L 57.277344 58.054688 L 58.375 57.585938 C 59.164062 57.242188 59.707031 57.511719 60.011719 58.253906 C 60.175781 58.636719 60.175781 59.089844 59.867188 59.378906 C 60.316406 59.394531 60.660156 59.59375 60.894531 60.15625 C 61.199219 60.898438 61.109375 61.570312 60.265625 61.933594 Z M 65.160156 59.304688 L 64.476562 58.492188 L 63.71875 58.960938 L 64.152344 59.921875 L 63.484375 60.339844 L 61.703125 55.882812 L 62.550781 55.339844 L 65.808594 58.871094 Z M 67.769531 57.347656 L 64.65625 53.800781 L 65.269531 53.253906 L 67.914062 56.261719 L 68.867188 55.410156 L 69.335938 55.9375 Z M 70.738281 54.46875 L 67.15625 51.40625 L 67.679688 50.792969 L 70.722656 53.402344 L 71.550781 52.421875 L 72.089844 52.875 Z M 64.871094 12.570312 L 63.179688 13.640625 L 64.367188 14.507812 Z M 64.871094 12.570312 "/>
<path style=" stroke:none;fill-rule:nonzero;fill:rgb(100%,100%,100%);fill-opacity:1;" d="M 59.292969 58.652344 C 59.128906 58.253906 58.878906 58.109375 58.554688 58.238281 L 58.265625 58.363281 L 58.753906 59.542969 L 59.023438 59.433594 C 59.308594 59.304688 59.4375 59.015625 59.292969 58.652344 Z M 59.257812 60.046875 L 59.023438 60.15625 L 59.578125 61.496094 L 59.886719 61.371094 C 60.28125 61.207031 60.335938 60.917969 60.136719 60.464844 C 59.957031 60.011719 59.6875 59.867188 59.257812 60.046875 Z M 26.929688 57.222656 C 27.214844 57.113281 27.558594 56.914062 27.898438 56.570312 C 27.898438 56.570312 27.539062 53.761719 28.636719 51.300781 C 27.035156 52.1875 25.578125 53.21875 24.265625 54.25 C 25.109375 55.300781 25.992188 56.296875 26.929688 57.222656 Z M 38.179688 18.675781 C 38.179688 18.675781 43.21875 15.398438 49.339844 16.285156 C 49.175781 15.796875 48.925781 15.398438 48.925781 15.398438 C 51.839844 15.558594 54 17.335938 55.042969 18.386719 C 56.195312 18.277344 57.90625 19 58.933594 19.472656 C 58.933594 19.472656 63.179688 18.078125 63.808594 18.964844 C 64.402344 19.796875 64.078125 23.292969 62.710938 24.835938 L 63 25.015625 C 63.613281 25.050781 64.1875 25.140625 64.726562 25.269531 L 63.449219 25.304688 C 65.519531 26.753906 68.488281 29.5625 70.46875 34.542969 C 75.382812 36.082031 76.589844 39.269531 79.289062 42.515625 C 79.9375 39.976562 80.296875 37.296875 80.296875 34.5625 C 80.296875 17.101562 66.222656 2.933594 48.871094 2.933594 C 31.679688 2.933594 17.710938 16.828125 17.460938 34.074219 C 18.378906 34.273438 19.367188 34.726562 19.367188 35.828125 C 19.367188 37.1875 18.613281 37.730469 17.621094 37.949219 C 17.695312 38.65625 17.800781 39.363281 17.929688 40.050781 C 19.800781 38.726562 21.5625 37.332031 22.824219 36.335938 C 26.117188 31.828125 28.855469 24.742188 36.792969 19.546875 C 36.863281 19.164062 36.863281 18.585938 38.179688 18.675781 Z M 75.652344 21.574219 C 76.066406 22.40625 76.175781 23.292969 75.925781 24.074219 L 74.160156 23.566406 C 74.394531 23.203125 74.285156 22.605469 74.140625 22.296875 C 73.960938 21.953125 73.566406 21.5 73.132812 21.71875 C 72.738281 21.917969 72.792969 22.390625 72.917969 23.148438 C 73.078125 24.128906 73.296875 25.359375 71.910156 26.03125 C 70.558594 26.699219 69.191406 26.101562 68.417969 24.527344 C 67.984375 23.621094 67.878906 22.679688 68.183594 21.773438 L 70.003906 22.296875 C 69.730469 22.789062 69.730469 23.421875 69.949219 23.875 C 70.128906 24.238281 70.542969 24.707031 70.972656 24.492188 C 71.386719 24.292969 71.335938 23.785156 71.226562 22.96875 C 71.082031 21.972656 70.882812 20.742188 72.199219 20.089844 C 73.710938 19.347656 75.058594 20.34375 75.652344 21.574219 Z M 69.785156 13.332031 L 73.546875 17.914062 L 72.304688 18.949219 L 70.992188 17.351562 L 66.511719 21.066406 L 65.375 19.671875 L 69.859375 15.957031 L 68.542969 14.363281 Z M 66.960938 11.011719 L 65.160156 18.949219 L 63.539062 17.75 L 63.953125 16.140625 L 61.8125 14.546875 L 60.425781 15.433594 L 58.84375 14.253906 L 65.808594 10.160156 Z M 54.070312 8.914062 C 54.828125 6.738281 56.808594 5.632812 59.148438 6.464844 C 60.785156 7.046875 61.164062 8.40625 61.164062 8.40625 L 59.507812 9.039062 C 59.507812 9.039062 59.363281 8.332031 58.429688 8.007812 C 57.277344 7.609375 56.25 8.332031 55.835938 9.511719 C 55.421875 10.707031 55.945312 11.863281 56.988281 12.226562 C 57.886719 12.554688 58.609375 11.902344 58.609375 11.902344 L 59.671875 13.441406 C 59.671875 13.441406 58.464844 14.507812 56.519531 13.839844 C 54.523438 13.113281 53.316406 11.085938 54.070312 8.914062 Z M 50.164062 8.078125 L 52.867188 8.351562 L 52.722656 9.78125 L 50.023438 9.511719 Z M 45.9375 4.945312 C 47.773438 4.746094 48.816406 5.433594 48.976562 6.9375 C 49.15625 8.695312 47.699219 9.128906 47.699219 9.128906 L 49.878906 12.027344 L 47.753906 12.261719 L 45.953125 9.546875 L 45.34375 9.617188 L 45.648438 12.5 L 43.867188 12.699219 L 43.074219 5.289062 Z M 39.925781 6.085938 L 40.570312 7.644531 L 37.511719 8.914062 L 37.945312 9.960938 L 40.824219 8.75 L 41.472656 10.308594 L 38.59375 11.519531 L 39.078125 12.699219 L 42.300781 11.359375 L 42.949219 12.914062 L 38.070312 14.960938 L 35.226562 8.078125 Z M 28.351562 26.085938 L 23.074219 23.65625 L 22.210938 25.539062 L 20.753906 24.871094 L 23.203125 19.472656 L 24.660156 20.144531 L 23.796875 22.027344 L 29.070312 24.453125 Z M 30.3125 22.316406 L 24.28125 17.988281 L 25.324219 16.519531 L 31.355469 20.847656 Z M 34.902344 17.480469 C 32.992188 19.109375 30.707031 18.855469 29.359375 17.28125 C 27.757812 15.398438 27.917969 13.1875 29.863281 11.539062 C 31.375 10.234375 32.742188 10.414062 32.742188 10.414062 L 32.671875 12.300781 C 32.671875 12.300781 31.789062 12.082031 30.851562 12.898438 C 29.644531 13.929688 30.097656 15.289062 30.707031 16.011719 C 31.699219 17.191406 33.011719 16.917969 33.75 16.285156 C 34.378906 15.742188 34.597656 15.125 34.597656 15.125 L 33.949219 14.363281 L 32.957031 15.214844 L 31.878906 13.929688 L 34.183594 11.957031 L 36.71875 14.960938 C 36.71875 14.945312 36.253906 16.320312 34.902344 17.480469 Z M 34.902344 17.480469 "/>
<path style=" stroke:none;fill-rule:nonzero;fill:rgb(100%,100%,100%);fill-opacity:1;" d="M 45.988281 7.96875 C 46.726562 7.898438 47.195312 7.734375 47.140625 7.136719 C 47.070312 6.449219 46.386719 6.484375 45.9375 6.519531 L 45 6.628906 L 45.160156 8.0625 Z M 64.007812 57.964844 L 62.65625 56.40625 L 62.640625 56.425781 L 63.449219 58.308594 Z M 57.617188 22.695312 L 56.394531 22.644531 L 55.546875 23.042969 C 55.546875 23.042969 55.511719 22.605469 55.0625 22.605469 C 54.664062 22.605469 54.757812 23.078125 55.132812 23.222656 C 55.421875 23.347656 55.726562 23.53125 56.015625 23.730469 C 56.734375 23.511719 57.382812 23.113281 57.617188 22.695312 Z M 62.351562 20.050781 C 60.136719 21.230469 59.203125 22.859375 59.203125 22.859375 C 60.769531 21.644531 61.324219 21.699219 61.324219 21.699219 C 61.453125 22.371094 61.289062 23.839844 61.289062 23.839844 C 62.695312 22.425781 62.351562 20.050781 62.351562 20.050781 Z M 43.199219 22.695312 C 43.433594 23.09375 44.082031 23.492188 44.765625 23.710938 C 45.089844 23.511719 45.414062 23.347656 45.683594 23.222656 C 46.0625 23.148438 46.222656 22.589844 45.773438 22.589844 C 45.414062 22.589844 45.269531 22.894531 45.304688 23.042969 L 44.441406 22.644531 Z M 43.199219 22.695312 "/>
<path style=" stroke:none;fill-rule:nonzero;fill:rgb(100%,100%,100%);fill-opacity:1;" d="M 44.964844 20.523438 C 44.476562 20.722656 42.804688 21.644531 42.445312 22.734375 L 44.785156 21.230469 L 47.71875 22.496094 L 49.753906 22.082031 C 49.753906 21.101562 46.132812 20.070312 44.964844 20.523438 Z M 47.683594 22.027344 L 46.0625 20.847656 L 48.707031 21.519531 Z M 55.855469 20.523438 C 54.683594 20.050781 51.085938 21.101562 51.085938 22.082031 L 53.117188 22.496094 L 56.050781 21.230469 L 58.390625 22.734375 C 58.03125 21.664062 56.359375 20.722656 55.855469 20.523438 Z M 53.152344 22.027344 L 52.128906 21.519531 L 54.773438 20.847656 Z M 59.976562 26.445312 C 60.839844 26.285156 61.558594 26.285156 61.558594 26.285156 C 61.433594 26.046875 61.253906 25.777344 61.054688 25.488281 C 59.8125 25.59375 58.519531 25.777344 57.546875 26.046875 C 57.601562 26.71875 57.4375 27.480469 56.898438 28.367188 C 56.898438 28.367188 57.472656 28.964844 57.527344 29.632812 C 57.527344 29.632812 54.664062 31.191406 55.945312 34.164062 C 55.945312 34.164062 54.828125 33.945312 54.503906 33.964844 C 54.503906 33.964844 54.484375 35.648438 54.59375 36.226562 C 54.703125 36.789062 55.457031 40.304688 52.847656 40.992188 C 52.46875 41.101562 52.234375 40.917969 52.019531 40.867188 C 51.804688 40.792969 51.046875 40.574219 50.398438 40.574219 C 49.753906 40.574219 49.015625 40.792969 48.78125 40.867188 C 48.5625 40.9375 48.328125 41.101562 47.953125 40.992188 C 45.34375 40.304688 46.097656 36.355469 46.207031 35.777344 C 45.449219 35.375 43.453125 35.921875 43.453125 35.921875 C 43.597656 34.398438 43.921875 33.058594 43.921875 33.058594 C 42.40625 33.367188 41.4375 33.636719 41.4375 33.636719 C 41.796875 32.132812 41.976562 31.464844 41.976562 31.464844 C 40.195312 31.917969 39.5625 32.496094 39.5625 32.496094 C 40.320312 29.726562 42.085938 28.113281 42.085938 28.113281 C 41.8125 27.28125 41.976562 26.519531 42.371094 25.867188 C 41.5625 25.703125 40.625 25.59375 39.742188 25.503906 C 39.546875 25.792969 39.382812 26.085938 39.238281 26.300781 C 39.238281 26.300781 40.355469 26.15625 41.164062 26.464844 C 41.164062 26.464844 38.484375 28.730469 38.195312 34.253906 C 38.195312 34.253906 39.238281 33.476562 40.570312 33.222656 C 40.570312 33.222656 40.03125 34.671875 40.175781 35.195312 C 40.175781 35.195312 41.957031 34.507812 42.929688 34.378906 C 42.929688 34.378906 42.28125 36.15625 42.679688 37.171875 C 42.679688 37.171875 44.191406 36.644531 45.324219 36.789062 C 45.324219 36.789062 44.65625 40.867188 46.402344 41.519531 C 47.214844 41.84375 48.511719 42.351562 50.382812 42.351562 C 52.253906 42.351562 53.695312 41.824219 54.359375 41.519531 C 56.214844 40.667969 55.441406 36.789062 55.441406 36.789062 C 57.367188 36.625 58.410156 37.171875 58.410156 37.171875 C 58.789062 36.136719 58.15625 34.378906 58.15625 34.378906 C 58.894531 34.398438 60.371094 34.777344 60.371094 34.777344 C 60.316406 34.378906 60.03125 33.65625 60.03125 33.65625 C 61.632812 33.675781 62.820312 34.328125 62.820312 34.328125 C 63.019531 31.046875 59.976562 26.445312 59.976562 26.445312 Z M 59.164062 31.917969 C 59.164062 31.917969 59.4375 32.914062 59.4375 33.3125 C 59.4375 33.3125 58.230469 33.078125 57.511719 33.113281 C 57.671875 33.710938 57.546875 35.792969 57.546875 35.792969 C 57.457031 34.054688 56.464844 32.226562 56.464844 32.226562 C 56.863281 32.0625 58.015625 32.171875 58.015625 32.171875 C 58.050781 31.699219 57.691406 30.59375 57.691406 30.59375 C 58.609375 30.484375 59.074219 30.539062 59.074219 30.539062 C 59.128906 30.214844 58.878906 28.203125 58.285156 27.042969 C 60.191406 28.585938 61.183594 32.082031 61.183594 32.082031 C 60.660156 31.953125 59.8125 31.898438 59.164062 31.917969 Z M 59.164062 31.917969 "/>
<path style=" stroke:none;fill-rule:nonzero;fill:rgb(100%,100%,100%);fill-opacity:1;" d="M 56.050781 25.035156 C 56.015625 25.050781 55.960938 25.070312 55.925781 25.089844 L 53.0625 25.359375 C 53.0625 25.359375 53.980469 24.925781 55.386719 24.527344 C 55.007812 24.308594 54.59375 24.144531 54.234375 24 C 54.234375 24 51.589844 25.089844 50.976562 25.941406 L 51.515625 27.207031 L 55.421875 27.933594 C 55.855469 27.496094 56.125 27.117188 56.285156 26.753906 L 52.488281 26.664062 C 52.488281 26.664062 54.160156 26.121094 56.410156 25.648438 C 56.359375 25.414062 56.230469 25.214844 56.050781 25.035156 Z M 45.46875 27.933594 L 49.375 27.207031 L 49.914062 25.941406 C 49.300781 25.089844 46.65625 24 46.65625 24 C 46.277344 24.144531 45.863281 24.328125 45.484375 24.542969 C 46.855469 24.941406 47.734375 25.359375 47.734375 25.359375 L 44.875 25.089844 C 44.855469 25.089844 44.839844 25.070312 44.800781 25.070312 C 44.640625 25.25 44.515625 25.449219 44.441406 25.6875 C 46.65625 26.15625 48.292969 26.683594 48.292969 26.683594 L 44.585938 26.773438 C 44.765625 27.097656 45.054688 27.480469 45.46875 27.933594 Z M 55.0625 28.746094 C 55.0625 28.746094 54.234375 28.09375 53.371094 28.257812 C 53.371094 28.257812 54.539062 30.539062 53.460938 32.386719 C 53.441406 32.386719 55.171875 31.664062 55.0625 28.746094 Z M 47.359375 32.386719 C 46.277344 30.539062 47.449219 28.257812 47.449219 28.257812 C 46.585938 28.09375 45.757812 28.746094 45.757812 28.746094 C 45.628906 31.664062 47.359375 32.386719 47.359375 32.386719 Z M 49.066406 39.488281 C 49.066406 39.488281 49.570312 39.742188 50.417969 39.742188 C 51.246094 39.742188 51.769531 39.488281 51.769531 39.488281 L 52.6875 39.742188 C 54.160156 38.347656 53.585938 36.773438 53.585938 36.773438 C 53.082031 38.203125 51.804688 38.980469 51.804688 38.980469 L 51.300781 38.65625 L 50.8125 38.980469 L 50.4375 38.65625 L 50.058594 38.980469 L 49.570312 38.65625 L 49.066406 38.980469 C 49.066406 38.980469 47.789062 38.203125 47.285156 36.773438 C 47.285156 36.773438 46.710938 38.347656 48.1875 39.742188 Z M 50.398438 24.273438 L 52.667969 23.621094 L 48.148438 23.621094 Z M 48.347656 28.09375 C 48.347656 28.09375 47.734375 28.636719 48.492188 29.363281 L 49.15625 29.074219 L 49.570312 29.328125 L 50.003906 29.074219 L 50.417969 29.328125 L 50.832031 29.074219 L 51.265625 29.328125 L 51.679688 29.074219 L 52.34375 29.363281 C 53.101562 28.621094 52.488281 28.09375 52.488281 28.09375 L 51.625 28.566406 L 49.230469 28.566406 Z M 51.496094 49.8125 C 51.496094 49.8125 50.632812 47.929688 48.148438 47.929688 C 47.914062 52.042969 42.246094 54.015625 42.246094 54.015625 C 42.246094 54.015625 39.582031 54.289062 38.933594 52.351562 C 39.058594 53.960938 40.015625 55.992188 44.335938 55.394531 C 44.335938 55.394531 45.449219 56.007812 45.664062 56.316406 C 45.664062 56.316406 47.089844 56.316406 47.664062 55.066406 C 47.664062 55.066406 47.160156 53.90625 46.242188 53.4375 C 46.242188 53.4375 47.574219 53.582031 48.601562 54.796875 C 48.851562 54.523438 49.085938 54.160156 49.210938 53.671875 C 49.210938 53.671875 49.464844 52.695312 47.789062 51.570312 C 47.789062 51.570312 49.050781 51.804688 49.933594 52.765625 C 50.183594 52.476562 50.472656 52.097656 50.632812 51.753906 C 50.632812 51.753906 50.4375 50.539062 49.085938 49.6875 C 49.085938 49.6875 50.257812 49.996094 51.101562 50.792969 C 51.28125 50.59375 51.480469 50.25 51.496094 49.8125 Z M 23.507812 47.351562 C 23.902344 47.839844 24.300781 48.238281 24.679688 48.546875 C 26.441406 47.058594 27.988281 46.011719 28.960938 45.394531 C 28.636719 44.507812 28.277344 43.910156 27.953125 43.511719 C 25.46875 45.414062 23.941406 46.914062 23.507812 47.351562 Z M 18.289062 55.210938 C 18.304688 55.230469 18.324219 55.230469 18.34375 55.25 C 19.890625 53.109375 21.617188 51.28125 23.273438 49.777344 C 22.933594 49.378906 22.644531 48.980469 22.429688 48.5625 C 19.835938 51.480469 18.539062 54.578125 18.289062 55.210938 Z M 5.398438 63.980469 C 5.183594 64.214844 4.96875 64.414062 4.734375 64.613281 C 4.734375 64.613281 4.554688 65.734375 5.164062 66.535156 C 5.488281 66.171875 5.632812 65.972656 5.632812 65.972656 C 5.796875 66.894531 5.273438 67.582031 5.273438 67.582031 C 5.6875 68.417969 6.625 68.507812 6.625 68.507812 C 7.234375 68.074219 7.8125 67.003906 7.8125 67.003906 C 7.792969 67.582031 7.648438 68.074219 7.46875 68.488281 C 8.171875 69.140625 9.109375 68.925781 9.109375 68.925781 C 9.648438 68.5625 9.988281 67.582031 9.988281 67.582031 C 10.078125 67.835938 10.097656 68.179688 10.078125 68.527344 C 10.78125 68.398438 11.285156 68.019531 11.285156 68.019531 C 11.464844 67.511719 11.574219 66.949219 11.644531 66.386719 C 7.921875 66.894531 5.902344 64.613281 5.398438 63.980469 Z M 85.734375 48.925781 C 85.894531 49.488281 85.480469 49.722656 84.277344 49.722656 C 81.792969 49.722656 78.03125 48.109375 76.625 46.609375 C 73.691406 45.539062 71.675781 44.324219 70.363281 43.328125 C 70.144531 43.835938 70.054688 44.199219 70.054688 44.199219 C 70.019531 43.800781 70.019531 43.4375 70.039062 43.074219 C 69.046875 42.296875 68.507812 41.664062 68.292969 41.390625 C 68.074219 42.261719 68.074219 43.148438 68.148438 43.816406 C 69.515625 45.03125 72.359375 47.222656 75.257812 47.675781 C 75.257812 47.675781 74.554688 49.34375 77.292969 50.375 C 77.292969 50.375 77.652344 51.261719 78.191406 52.003906 C 78.191406 52.003906 79.324219 52.894531 80.621094 52.402344 C 80.621094 52.402344 81.628906 51.15625 80.515625 50.050781 C 80.515625 50.050781 81.953125 50.773438 81.414062 52.601562 C 81.414062 52.601562 81.863281 53.472656 83.230469 53.039062 C 83.230469 53.039062 83.878906 51.480469 83.179688 50.429688 C 83.179688 50.429688 84.511719 51.390625 83.933594 53.203125 C 83.933594 53.203125 84.691406 53.652344 85.390625 53.292969 C 85.390625 53.292969 86.257812 51.898438 85.535156 50.882812 C 85.535156 50.882812 86.347656 51.480469 86.203125 52.621094 C 87.316406 51.679688 87.390625 50.195312 85.734375 48.925781 Z M 63.070312 40.703125 C 62.335938 40.558594 61.648438 40.175781 61.378906 39.996094 C 61.164062 40.429688 60.910156 40.847656 60.660156 41.226562 C 61.144531 41.554688 61.882812 41.988281 62.875 42.351562 C 62.875 41.824219 62.945312 41.265625 63.070312 40.703125 Z M 64.871094 42.875 C 65.410156 42.964844 66.007812 43.019531 66.636719 43.019531 C 66.816406 42.261719 67.121094 41.679688 67.464844 41.246094 C 66.1875 41.246094 65.105469 41.101562 64.726562 41.046875 C 64.691406 41.589844 64.726562 42.207031 64.871094 42.875 Z M 76.210938 59.304688 L 76.210938 57.675781 L 76.789062 57.675781 L 76.789062 57.476562 L 75.492188 57.476562 L 75.492188 57.675781 L 76.015625 57.675781 L 76.015625 59.304688 Z M 78.589844 59.304688 L 78.589844 57.476562 L 78.28125 57.476562 L 77.8125 58.960938 L 77.347656 57.476562 L 77.039062 57.476562 L 77.039062 59.304688 L 77.238281 59.304688 L 77.238281 57.746094 L 77.722656 59.304688 L 77.921875 59.304688 L 78.390625 57.746094 L 78.390625 59.304688 Z M 78.589844 59.304688 "/>
<path style=" stroke:none;fill-rule:nonzero;fill:rgb(100%,72.156864%,9.803922%);fill-opacity:1;" d="M 43.453125 24.617188 C 42.496094 24.363281 41.472656 24.183594 40.714844 24.074219 C 40.5 24.382812 40.265625 24.707031 40.050781 25.035156 C 40.949219 25.089844 41.851562 25.195312 42.730469 25.339844 C 42.949219 25.089844 43.199219 24.851562 43.453125 24.617188 Z M 57.042969 24.707031 C 57.203125 24.925781 57.328125 25.179688 57.421875 25.449219 C 58.480469 25.25 59.632812 25.105469 60.75 25.035156 C 60.535156 24.707031 60.300781 24.382812 60.085938 24.074219 C 59.238281 24.199219 58.066406 24.417969 57.042969 24.707031 Z M 55.855469 20.523438 C 56.339844 20.722656 58.015625 21.644531 58.375 22.734375 L 57.601562 22.695312 C 57.367188 23.113281 56.71875 23.511719 55.996094 23.730469 C 56.214844 23.875 56.410156 24.039062 56.59375 24.21875 C 57.582031 24 58.714844 23.855469 59.902344 23.855469 C 59.507812 23.292969 59.203125 22.878906 59.203125 22.878906 C 59.203125 22.878906 60.136719 21.246094 62.351562 20.070312 C 60.910156 20.214844 58.375 21.59375 58.375 21.59375 C 57.3125 20.523438 55.980469 19.945312 55.980469 19.945312 C 53.855469 19.273438 50.398438 20.703125 50.398438 20.703125 C 50.398438 20.703125 46.945312 19.273438 44.820312 19.945312 C 44.820312 19.945312 43.199219 20.742188 42.101562 21.953125 L 41.957031 21.15625 C 41.074219 20.742188 39.996094 20.359375 39.042969 20.269531 C 39.042969 20.269531 40.445312 21.101562 41.597656 22.894531 C 41.597656 22.894531 41.292969 23.3125 40.878906 23.875 C 41.992188 23.875 43.054688 24 44.027344 24.199219 C 44.261719 24.039062 44.515625 23.875 44.765625 23.730469 C 44.082031 23.511719 43.433594 23.113281 43.199219 22.714844 L 42.445312 22.75 C 42.804688 21.683594 44.476562 20.742188 44.964844 20.542969 C 46.132812 20.070312 49.734375 21.121094 49.734375 22.097656 L 48.601562 22.914062 L 52.21875 22.914062 L 51.085938 22.097656 C 51.085938 21.101562 54.683594 20.070312 55.855469 20.523438 Z M 19.042969 41.117188 C 19.027344 40.847656 18.917969 40.667969 18.792969 40.539062 C 17.910156 41.15625 17.101562 41.679688 16.363281 42.132812 C 16.792969 42.53125 16.9375 42.964844 16.972656 43.3125 C 17.550781 42.75 18.253906 42.007812 19.042969 41.117188 Z M 13.429688 43.65625 C 13.96875 44.269531 14.128906 44.90625 14.148438 45.375 C 14.417969 45.175781 14.722656 44.996094 15.046875 44.796875 C 15.03125 44.054688 14.632812 43.546875 14.308594 43.257812 C 14.003906 43.402344 13.714844 43.546875 13.429688 43.65625 Z M 15.175781 37.097656 C 14.921875 36.210938 15.371094 35.324219 15.660156 34.871094 C 14.902344 34.941406 14.273438 35.085938 14.273438 35.085938 C 14.347656 34.925781 14.742188 34.542969 14.742188 34.542969 C 13.894531 34.6875 13.140625 34.871094 12.421875 35.085938 C 12.277344 35.648438 12.132812 36.625 12.511719 37.585938 C 13.570312 37.277344 14.542969 37.152344 15.175781 37.097656 Z M 8.171875 40.917969 C 8.171875 40.917969 8.820312 39.488281 10.90625 38.292969 C 10.511719 37.804688 10.027344 36.988281 10.242188 35.9375 C 9.59375 36.246094 9.035156 36.574219 8.53125 36.933594 C 8.53125 37.476562 8.605469 38.222656 9.054688 38.726562 C 9.054688 38.726562 8.261719 38.964844 7.46875 37.785156 C 6.949219 38.257812 6.550781 38.746094 6.210938 39.199219 C 6.460938 39.742188 7.019531 40.667969 8.171875 40.917969 Z M 7.992188 43.855469 C 7.6875 43.472656 7.613281 43.003906 7.648438 42.53125 C 7.039062 42.550781 6.011719 42.386719 5.257812 41.300781 C 4.789062 43.019531 5.488281 44.542969 5.488281 44.542969 C 6.066406 44.613281 7.144531 44.632812 7.992188 43.855469 Z M 9.070312 44.488281 C 8.800781 44.941406 8.171875 45.683594 6.875 46.191406 C 6.875 46.191406 7.921875 47.078125 9.71875 46.953125 C 10.042969 46.480469 10.476562 45.71875 10.351562 45.25 C 10.351562 45.25 11.070312 45.828125 11.035156 46.769531 C 11.609375 46.644531 12.167969 46.480469 12.671875 46.28125 C 12.871094 45.230469 12.367188 44.523438 12.058594 44.179688 C 10.546875 44.652344 9.613281 44.613281 9.070312 44.488281 Z M 48.238281 18.800781 C 48.097656 18.585938 47.898438 18.457031 47.699219 18.3125 C 47.699219 18.3125 49.984375 18.257812 51.226562 19.128906 C 51.679688 19.019531 52.273438 18.875 52.882812 18.730469 C 52.21875 17.96875 50.921875 17.480469 50.921875 17.480469 L 51.101562 18.113281 C 47.628906 16.539062 43.054688 17.679688 40.265625 19.019531 C 41.148438 19.238281 41.867188 19.472656 41.867188 19.472656 C 44.101562 18.367188 45.484375 18.042969 48.238281 18.800781 Z M 48.238281 18.800781 "/>
<path style=" stroke:none;fill-rule:nonzero;fill:rgb(100%,72.156864%,9.803922%);fill-opacity:1;" d="M 43.597656 49.089844 C 43.597656 49.089844 42.28125 49.433594 41.671875 49.941406 C 41.671875 49.941406 41.886719 49.433594 42.265625 48.90625 C 41.921875 47.820312 41.039062 46.101562 40.210938 44.578125 C 37.835938 44.308594 35.910156 46.753906 35.910156 46.753906 C 36.414062 44.253906 38.359375 43.347656 39.367188 43.039062 C 38.84375 42.132812 38.464844 41.5 38.464844 41.5 C 38.644531 41.066406 38.773438 40.59375 38.863281 40.085938 C 35.785156 38.4375 32.148438 41.535156 32.148438 41.535156 C 33.730469 38.023438 37.367188 37.859375 38.96875 37.984375 C 38.933594 37.007812 38.683594 35.613281 38.683594 35.613281 C 37.261719 36.226562 36.199219 36.988281 36.199219 36.988281 C 36.125 34.308594 36.683594 32.042969 37.296875 30.378906 C 35.695312 29.886719 33.605469 30.539062 33.605469 30.539062 C 35.621094 29.382812 37.027344 29.054688 37.890625 29 C 38.410156 27.933594 38.824219 27.335938 38.824219 27.335938 C 37.996094 27.28125 36.613281 27.441406 36.613281 27.441406 C 36.9375 26.609375 37.710938 25.738281 38.125 25.324219 C 36.953125 25.25 36.089844 25.234375 36.089844 25.234375 C 36.757812 25.070312 37.492188 24.980469 38.269531 24.960938 C 37.386719 24.128906 36.882812 22.496094 36.757812 21.121094 C 36.289062 21.464844 35.800781 21.828125 35.335938 22.226562 C 36.234375 23.441406 35.964844 24.21875 35.964844 24.21875 C 35.65625 23.476562 34.9375 23.132812 34.453125 22.988281 C 34.109375 23.292969 33.769531 23.601562 33.425781 23.929688 C 35.820312 25.488281 34.667969 28.039062 34.667969 28.039062 C 34.273438 26.15625 32.886719 25.558594 32.039062 25.359375 C 30.761719 26.738281 29.464844 28.3125 28.152344 30.140625 C 27.160156 32.75 26.929688 36.082031 26.929688 36.082031 C 26.425781 34.90625 26.40625 33.730469 26.476562 32.894531 C 26.082031 33.566406 25.613281 34.328125 25.109375 35.125 C 24.984375 37.277344 26.027344 39.542969 26.027344 39.542969 C 24.679688 38.78125 24.136719 37.730469 23.921875 36.933594 C 23.5625 37.476562 23.183594 38.023438 22.789062 38.582031 C 23.527344 42.496094 25.308594 44.652344 25.308594 44.652344 C 23.183594 43.492188 22.085938 41.699219 21.527344 40.269531 C 20.539062 41.519531 19.492188 42.714844 18.394531 43.710938 C 18.703125 46.082031 21.132812 47.710938 20.464844 49.632812 C 20.089844 47.785156 17.566406 47.097656 16.722656 45.085938 C 16.488281 45.285156 15.085938 46.117188 14.328125 46.753906 C 15.085938 47.152344 16.488281 48.148438 16.308594 50.105469 C 16.308594 50.105469 15.175781 48.019531 12.925781 48.238281 C 12.222656 49.234375 11.789062 50.484375 12.023438 52.078125 C 12.023438 52.078125 10.222656 52.800781 9.808594 52.550781 C 9.808594 52.550781 9.34375 53.347656 8.890625 54.8125 C 9.214844 56.445312 10.476562 57.839844 10.476562 57.839844 C 9.414062 57.566406 8.820312 57.023438 8.476562 56.496094 C 8.425781 56.769531 8.371094 57.058594 8.316406 57.367188 C 9.125 58.796875 10.726562 59.59375 10.726562 59.59375 C 9.269531 59.992188 8.40625 59.558594 7.9375 59.070312 C 7.523438 60.5 6.75 62.476562 5.398438 63.941406 C 5.902344 64.59375 7.921875 66.859375 11.628906 66.351562 C 11.734375 65.519531 11.773438 64.667969 11.914062 63.996094 C 9.324219 63.851562 8.910156 61.28125 8.910156 61.28125 C 10.332031 62.65625 11.554688 62.65625 12.1875 62.546875 C 12.1875 62.546875 12.5625 60.644531 13.15625 59.179688 C 13.15625 59.179688 12.007812 58.019531 11.898438 56.226562 C 12.941406 58.109375 14.722656 58.871094 15.894531 59.179688 C 15.984375 58.980469 16.09375 58.796875 16.199219 58.597656 C 14.347656 57.457031 14.09375 55.429688 14.09375 55.429688 C 14.867188 56.515625 15.875 57.148438 16.8125 57.511719 C 16.921875 57.332031 17.027344 57.148438 17.152344 56.96875 C 14.867188 54.597656 15.929688 51.625 13.464844 50.394531 C 16.703125 50.753906 16.722656 54.179688 18.289062 55.195312 C 18.539062 54.558594 19.835938 51.445312 22.429688 48.527344 C 21.222656 46.28125 21.652344 43.925781 21.652344 43.925781 C 22.140625 45.359375 22.804688 46.480469 23.488281 47.3125 C 23.921875 46.878906 25.453125 45.375 27.917969 43.472656 C 27.214844 42.660156 26.621094 42.695312 26.621094 42.695312 C 26.695312 37.222656 29.410156 32.785156 29.410156 32.785156 C 29.179688 32.824219 28.566406 33.023438 28.566406 33.023438 C 29.753906 29.21875 32.707031 27.441406 32.707031 27.441406 C 31.015625 29.019531 30.238281 31.390625 30.238281 31.390625 C 30.582031 31.230469 31.859375 30.921875 31.859375 30.921875 C 30.835938 32.261719 30.097656 33.964844 29.554688 35.613281 C 30.527344 34.886719 33.515625 32.894531 35.53125 33.890625 C 35.53125 33.890625 31.464844 34.578125 28.636719 39.234375 C 28.511719 39.851562 28.421875 40.394531 28.367188 40.828125 C 28.996094 39.816406 30.960938 37.078125 33.75 37.460938 C 33.75 37.460938 30.472656 37.984375 29.304688 42.441406 C 30.277344 43.582031 30.277344 44.941406 31.195312 46.0625 C 31.445312 45.449219 32.632812 43.003906 35.425781 43.09375 C 35.425781 43.09375 32.8125 44.324219 32.742188 47.785156 C 32.742188 47.785156 33.949219 49.507812 35.386719 50.285156 C 35.640625 49.542969 36.324219 48.308594 37.980469 48.003906 C 37.980469 48.003906 36.648438 49.035156 36.847656 51.246094 C 37.691406 51.753906 38.339844 52.058594 38.539062 52.167969 C 38.683594 51.660156 38.878906 51.117188 39.132812 50.503906 C 39.132812 50.503906 38.878906 51.335938 38.953125 52.3125 C 39.601562 54.25 42.265625 53.980469 42.265625 53.980469 C 42.265625 53.980469 47.933594 52.003906 48.167969 47.894531 C 48.148438 47.929688 46.457031 49.214844 43.597656 49.089844 Z M 73.0625 37.824219 C 72.324219 37.316406 71.550781 36.878906 70.738281 36.574219 C 68.707031 37.152344 67.375 39.363281 67.375 39.363281 C 67.570312 37.078125 68.578125 36.011719 69.300781 35.523438 C 68.957031 34.671875 68.273438 33.113281 67.121094 31.429688 C 66.976562 34.507812 65.878906 35.125 65.878906 35.125 C 66.367188 32.570312 65.554688 30.085938 65.105469 28.964844 C 64.566406 28.421875 63.972656 27.894531 63.324219 27.425781 C 62.945312 27.386719 62.496094 27.351562 62.101562 27.386719 C 62.101562 27.386719 64.890625 31.335938 64.566406 36.972656 C 64.566406 36.972656 63.109375 35.921875 61.523438 35.285156 C 61.523438 35.285156 61.867188 36.410156 61.957031 36.953125 C 61.957031 36.953125 61.273438 36.5 60.355469 36.28125 C 60.355469 36.28125 60.730469 37.714844 60.371094 39.164062 C 60.371094 39.164062 59.488281 38.800781 57.976562 38.546875 C 57.78125 40.519531 56.554688 42.351562 55.3125 43.671875 C 58.410156 41.046875 58.984375 39.761719 58.984375 39.761719 C 58.984375 39.761719 59.074219 40.429688 58.804688 41.390625 C 60.859375 39.722656 62.152344 38.074219 62.152344 38.074219 C 61.957031 38.746094 61.703125 39.378906 61.414062 39.960938 C 61.6875 40.140625 62.371094 40.519531 63.109375 40.667969 C 63.503906 39.054688 64.53125 37.496094 66.421875 37.0625 C 66.421875 37.0625 64.871094 38.472656 64.746094 40.992188 C 65.125 41.046875 66.203125 41.210938 67.480469 41.191406 C 68.113281 40.375 68.832031 40.070312 68.832031 40.070312 C 68.578125 40.46875 68.398438 40.902344 68.292969 41.355469 C 68.507812 41.625 69.046875 42.261719 70.039062 43.039062 C 70.164062 39.996094 72.070312 38.4375 73.0625 37.824219 Z M 80.800781 47.058594 C 80.800781 47.058594 81.234375 46.859375 82.097656 46.808594 C 79.003906 44.886719 78.335938 43.203125 77.074219 41.71875 C 75.3125 41.789062 73.546875 43.527344 73.546875 43.527344 C 73.996094 41.554688 75.367188 40.792969 76.105469 40.519531 C 75.78125 40.160156 75.4375 39.816406 75.078125 39.472656 C 72.304688 39.578125 70.902344 41.988281 70.34375 43.328125 C 71.675781 44.324219 73.691406 45.539062 76.609375 46.609375 C 78.03125 48.109375 81.773438 49.722656 84.257812 49.722656 C 85.464844 49.722656 85.878906 49.488281 85.714844 48.925781 C 84.742188 48.183594 83.160156 47.511719 80.800781 47.058594 Z M 80.800781 47.058594 "/>
<path style=" stroke:none;fill-rule:nonzero;fill:rgb(66.274512%,20.392157%,22.352941%);fill-opacity:1;" d="M 52.199219 30.414062 C 50.578125 29.796875 50.417969 32.496094 50.398438 33.277344 C 50.382812 32.496094 50.238281 29.816406 48.601562 30.414062 C 48.601562 30.414062 49.644531 32.496094 48.816406 33.890625 C 48.023438 35.214844 48.707031 37.296875 49.195312 37.460938 C 49.464844 37.550781 49.753906 37.570312 50.398438 37.570312 C 51.046875 37.570312 51.335938 37.550781 51.605469 37.460938 C 52.09375 37.296875 52.777344 35.214844 51.984375 33.890625 C 51.15625 32.496094 52.199219 30.414062 52.199219 30.414062 Z M 52.199219 30.414062 "/>
<path style=" stroke:none;fill-rule:nonzero;fill:rgb(0%,0%,0%);fill-opacity:1;" d="M 4.015625 66.824219 L 4.390625 67.347656 L 4.140625 67.601562 C 4.140625 67.601562 4.246094 68.109375 4.625 68.632812 C 4.300781 69.378906 3.90625 69.757812 3.90625 69.757812 C 4.660156 69.8125 5.183594 69.613281 5.527344 69.414062 C 5.851562 69.578125 6.226562 69.683594 6.695312 69.703125 L 6.839844 69.523438 L 7.34375 69.8125 C 7.164062 70.480469 6.820312 70.808594 6.820312 70.808594 C 7.613281 70.753906 8.082031 70.429688 8.351562 70.121094 C 8.730469 70.15625 9.144531 70.121094 9.558594 69.921875 C 9.503906 70.375 9.289062 70.71875 9.289062 70.71875 C 10.152344 70.390625 10.585938 69.828125 10.78125 69.449219 C 11.464844 69.324219 12.3125 69.070312 12.886719 68.488281 C 13.175781 64.957031 13.429688 63.089844 14.023438 60.71875 C 14.023438 60.71875 15.75 61.550781 17.910156 60.539062 C 17.910156 60.539062 19.890625 57.984375 23.113281 55.230469 C 23.941406 56.261719 24.804688 57.242188 25.738281 58.183594 C 25.398438 59.070312 24.964844 60.664062 24.964844 62.929688 C 24.964844 65.71875 23.039062 67.203125 23.039062 67.203125 C 23.039062 67.203125 23.039062 67.621094 23.4375 68.019531 C 23.347656 68.761719 22.914062 69.195312 22.914062 69.195312 C 23.507812 69.179688 23.976562 68.90625 24.300781 68.652344 L 24.355469 68.6875 L 24.390625 69.539062 C 24.390625 69.539062 24.605469 69.828125 25.039062 69.992188 C 25.003906 70.589844 24.785156 70.988281 24.785156 70.988281 C 25.34375 70.953125 25.8125 70.574219 26.117188 70.246094 C 26.117188 70.246094 26.460938 70.265625 26.765625 70.265625 L 27.433594 69.777344 C 27.46875 70.355469 27.269531 70.84375 27.269531 70.84375 C 28.007812 70.480469 28.402344 70.027344 28.601562 69.683594 L 29.089844 69.539062 L 29.519531 68.832031 C 29.59375 69.25 29.554688 69.613281 29.554688 69.613281 C 30.042969 69.140625 30.3125 68.597656 30.457031 68.164062 C 30.457031 68.164062 30.835938 67.929688 30.90625 67.855469 C 30.90625 67.855469 31.445312 65.03125 31.355469 62.621094 C 36.433594 65.84375 42.445312 67.710938 48.886719 67.710938 C 60.265625 67.710938 70.308594 61.894531 76.230469 53.074219 C 76.609375 53.453125 77.074219 53.691406 77.542969 53.835938 C 77.398438 54.503906 76.878906 54.957031 76.878906 54.957031 C 77.992188 55.121094 78.820312 54.46875 79.21875 54.050781 C 79.921875 54.050781 80.425781 53.925781 80.425781 53.925781 C 80.566406 54.089844 80.710938 54.214844 80.855469 54.324219 C 80.730469 55.050781 80.296875 55.484375 80.296875 55.484375 C 81.503906 55.792969 82.171875 55.140625 82.441406 54.777344 C 82.855469 54.722656 83.125 54.542969 83.125 54.542969 C 83.304688 54.667969 83.484375 54.742188 83.644531 54.8125 C 83.464844 55.285156 83.105469 55.539062 83.105469 55.539062 C 84.097656 55.738281 84.691406 55.320312 85.015625 54.957031 C 85.480469 54.867188 85.753906 54.648438 85.753906 54.648438 C 85.824219 54.632812 85.914062 54.597656 85.984375 54.542969 C 85.878906 54.832031 85.769531 55.011719 85.769531 55.011719 C 86.453125 55.121094 87.011719 54.304688 87.300781 53.746094 C 87.300781 53.746094 88.632812 52.984375 88.632812 51.101562 C 88.632812 48.039062 85.175781 47.222656 85.175781 47.222656 C 83.160156 46.171875 81.683594 45.011719 80.515625 43.835938 C 81.378906 40.882812 81.828125 37.769531 81.828125 34.542969 C 81.828125 16.230469 67.066406 1.375 48.871094 1.375 C 31.066406 1.375 16.558594 15.597656 15.949219 33.367188 C 13.410156 33.710938 3.960938 35.429688 3.960938 42.675781 C 3.960938 45.957031 6.191406 48.308594 9.628906 48.308594 C 10.492188 48.308594 11.449219 48.074219 11.449219 48.074219 C 11.449219 48.074219 10.476562 49.632812 10.78125 50.863281 C 10.78125 50.863281 10.386719 51.316406 8.820312 51.535156 C 6.425781 54.742188 8.386719 59.941406 3.617188 64.050781 C 3.492188 64.722656 3.511719 65.300781 3.617188 65.773438 C 3.167969 66.460938 2.359375 66.679688 2.359375 66.679688 C 3.132812 67.023438 3.671875 66.949219 4.015625 66.824219 Z M 27.917969 56.570312 C 27.558594 56.898438 27.234375 57.097656 26.945312 57.222656 C 25.992188 56.296875 25.109375 55.300781 24.28125 54.269531 C 25.597656 53.238281 27.070312 52.203125 28.65625 51.316406 C 27.539062 53.78125 27.917969 56.570312 27.917969 56.570312 Z M 48.851562 66.1875 C 42.964844 66.1875 37.457031 64.558594 32.761719 61.734375 C 33.175781 61.769531 33.660156 61.789062 34.21875 61.769531 C 34.21875 61.769531 37.0625 59.832031 39.058594 56.570312 C 40.804688 58.183594 44.566406 57.132812 44.566406 57.132812 L 46.152344 57.785156 C 46.765625 57.695312 47.269531 57.566406 47.664062 57.421875 C 48.222656 57.984375 48.222656 58.671875 48.222656 58.671875 C 48.742188 58.144531 48.742188 57.457031 48.617188 56.914062 C 48.960938 56.660156 49.121094 56.390625 49.195312 56.191406 C 49.320312 56.117188 49.445312 56.046875 49.554688 55.972656 C 50.113281 56.351562 50.382812 57.167969 50.382812 57.167969 C 50.777344 56.261719 50.597656 55.554688 50.382812 55.15625 C 50.652344 54.777344 50.742188 54.488281 50.742188 54.488281 L 50.722656 54.398438 C 50.8125 54.324219 50.886719 54.25 50.976562 54.160156 C 51.589844 54.722656 51.714844 55.410156 51.714844 55.410156 C 52.253906 54.398438 51.984375 53.582031 51.730469 53.128906 C 51.875 52.855469 51.949219 52.65625 51.949219 52.65625 C 51.949219 52.511719 51.949219 52.367188 51.910156 52.242188 C 52.003906 52.152344 52.09375 52.042969 52.183594 51.953125 C 52.792969 52.511719 52.777344 53.203125 52.777344 53.203125 C 53.316406 52.3125 53.082031 51.246094 52.902344 50.683594 C 53.117188 50.105469 53.117188 49.6875 53.117188 49.6875 C 52.414062 46.515625 48.023438 46.734375 48.023438 46.734375 C 46.132812 47.820312 44.496094 48.003906 43.738281 48.019531 L 43.109375 46.878906 C 46.117188 46.589844 46.726562 45.429688 49.429688 45.429688 C 52.273438 45.429688 53.746094 47.023438 53.746094 47.023438 C 53.746094 47.023438 56.753906 45.703125 59.238281 43.074219 C 61.523438 44.667969 66.511719 44.46875 66.511719 44.46875 C 69.03125 47.3125 73.585938 48.746094 73.585938 48.746094 C 73.351562 49.921875 73.78125 50.539062 74.285156 50.863281 C 74.214844 51.445312 74.214844 52.203125 74.59375 52.785156 C 68.867188 60.882812 59.488281 66.1875 48.851562 66.1875 Z M 40.195312 35.160156 C 40.050781 34.652344 40.589844 33.183594 40.589844 33.183594 C 39.238281 33.4375 38.214844 34.21875 38.214844 34.21875 C 38.484375 28.710938 41.183594 26.429688 41.183594 26.429688 C 40.375 26.121094 39.257812 26.265625 39.257812 26.265625 C 39.382812 26.03125 39.5625 25.757812 39.761719 25.46875 C 40.644531 25.558594 41.578125 25.667969 42.390625 25.832031 C 41.992188 26.5 41.8125 27.242188 42.101562 28.078125 C 42.101562 28.078125 40.355469 29.6875 39.582031 32.460938 C 39.582031 32.460938 40.210938 31.882812 41.992188 31.429688 C 41.992188 31.429688 41.832031 32.097656 41.453125 33.601562 C 41.453125 33.601562 42.425781 33.328125 43.9375 33.023438 C 43.9375 33.023438 43.597656 34.363281 43.46875 35.882812 C 43.46875 35.882812 45.46875 35.339844 46.222656 35.738281 C 46.117188 36.320312 45.359375 40.269531 47.96875 40.957031 C 48.347656 41.066406 48.582031 40.882812 48.796875 40.828125 C 49.015625 40.757812 49.769531 40.539062 50.417969 40.539062 C 51.066406 40.539062 51.804688 40.757812 52.039062 40.828125 C 52.253906 40.902344 52.488281 41.066406 52.867188 40.957031 C 55.476562 40.269531 54.738281 36.773438 54.613281 36.191406 C 54.503906 35.628906 54.523438 33.929688 54.523438 33.929688 C 54.847656 33.929688 55.960938 34.128906 55.960938 34.128906 C 54.683594 31.15625 57.546875 29.597656 57.546875 29.597656 C 57.472656 28.929688 56.914062 28.332031 56.914062 28.332031 C 57.4375 27.441406 57.617188 26.664062 57.5625 26.011719 C 58.535156 25.738281 59.832031 25.558594 61.074219 25.449219 C 61.273438 25.738281 61.453125 26.011719 61.578125 26.246094 C 61.578125 26.246094 60.859375 26.246094 59.992188 26.410156 C 59.992188 26.410156 63.035156 31.011719 62.875 34.273438 C 62.875 34.273438 61.6875 33.601562 60.085938 33.601562 C 60.085938 33.601562 60.371094 34.328125 60.425781 34.726562 C 60.425781 34.726562 58.949219 34.34375 58.210938 34.328125 C 58.210938 34.328125 58.859375 36.101562 58.464844 37.117188 C 58.464844 37.117188 57.421875 36.574219 55.492188 36.734375 C 55.492188 36.734375 56.269531 40.613281 54.414062 41.464844 C 53.746094 41.769531 52.308594 42.296875 50.4375 42.296875 C 48.5625 42.296875 47.269531 41.808594 46.457031 41.464844 C 44.710938 40.8125 45.378906 36.734375 45.378906 36.734375 C 44.226562 36.589844 42.730469 37.117188 42.730469 37.117188 C 42.335938 36.082031 42.984375 34.328125 42.984375 34.328125 C 41.976562 34.488281 40.195312 35.160156 40.195312 35.160156 Z M 50.921875 17.480469 C 50.921875 17.480469 52.21875 17.949219 52.882812 18.730469 C 52.253906 18.875 51.679688 19.019531 51.226562 19.128906 C 49.984375 18.257812 47.699219 18.3125 47.699219 18.3125 C 47.914062 18.457031 48.097656 18.585938 48.238281 18.800781 C 45.484375 18.042969 44.101562 18.367188 41.867188 19.472656 C 41.867188 19.472656 41.148438 19.238281 40.265625 19.019531 C 43.074219 17.660156 47.644531 16.539062 51.101562 18.113281 Z M 41.957031 21.121094 L 42.101562 21.917969 C 43.199219 20.703125 44.820312 19.90625 44.820312 19.90625 C 46.945312 19.238281 50.398438 20.667969 50.398438 20.667969 C 50.398438 20.667969 53.855469 19.238281 55.980469 19.90625 C 55.980469 19.90625 57.3125 20.488281 58.375 21.554688 C 58.375 21.554688 60.894531 20.160156 62.351562 20.035156 C 62.351562 20.035156 62.695312 22.40625 61.289062 23.839844 C 61.289062 23.839844 61.453125 22.351562 61.324219 21.699219 C 61.324219 21.699219 60.769531 21.644531 59.203125 22.859375 C 59.203125 22.859375 59.507812 23.277344 59.902344 23.839844 C 58.734375 23.839844 57.601562 23.984375 56.59375 24.199219 C 56.410156 24.019531 56.195312 23.855469 55.996094 23.710938 C 55.710938 23.511719 55.402344 23.347656 55.117188 23.203125 C 54.738281 23.058594 54.648438 22.589844 55.042969 22.589844 C 55.492188 22.589844 55.53125 23.023438 55.53125 23.023438 L 56.375 22.625 L 57.601562 22.679688 L 58.375 22.714844 L 56.035156 21.210938 L 53.101562 22.480469 L 51.066406 22.0625 L 52.199219 22.878906 L 48.601562 22.878906 L 49.734375 22.0625 L 47.699219 22.480469 L 44.765625 21.210938 L 42.425781 22.714844 L 43.183594 22.679688 L 44.425781 22.625 L 45.289062 23.023438 C 45.253906 22.878906 45.394531 22.570312 45.757812 22.570312 C 46.207031 22.570312 46.042969 23.132812 45.664062 23.203125 C 45.394531 23.332031 45.070312 23.511719 44.746094 23.691406 C 44.515625 23.839844 44.261719 23.984375 44.011719 24.164062 C 43.054688 23.964844 41.976562 23.839844 40.859375 23.839844 C 41.257812 23.277344 41.578125 22.859375 41.578125 22.859375 C 40.429688 21.066406 39.023438 20.234375 39.023438 20.234375 C 39.996094 20.324219 41.074219 20.703125 41.957031 21.121094 Z M 60.75 25.035156 C 59.617188 25.105469 58.480469 25.25 57.421875 25.449219 C 57.328125 25.179688 57.203125 24.925781 57.042969 24.707031 C 58.066406 24.417969 59.238281 24.199219 60.085938 24.074219 C 60.300781 24.382812 60.535156 24.707031 60.75 25.035156 Z M 56.285156 26.753906 C 56.125 27.097656 55.855469 27.480469 55.421875 27.933594 L 51.515625 27.207031 L 50.976562 25.941406 C 51.589844 25.089844 54.234375 24 54.234375 24 C 54.59375 24.144531 55.007812 24.308594 55.386719 24.527344 C 53.980469 24.925781 53.0625 25.359375 53.0625 25.359375 L 55.925781 25.089844 C 55.960938 25.070312 56.015625 25.050781 56.050781 25.035156 C 56.230469 25.214844 56.359375 25.414062 56.429688 25.648438 C 54.179688 26.121094 52.507812 26.664062 52.507812 26.664062 Z M 44.460938 25.667969 C 44.53125 25.433594 44.640625 25.234375 44.820312 25.050781 C 44.839844 25.050781 44.855469 25.070312 44.890625 25.070312 L 47.753906 25.339844 C 47.753906 25.339844 46.855469 24.925781 45.503906 24.527344 C 45.882812 24.308594 46.3125 24.128906 46.675781 23.984375 C 46.675781 23.984375 49.320312 25.070312 49.933594 25.921875 L 49.390625 27.1875 L 45.484375 27.914062 C 45.054688 27.480469 44.785156 27.082031 44.621094 26.738281 L 48.328125 26.644531 C 48.3125 26.664062 46.675781 26.121094 44.460938 25.667969 Z M 48.617188 30.414062 C 50.238281 29.796875 50.398438 32.496094 50.417969 33.277344 C 50.4375 32.496094 50.578125 29.816406 52.21875 30.414062 C 52.21875 30.414062 51.175781 32.496094 52.003906 33.890625 C 52.792969 35.214844 52.109375 37.296875 51.625 37.460938 C 51.335938 37.550781 51.066406 37.570312 50.417969 37.570312 C 49.769531 37.570312 49.5 37.550781 49.210938 37.460938 C 48.726562 37.296875 48.042969 35.214844 48.835938 33.890625 C 49.660156 32.496094 48.617188 30.414062 48.617188 30.414062 Z M 52.324219 29.363281 L 51.660156 29.074219 L 51.246094 29.328125 L 50.8125 29.074219 L 50.398438 29.328125 L 49.984375 29.074219 L 49.554688 29.328125 L 49.140625 29.074219 L 48.472656 29.363281 C 47.71875 28.621094 48.328125 28.09375 48.328125 28.09375 L 49.195312 28.566406 L 51.589844 28.566406 L 52.453125 28.09375 C 52.46875 28.09375 53.082031 28.621094 52.324219 29.363281 Z M 48.148438 23.621094 L 52.667969 23.621094 L 50.398438 24.273438 Z M 45.757812 28.746094 C 45.757812 28.746094 46.585938 28.09375 47.449219 28.257812 C 47.449219 28.257812 46.277344 30.539062 47.359375 32.386719 C 47.359375 32.386719 45.628906 31.664062 45.757812 28.746094 Z M 47.25 36.773438 C 47.753906 38.203125 49.03125 38.980469 49.03125 38.980469 L 49.535156 38.65625 L 50.023438 38.980469 L 50.398438 38.65625 L 50.777344 38.980469 L 51.265625 38.65625 L 51.769531 38.980469 C 51.769531 38.980469 53.046875 38.203125 53.550781 36.773438 C 53.550781 36.773438 54.125 38.347656 52.648438 39.742188 L 51.730469 39.488281 C 51.730469 39.488281 51.210938 39.742188 50.382812 39.742188 C 49.554688 39.742188 49.03125 39.488281 49.03125 39.488281 L 48.113281 39.742188 C 46.675781 38.347656 47.25 36.773438 47.25 36.773438 Z M 53.441406 32.386719 C 54.523438 30.539062 53.351562 28.257812 53.351562 28.257812 C 54.214844 28.09375 55.042969 28.746094 55.042969 28.746094 C 55.171875 31.664062 53.441406 32.386719 53.441406 32.386719 Z M 43.453125 24.617188 C 43.183594 24.835938 42.949219 25.089844 42.730469 25.339844 C 41.867188 25.195312 40.949219 25.089844 40.050781 25.035156 C 40.265625 24.707031 40.5 24.382812 40.714844 24.074219 C 41.472656 24.183594 42.496094 24.382812 43.453125 24.617188 Z M 82.097656 46.808594 C 81.234375 46.84375 80.800781 47.058594 80.800781 47.058594 C 83.160156 47.511719 84.742188 48.183594 85.734375 48.925781 C 87.390625 50.195312 87.316406 51.679688 86.164062 52.640625 C 86.292969 51.5 85.5 50.902344 85.5 50.902344 C 86.21875 51.914062 85.355469 53.308594 85.355469 53.308594 C 84.652344 53.671875 83.898438 53.21875 83.898438 53.21875 C 84.472656 51.40625 83.140625 50.449219 83.140625 50.449219 C 83.863281 51.5 83.195312 53.054688 83.195312 53.054688 C 81.828125 53.507812 81.378906 52.621094 81.378906 52.621094 C 81.9375 50.773438 80.476562 50.066406 80.476562 50.066406 C 81.59375 51.171875 80.585938 52.421875 80.585938 52.421875 C 79.273438 52.910156 78.15625 52.023438 78.15625 52.023438 C 77.632812 51.261719 77.257812 50.394531 77.257812 50.394531 C 74.519531 49.359375 75.222656 47.695312 75.222656 47.695312 C 72.324219 47.242188 69.496094 45.050781 68.113281 43.835938 C 68.039062 43.183594 68.039062 42.277344 68.257812 41.410156 C 68.363281 40.972656 68.542969 40.519531 68.796875 40.121094 C 68.796875 40.121094 68.074219 40.429688 67.445312 41.246094 C 67.105469 41.679688 66.78125 42.261719 66.617188 43.019531 C 65.988281 43.019531 65.410156 42.964844 64.855469 42.875 C 64.710938 42.207031 64.675781 41.589844 64.691406 41.027344 C 64.816406 38.511719 66.367188 37.097656 66.367188 37.097656 C 64.476562 37.53125 63.449219 39.089844 63.054688 40.703125 C 62.910156 41.265625 62.855469 41.824219 62.839844 42.351562 C 61.847656 41.988281 61.109375 41.570312 60.625 41.226562 C 60.894531 40.828125 61.128906 40.414062 61.34375 39.996094 C 61.648438 39.398438 61.902344 38.765625 62.082031 38.113281 C 62.082031 38.113281 60.785156 39.761719 58.734375 41.425781 C 59.023438 40.46875 58.914062 39.796875 58.914062 39.796875 C 58.914062 39.796875 58.339844 41.082031 55.242188 43.710938 C 56.503906 42.386719 57.707031 40.558594 57.90625 38.582031 C 59.417969 38.835938 60.300781 39.199219 60.300781 39.199219 C 60.679688 37.75 60.28125 36.320312 60.28125 36.320312 C 61.199219 36.535156 61.882812 36.988281 61.882812 36.988281 C 61.792969 36.445312 61.453125 35.324219 61.453125 35.324219 C 63.035156 35.957031 64.492188 37.007812 64.492188 37.007812 C 64.816406 31.355469 62.027344 27.425781 62.027344 27.425781 C 62.425781 27.386719 62.875 27.40625 63.253906 27.460938 C 63.898438 27.933594 64.492188 28.457031 65.035156 29 C 65.484375 30.125 66.292969 32.605469 65.808594 35.160156 C 65.808594 35.160156 66.90625 34.542969 67.050781 31.464844 C 68.183594 33.128906 68.886719 34.707031 69.226562 35.558594 C 68.507812 36.027344 67.5 37.117188 67.300781 39.398438 C 67.300781 39.398438 68.652344 37.1875 70.667969 36.609375 C 71.476562 36.933594 72.253906 37.371094 72.988281 37.859375 C 72 38.472656 70.109375 40.03125 69.949219 43.113281 C 69.929688 43.472656 69.929688 43.835938 69.964844 44.234375 C 69.964844 44.234375 70.054688 43.871094 70.273438 43.367188 C 70.828125 42.023438 72.234375 39.617188 75.007812 39.507812 C 75.367188 39.851562 75.707031 40.214844 76.03125 40.558594 C 75.292969 40.828125 73.925781 41.589844 73.476562 43.566406 C 73.476562 43.566406 75.238281 41.824219 77.003906 41.753906 C 78.335938 43.21875 79.003906 44.886719 82.097656 46.808594 Z M 48.851562 2.933594 C 66.203125 2.933594 80.28125 17.101562 80.28125 34.5625 C 80.28125 37.316406 79.9375 39.976562 79.273438 42.515625 C 76.589844 39.289062 75.382812 36.082031 70.453125 34.542969 C 68.472656 29.5625 65.503906 26.753906 63.433594 25.304688 L 64.710938 25.269531 C 64.171875 25.140625 63.59375 25.050781 62.980469 25.015625 L 62.695312 24.835938 C 64.0625 23.3125 64.386719 19.816406 63.792969 18.964844 C 63.160156 18.078125 58.914062 19.472656 58.914062 19.472656 C 57.871094 19 56.179688 18.296875 55.027344 18.386719 C 53.980469 17.335938 51.820312 15.558594 48.90625 15.398438 C 48.90625 15.398438 49.15625 15.796875 49.320312 16.285156 C 43.199219 15.398438 38.160156 18.675781 38.160156 18.675781 C 36.847656 18.585938 36.847656 19.164062 36.757812 19.527344 C 28.816406 24.742188 26.082031 31.808594 22.789062 36.320312 C 21.511719 37.316406 19.765625 38.710938 17.890625 40.03125 C 17.765625 39.34375 17.675781 38.636719 17.585938 37.929688 C 18.574219 37.714844 19.332031 37.171875 19.332031 35.8125 C 19.332031 34.707031 18.34375 34.253906 17.425781 34.054688 C 17.710938 16.828125 31.660156 2.933594 48.851562 2.933594 Z M 10.171875 43.671875 C 9.304688 43.671875 8.785156 43.367188 8.785156 42.585938 C 8.785156 40.195312 12.492188 38.09375 15.570312 38.09375 L 16.09375 38.09375 C 16.199219 39.070312 16.34375 40.03125 16.523438 40.992188 C 14.21875 42.476562 11.898438 43.671875 10.171875 43.671875 Z M 15.046875 44.796875 C 14.722656 44.996094 14.4375 45.175781 14.148438 45.375 C 14.113281 44.90625 13.949219 44.269531 13.429688 43.65625 C 13.699219 43.527344 14.003906 43.402344 14.308594 43.238281 C 14.632812 43.546875 15.03125 44.054688 15.046875 44.796875 Z M 18.773438 40.539062 C 18.898438 40.667969 19.007812 40.847656 19.027344 41.117188 C 18.234375 42.023438 17.53125 42.75 16.957031 43.3125 C 16.921875 42.964844 16.777344 42.550781 16.34375 42.132812 C 17.082031 41.679688 17.890625 41.15625 18.773438 40.539062 Z M 12.4375 35.105469 C 13.140625 34.886719 13.914062 34.707031 14.761719 34.5625 C 14.761719 34.5625 14.382812 34.941406 14.292969 35.105469 C 14.292969 35.105469 14.921875 34.960938 15.679688 34.886719 C 15.390625 35.324219 14.941406 36.210938 15.191406 37.117188 C 14.5625 37.152344 13.589844 37.277344 12.546875 37.625 C 12.148438 36.644531 12.292969 35.667969 12.4375 35.105469 Z M 7.488281 37.785156 C 8.28125 38.945312 9.070312 38.726562 9.070312 38.726562 C 8.621094 38.238281 8.550781 37.496094 8.550781 36.933594 C 9.054688 36.589844 9.613281 36.246094 10.261719 35.9375 C 10.042969 36.988281 10.53125 37.804688 10.925781 38.292969 C 8.820312 39.488281 8.171875 40.917969 8.171875 40.917969 C 7.019531 40.667969 6.460938 39.742188 6.226562 39.21875 C 6.550781 38.746094 6.964844 38.257812 7.488281 37.785156 Z M 5.488281 44.523438 C 5.488281 44.523438 4.789062 43.003906 5.257812 41.28125 C 6.011719 42.367188 7.039062 42.53125 7.648438 42.515625 C 7.613281 42.984375 7.6875 43.457031 7.992188 43.835938 C 7.144531 44.632812 6.066406 44.613281 5.488281 44.523438 Z M 11.015625 46.769531 C 11.070312 45.828125 10.332031 45.25 10.332031 45.25 C 10.457031 45.71875 10.027344 46.480469 9.703125 46.953125 C 7.921875 47.078125 6.859375 46.191406 6.859375 46.191406 C 8.152344 45.703125 8.785156 44.960938 9.054688 44.488281 C 9.59375 44.613281 10.546875 44.652344 12.042969 44.179688 C 12.367188 44.507812 12.851562 45.230469 12.652344 46.28125 C 12.148438 46.480469 11.59375 46.644531 11.015625 46.769531 Z M 4.734375 64.613281 C 4.96875 64.414062 5.183594 64.195312 5.398438 63.980469 C 6.75 62.511719 7.523438 60.539062 7.9375 59.105469 C 8.425781 59.59375 9.269531 60.046875 10.726562 59.632812 C 10.726562 59.632812 9.109375 58.851562 8.316406 57.402344 C 8.371094 57.097656 8.425781 56.804688 8.476562 56.535156 C 8.820312 57.078125 9.414062 57.621094 10.476562 57.875 C 10.476562 57.875 9.234375 56.480469 8.890625 54.851562 C 9.34375 53.382812 9.808594 52.585938 9.808594 52.585938 C 10.222656 52.839844 12.023438 52.113281 12.023438 52.113281 C 11.789062 50.519531 12.222656 49.269531 12.925781 48.273438 C 15.175781 48.074219 16.308594 50.140625 16.308594 50.140625 C 16.46875 48.183594 15.085938 47.167969 14.328125 46.789062 C 15.085938 46.136719 16.488281 45.304688 16.722656 45.121094 C 17.585938 47.132812 20.089844 47.820312 20.464844 49.667969 C 21.132812 47.730469 18.703125 46.117188 18.394531 43.746094 C 19.492188 42.730469 20.539062 41.535156 21.527344 40.304688 C 22.085938 41.734375 23.183594 43.527344 25.308594 44.6875 C 25.308594 44.6875 23.527344 42.53125 22.789062 38.621094 C 23.183594 38.074219 23.5625 37.515625 23.921875 36.972656 C 24.136719 37.769531 24.679688 38.820312 26.027344 39.578125 C 26.027344 39.578125 24.984375 37.316406 25.109375 35.160156 C 25.613281 34.363281 26.082031 33.601562 26.476562 32.929688 C 26.386719 33.765625 26.425781 34.941406 26.929688 36.121094 C 26.929688 36.121094 27.160156 32.785156 28.152344 30.179688 C 29.464844 28.347656 30.761719 26.753906 32.039062 25.394531 C 32.902344 25.59375 34.273438 26.210938 34.667969 28.078125 C 34.667969 28.078125 35.839844 25.523438 33.425781 23.964844 C 33.769531 23.640625 34.109375 23.3125 34.453125 23.023438 C 34.9375 23.167969 35.65625 23.53125 35.964844 24.253906 C 35.964844 24.253906 36.234375 23.476562 35.335938 22.261719 C 35.820312 21.863281 36.289062 21.5 36.757812 21.15625 C 36.882812 22.535156 37.386719 24.164062 38.269531 24.996094 C 37.492188 25.015625 36.757812 25.105469 36.089844 25.269531 C 36.089844 25.269531 36.9375 25.289062 38.125 25.359375 C 37.710938 25.777344 36.9375 26.644531 36.613281 27.480469 C 36.613281 27.480469 37.996094 27.316406 38.824219 27.371094 C 38.824219 27.371094 38.394531 27.96875 37.890625 29.035156 C 37.027344 29.089844 35.621094 29.433594 33.605469 30.578125 C 33.605469 30.578125 35.695312 29.925781 37.296875 30.414062 C 36.683594 32.082031 36.125 34.328125 36.199219 37.023438 C 36.199219 37.023438 37.277344 36.265625 38.683594 35.648438 C 38.683594 35.648438 38.953125 37.042969 38.96875 38.023438 C 37.367188 37.914062 33.714844 38.058594 32.148438 41.570312 C 32.148438 41.570312 35.785156 38.492188 38.863281 40.121094 C 38.773438 40.613281 38.644531 41.082031 38.464844 41.535156 C 38.464844 41.535156 38.84375 42.167969 39.367188 43.074219 C 38.359375 43.382812 36.433594 44.269531 35.910156 46.789062 C 35.910156 46.789062 37.835938 44.34375 40.210938 44.613281 C 41.039062 46.136719 41.921875 47.875 42.265625 48.945312 C 41.886719 49.46875 41.671875 49.976562 41.671875 49.976562 C 42.28125 49.46875 43.597656 49.125 43.597656 49.125 C 46.457031 49.234375 48.148438 47.964844 48.148438 47.964844 C 50.617188 47.964844 51.496094 49.851562 51.496094 49.851562 C 51.460938 50.285156 51.265625 50.628906 51.101562 50.847656 C 50.257812 50.050781 49.085938 49.742188 49.085938 49.742188 C 50.4375 50.59375 50.632812 51.804688 50.632812 51.804688 C 50.472656 52.152344 50.183594 52.511719 49.933594 52.820312 C 49.050781 51.84375 47.789062 51.625 47.789062 51.625 C 49.464844 52.75 49.210938 53.726562 49.210938 53.726562 C 49.085938 54.214844 48.851562 54.578125 48.601562 54.851562 C 47.574219 53.652344 46.242188 53.492188 46.242188 53.492188 C 47.160156 53.960938 47.664062 55.121094 47.664062 55.121094 C 47.105469 56.371094 45.664062 56.371094 45.664062 56.371094 C 45.433594 56.0625 44.335938 55.449219 44.335938 55.449219 C 40.015625 56.027344 39.042969 54.015625 38.933594 52.402344 C 38.863281 51.425781 39.113281 50.59375 39.113281 50.59375 C 38.863281 51.191406 38.664062 51.753906 38.519531 52.257812 C 38.320312 52.167969 37.675781 51.859375 36.828125 51.335938 C 36.628906 49.125 37.960938 48.09375 37.960938 48.09375 C 36.289062 48.402344 35.621094 49.632812 35.371094 50.375 C 33.929688 49.597656 32.722656 47.875 32.722656 47.875 C 32.796875 44.414062 35.40625 43.183594 35.40625 43.183594 C 32.597656 43.074219 31.429688 45.519531 31.175781 46.15625 C 30.277344 45.03125 30.277344 43.671875 29.285156 42.53125 C 30.457031 38.074219 33.730469 37.550781 33.730469 37.550781 C 30.941406 37.152344 28.980469 39.886719 28.351562 40.917969 C 28.402344 40.503906 28.492188 39.960938 28.621094 39.324219 C 31.445312 34.671875 35.515625 33.980469 35.515625 33.980469 C 33.515625 32.984375 30.511719 34.996094 29.539062 35.703125 C 30.078125 34.054688 30.835938 32.351562 31.84375 31.011719 C 31.84375 31.011719 30.5625 31.320312 30.222656 31.480469 C 30.222656 31.480469 30.996094 29.089844 32.6875 27.535156 C 32.6875 27.535156 29.753906 29.308594 28.546875 33.113281 C 28.546875 33.113281 29.160156 32.914062 29.394531 32.878906 C 29.394531 32.878906 26.675781 37.316406 26.605469 42.785156 C 26.605469 42.785156 27.214844 42.75 27.898438 43.566406 C 28.242188 43.964844 28.601562 44.5625 28.90625 45.449219 C 27.953125 46.0625 26.386719 47.113281 24.625 48.601562 C 24.246094 48.273438 23.851562 47.875 23.453125 47.40625 C 22.769531 46.554688 22.105469 45.449219 21.617188 44.015625 C 21.617188 44.015625 21.1875 46.371094 22.390625 48.617188 C 22.609375 49.035156 22.894531 49.453125 23.238281 49.832031 C 21.601562 51.335938 19.871094 53.164062 18.304688 55.300781 C 18.289062 55.285156 18.269531 55.285156 18.253906 55.265625 C 16.6875 54.25 16.667969 50.828125 13.429688 50.464844 C 15.894531 51.699219 14.832031 54.667969 17.117188 57.042969 C 17.011719 57.222656 16.902344 57.402344 16.777344 57.585938 C 15.839844 57.222656 14.832031 56.589844 14.058594 55.5 C 14.058594 55.5 14.308594 57.53125 16.164062 58.671875 C 16.054688 58.871094 15.964844 59.050781 15.859375 59.25 C 14.6875 58.945312 12.90625 58.183594 11.863281 56.296875 C 11.96875 58.09375 13.121094 59.25 13.121094 59.25 C 12.527344 60.699219 12.148438 62.621094 12.148438 62.621094 C 11.519531 62.746094 10.296875 62.730469 8.875 61.351562 C 8.875 61.351562 9.289062 63.925781 11.878906 64.070312 C 11.734375 64.757812 11.699219 65.589844 11.59375 66.425781 C 11.519531 66.984375 11.410156 67.546875 11.230469 68.054688 C 11.230469 68.054688 10.726562 68.433594 10.027344 68.5625 C 10.042969 68.21875 10.042969 67.855469 9.9375 67.621094 C 9.9375 67.621094 9.59375 68.597656 9.054688 68.960938 C 9.054688 68.960938 8.136719 69.195312 7.414062 68.527344 C 7.597656 68.109375 7.738281 67.601562 7.757812 67.039062 C 7.757812 67.039062 7.199219 68.109375 6.570312 68.542969 C 6.570312 68.542969 5.632812 68.453125 5.21875 67.621094 C 5.21875 67.621094 5.742188 66.949219 5.578125 66.007812 C 5.578125 66.007812 5.4375 66.207031 5.113281 66.570312 C 4.554688 65.734375 4.734375 64.613281 4.734375 64.613281 Z M 4.734375 64.613281 "/>
<path style=" stroke:none;fill-rule:nonzero;fill:rgb(0%,0%,0%);fill-opacity:1;" d="M 57.511719 33.113281 C 58.230469 33.078125 59.4375 33.3125 59.4375 33.3125 C 59.4375 32.914062 59.164062 31.917969 59.164062 31.917969 C 59.8125 31.917969 60.660156 31.953125 61.199219 32.082031 C 61.199219 32.082031 60.210938 28.585938 58.300781 27.042969 C 58.878906 28.203125 59.148438 30.214844 59.09375 30.539062 C 59.09375 30.539062 58.625 30.484375 57.707031 30.59375 C 57.707031 30.59375 58.085938 31.699219 58.03125 32.171875 C 58.03125 32.171875 56.878906 32.042969 56.484375 32.226562 C 56.484375 32.226562 57.472656 34.054688 57.5625 35.792969 C 57.546875 35.792969 57.671875 33.710938 57.511719 33.113281 Z M 48.691406 21.5 L 46.042969 20.832031 L 47.683594 22.027344 Z M 54.773438 20.832031 L 52.128906 21.5 L 53.152344 22.027344 Z M 39.492188 62.730469 L 40.265625 62.945312 L 40.859375 60.9375 L 41.886719 61.261719 L 42.085938 60.574219 L 41.058594 60.265625 L 41.398438 59.089844 L 42.785156 59.503906 L 42.984375 58.835938 L 40.824219 58.183594 Z M 45.972656 59.289062 C 45.125 59.179688 44.675781 59.6875 44.605469 60.339844 L 44.316406 62.765625 C 44.242188 63.4375 44.566406 64.015625 45.394531 64.105469 C 46.242188 64.195312 46.691406 63.707031 46.765625 63.054688 L 47.050781 60.628906 C 47.140625 59.957031 46.816406 59.378906 45.972656 59.289062 Z M 46.261719 60.554688 L 45.972656 62.945312 C 45.9375 63.289062 45.808594 63.453125 45.484375 63.417969 C 45.160156 63.382812 45.070312 63.199219 45.125 62.839844 L 45.414062 60.464844 C 45.449219 60.121094 45.574219 59.957031 45.898438 59.992188 C 46.207031 60.011719 46.296875 60.210938 46.261719 60.554688 Z M 50.5625 59.394531 C 49.714844 59.449219 49.375 60.03125 49.410156 60.699219 L 49.570312 63.128906 C 49.625 63.796875 50.039062 64.304688 50.886719 64.25 C 51.730469 64.195312 52.074219 63.617188 52.039062 62.945312 L 51.875 60.519531 C 51.820312 59.847656 51.40625 59.324219 50.5625 59.394531 Z M 50.851562 63.542969 C 50.527344 63.5625 50.417969 63.398438 50.382812 63.054688 L 50.21875 60.664062 C 50.203125 60.320312 50.292969 60.140625 50.617188 60.101562 C 50.941406 60.085938 51.046875 60.246094 51.085938 60.59375 L 51.246094 62.984375 C 51.265625 63.34375 51.175781 63.507812 50.851562 63.542969 Z M 55.871094 59.25 L 55.710938 58.5625 L 53.40625 59.125 L 53.566406 59.8125 L 54.324219 59.632812 L 55.242188 63.542969 L 56.035156 63.363281 L 55.117188 59.433594 Z M 59.867188 59.394531 C 60.175781 59.105469 60.15625 58.636719 60.011719 58.273438 C 59.707031 57.53125 59.183594 57.257812 58.375 57.601562 L 57.277344 58.074219 L 59.09375 62.441406 L 60.265625 61.949219 C 61.109375 61.589844 61.199219 60.917969 60.910156 60.191406 C 60.660156 59.613281 60.316406 59.414062 59.867188 59.394531 Z M 58.265625 58.363281 L 58.554688 58.238281 C 58.878906 58.09375 59.128906 58.238281 59.292969 58.652344 C 59.4375 59.015625 59.308594 59.304688 59.023438 59.414062 L 58.753906 59.523438 Z M 59.886719 61.371094 L 59.578125 61.496094 L 59.023438 60.15625 L 59.257812 60.046875 C 59.707031 59.867188 59.957031 60.011719 60.136719 60.464844 C 60.335938 60.917969 60.28125 61.207031 59.886719 61.371094 Z M 61.722656 55.898438 L 63.503906 60.355469 L 64.171875 59.941406 L 63.738281 58.980469 L 64.492188 58.507812 L 65.179688 59.324219 L 65.84375 58.90625 L 62.585938 55.375 Z M 62.65625 56.40625 L 64.007812 57.945312 L 63.449219 58.292969 Z M 67.914062 56.28125 L 65.25 53.273438 L 64.65625 53.816406 L 67.769531 57.347656 L 69.316406 55.972656 L 68.851562 55.429688 Z M 70.738281 53.402344 L 67.679688 50.792969 L 67.15625 51.40625 L 70.738281 54.46875 L 72.089844 52.875 L 71.550781 52.421875 Z M 34.902344 17.480469 C 36.253906 16.320312 36.738281 14.945312 36.738281 14.945312 L 34.199219 11.9375 L 31.894531 13.910156 L 32.976562 15.199219 L 33.964844 14.347656 L 34.613281 15.105469 C 34.613281 15.105469 34.398438 15.722656 33.769531 16.265625 C 33.03125 16.902344 31.714844 17.152344 30.726562 15.996094 C 30.113281 15.269531 29.664062 13.929688 30.871094 12.878906 C 31.804688 12.0625 32.6875 12.28125 32.6875 12.28125 L 32.761719 10.398438 C 32.761719 10.398438 31.390625 10.214844 29.878906 11.519531 C 27.9375 13.1875 27.773438 15.378906 29.375 17.261719 C 30.691406 18.875 32.992188 19.109375 34.902344 17.480469 Z M 23.074219 23.65625 L 28.351562 26.085938 L 29.089844 24.4375 L 23.8125 22.007812 L 24.679688 20.144531 L 23.203125 19.453125 L 20.753906 24.871094 L 22.210938 25.539062 Z M 31.355469 20.847656 L 25.324219 16.519531 L 24.28125 17.988281 L 30.3125 22.316406 Z M 42.929688 12.898438 L 42.28125 11.339844 L 39.058594 12.699219 L 38.574219 11.519531 L 41.472656 10.308594 L 40.824219 8.765625 L 37.945312 9.960938 L 37.511719 8.914062 L 40.554688 7.625 L 39.925781 6.085938 L 35.207031 8.042969 L 38.050781 14.945312 Z M 52.867188 8.351562 L 50.164062 8.078125 L 50.023438 9.492188 L 52.703125 9.78125 Z M 60.40625 15.433594 L 61.792969 14.546875 L 63.9375 16.140625 L 63.539062 17.75 L 65.160156 18.949219 L 66.960938 11.011719 L 65.789062 10.144531 L 58.824219 14.238281 Z M 64.871094 12.570312 L 64.367188 14.527344 L 63.179688 13.65625 Z M 65.375 19.671875 L 66.511719 21.046875 L 70.992188 17.335938 L 72.289062 18.929688 L 73.53125 17.914062 L 69.785156 13.332031 L 68.542969 14.347656 L 69.839844 15.957031 Z M 72.214844 20.089844 C 70.921875 20.742188 71.101562 21.972656 71.242188 22.96875 C 71.371094 23.785156 71.425781 24.273438 70.992188 24.492188 C 70.558594 24.707031 70.144531 24.238281 69.964844 23.875 C 69.75 23.421875 69.75 22.789062 70.019531 22.296875 L 68.203125 21.773438 C 67.894531 22.695312 68.003906 23.640625 68.4375 24.527344 C 69.210938 26.101562 70.578125 26.699219 71.929688 26.03125 C 73.3125 25.339844 73.097656 24.128906 72.9375 23.148438 C 72.808594 22.390625 72.738281 21.917969 73.152344 21.71875 C 73.585938 21.5 73.980469 21.953125 74.160156 22.296875 C 74.320312 22.605469 74.410156 23.203125 74.179688 23.566406 L 75.941406 24.074219 C 76.175781 23.292969 76.066406 22.40625 75.671875 21.574219 C 75.058594 20.34375 73.710938 19.347656 72.214844 20.089844 Z M 45.628906 12.480469 L 45.324219 9.601562 L 45.9375 9.527344 L 47.734375 12.246094 L 49.859375 12.007812 L 47.683594 9.113281 C 47.683594 9.113281 49.15625 8.660156 48.960938 6.917969 C 48.796875 5.417969 47.753906 4.726562 45.917969 4.925781 L 43.039062 5.234375 L 43.828125 12.644531 Z M 45.9375 6.519531 C 46.367188 6.464844 47.070312 6.449219 47.140625 7.136719 C 47.214844 7.734375 46.726562 7.898438 45.988281 7.96875 L 45.160156 8.0625 L 45 6.628906 Z M 56.519531 13.820312 C 58.464844 14.507812 59.671875 13.421875 59.671875 13.421875 L 58.609375 11.882812 C 58.609375 11.882812 57.886719 12.515625 56.988281 12.207031 C 55.945312 11.847656 55.421875 10.667969 55.835938 9.492188 C 56.25 8.3125 57.277344 7.589844 58.429688 7.988281 C 59.363281 8.3125 59.507812 9.019531 59.507812 9.019531 L 61.164062 8.386719 C 61.164062 8.386719 60.785156 7.027344 59.148438 6.449219 C 56.789062 5.617188 54.828125 6.71875 54.070312 8.894531 C 53.316406 11.085938 54.523438 13.113281 56.519531 13.820312 Z M 56.519531 13.820312 "/>
</g>
</svg>
