<?xml version="1.0" encoding="UTF-8"?>
<svg xmlns="http://www.w3.org/2000/svg" xmlns:xlink="http://www.w3.org/1999/xlink" width="90px" height="90px" viewBox="0 0 90 90" version="1.1">
<g id="surface1">
<path style=" stroke:none;fill-rule:nonzero;fill:rgb(100%,100%,100%);fill-opacity:1;" d="M 86.4375 49.066406 C 87.480469 49.5 88.523438 49.96875 89.53125 50.472656 C 88.777344 47.449219 87.769531 44.566406 86.507812 41.832031 C 87.625 42.085938 88.703125 42.335938 89.785156 42.660156 C 88.523438 39.816406 87.011719 37.117188 85.320312 34.667969 C 86.4375 34.703125 87.550781 34.777344 88.703125 34.921875 C 86.976562 32.328125 85.03125 29.953125 82.90625 27.828125 C 84.023438 27.683594 85.140625 27.574219 86.292969 27.46875 C 84.132812 25.199219 81.792969 23.21875 79.34375 21.492188 C 80.425781 21.132812 81.503906 20.84375 82.621094 20.554688 C 80.101562 18.71875 77.472656 17.136719 74.734375 15.875 C 75.742188 15.335938 76.753906 14.867188 77.796875 14.398438 C 74.988281 13.03125 72.144531 11.953125 69.226562 11.160156 C 70.128906 10.476562 71.027344 9.792969 71.964844 9.179688 C 68.976562 8.316406 65.953125 7.738281 62.964844 7.488281 C 63.71875 6.660156 64.511719 5.832031 65.339844 5.039062 C 62.242188 4.679688 59.183594 4.679688 56.195312 4.933594 C 56.808594 3.996094 57.421875 3.058594 58.105469 2.125 C 54.972656 2.339844 51.984375 2.84375 49.066406 3.601562 C 49.5 2.554688 49.96875 1.511719 50.472656 0.503906 C 47.449219 1.222656 44.566406 2.269531 41.832031 3.527344 C 42.085938 2.410156 42.335938 1.332031 42.660156 0.253906 C 39.816406 1.511719 37.117188 3.023438 34.667969 4.714844 C 34.703125 3.601562 34.777344 2.449219 34.921875 1.332031 C 32.328125 3.058594 29.953125 5.003906 27.828125 7.128906 C 27.683594 6.011719 27.539062 4.894531 27.46875 3.742188 C 25.199219 5.902344 23.21875 8.242188 21.492188 10.691406 C 21.132812 9.613281 20.84375 8.53125 20.554688 7.414062 C 18.71875 9.9375 17.136719 12.5625 15.875 15.300781 C 15.335938 14.292969 14.867188 13.285156 14.398438 12.238281 C 13.03125 15.046875 11.953125 17.890625 11.160156 20.808594 C 10.476562 19.90625 9.792969 19.007812 9.179688 18.070312 C 8.316406 21.058594 7.738281 24.085938 7.488281 27.070312 C 6.660156 26.316406 5.832031 25.523438 5.039062 24.695312 C 4.679688 27.792969 4.679688 30.851562 4.933594 33.839844 C 3.996094 33.226562 3.058594 32.617188 2.125 31.933594 C 2.339844 35.0625 2.84375 38.089844 3.601562 40.96875 C 2.554688 40.535156 1.511719 40.066406 0.503906 39.5625 C 1.261719 42.589844 2.269531 45.46875 3.527344 48.203125 C 2.449219 47.953125 1.332031 47.699219 0.253906 47.375 C 1.511719 50.21875 3.023438 52.921875 4.714844 55.367188 C 3.601562 55.332031 2.449219 55.261719 1.332031 55.117188 C 3.058594 57.707031 5.003906 60.085938 7.128906 62.207031 C 6.011719 62.351562 4.894531 62.496094 3.742188 62.566406 C 5.902344 64.835938 8.242188 66.816406 10.691406 68.542969 C 9.613281 68.867188 8.53125 69.191406 7.414062 69.480469 C 9.9375 71.316406 12.5625 72.898438 15.300781 74.160156 C 14.292969 74.699219 13.285156 75.167969 12.238281 75.636719 C 15.046875 77.003906 17.890625 78.085938 20.808594 78.875 C 19.90625 79.558594 19.007812 80.242188 18.035156 80.855469 C 21.023438 81.71875 24.046875 82.296875 27.035156 82.546875 C 26.28125 83.375 25.488281 84.203125 24.660156 84.996094 C 27.757812 85.320312 30.816406 85.355469 33.804688 85.105469 C 33.191406 86.039062 32.578125 86.976562 31.894531 87.910156 C 35.027344 87.695312 38.050781 87.226562 40.933594 86.4375 C 40.5 87.480469 40.03125 88.523438 39.527344 89.53125 C 42.550781 88.8125 45.433594 87.769531 48.167969 86.507812 C 47.914062 87.625 47.664062 88.703125 47.339844 89.785156 C 50.183594 88.523438 52.882812 87.011719 55.332031 85.320312 C 55.296875 86.4375 55.222656 87.589844 55.078125 88.703125 C 57.671875 86.976562 60.046875 85.03125 62.171875 82.90625 C 62.316406 84.023438 62.425781 85.140625 62.53125 86.292969 C 64.800781 84.132812 66.78125 81.792969 68.507812 79.34375 C 68.832031 80.425781 69.15625 81.503906 69.445312 82.621094 C 71.28125 80.101562 72.863281 77.472656 74.125 74.734375 C 74.664062 75.742188 75.132812 76.753906 75.601562 77.796875 C 76.96875 74.988281 78.046875 72.144531 78.839844 69.226562 C 79.523438 70.128906 80.207031 71.027344 80.820312 71.964844 C 81.683594 68.976562 82.261719 65.953125 82.511719 62.964844 C 83.339844 63.71875 84.167969 64.511719 84.960938 65.339844 C 85.285156 62.242188 85.320312 59.183594 85.066406 56.160156 C 86.003906 56.773438 86.941406 57.382812 87.875 58.066406 C 87.730469 54.972656 87.226562 51.949219 86.4375 49.066406 "/>
<path style=" stroke:none;fill-rule:nonzero;fill:rgb(0%,0%,0%);fill-opacity:1;" d="M 84.277344 46.691406 C 85.285156 47.050781 86.292969 47.410156 87.265625 47.84375 C 86.398438 45.035156 85.320312 42.335938 83.988281 39.851562 C 85.03125 40.03125 86.074219 40.210938 87.121094 40.464844 C 85.789062 37.835938 84.238281 35.386719 82.476562 33.15625 C 83.519531 33.15625 84.601562 33.15625 85.679688 33.226562 C 83.914062 30.851562 81.972656 28.726562 79.847656 26.820312 C 80.890625 26.605469 81.9375 26.460938 83.015625 26.316406 C 80.855469 24.300781 78.550781 22.535156 76.175781 21.023438 C 77.183594 20.628906 78.191406 20.304688 79.199219 19.980469 C 76.753906 18.359375 74.160156 17.027344 71.53125 15.949219 C 72.433594 15.40625 73.367188 14.867188 74.339844 14.398438 C 71.640625 13.246094 68.867188 12.382812 66.097656 11.773438 C 66.886719 11.089844 67.714844 10.402344 68.578125 9.757812 C 65.699219 9.070312 62.855469 8.710938 60.011719 8.605469 C 60.695312 7.777344 61.378906 6.984375 62.101562 6.191406 C 59.148438 6.011719 56.269531 6.15625 53.460938 6.550781 C 53.964844 5.617188 54.539062 4.714844 55.117188 3.816406 C 52.199219 4.175781 49.355469 4.789062 46.65625 5.652344 C 47.015625 4.644531 47.375 3.636719 47.808594 2.664062 C 45 3.527344 42.300781 4.609375 39.816406 5.941406 C 39.996094 4.894531 40.175781 3.851562 40.429688 2.808594 C 37.800781 4.140625 35.351562 5.6875 33.121094 7.453125 C 33.121094 6.40625 33.121094 5.328125 33.191406 4.246094 C 30.816406 6.011719 28.691406 7.957031 26.785156 10.078125 C 26.566406 9.035156 26.425781 7.992188 26.28125 6.910156 C 24.265625 9.070312 22.5 11.339844 20.988281 13.753906 C 20.59375 12.742188 20.269531 11.734375 19.945312 10.726562 C 18.324219 13.175781 16.992188 15.769531 15.910156 18.394531 C 15.371094 17.496094 14.832031 16.558594 14.363281 15.589844 C 13.210938 18.289062 12.347656 21.058594 11.734375 23.832031 C 11.050781 23.039062 10.367188 22.210938 9.71875 21.347656 C 9.035156 24.226562 8.675781 27.070312 8.566406 29.914062 C 7.738281 29.230469 6.949219 28.546875 6.15625 27.792969 C 5.976562 30.742188 6.121094 33.625 6.515625 36.433594 C 5.578125 35.929688 4.679688 35.351562 3.78125 34.777344 C 4.140625 37.691406 4.753906 40.535156 5.617188 43.234375 C 4.609375 42.875 3.601562 42.515625 2.628906 42.085938 C 3.492188 44.890625 4.570312 47.59375 5.902344 50.074219 C 4.859375 49.894531 3.816406 49.714844 2.773438 49.464844 C 4.105469 52.09375 5.652344 54.539062 7.414062 56.773438 C 6.335938 56.773438 5.292969 56.773438 4.210938 56.699219 C 5.976562 59.074219 7.921875 61.199219 10.042969 63.109375 C 9 63.324219 7.957031 63.46875 6.875 63.613281 C 9.035156 65.628906 11.304688 67.390625 13.714844 68.902344 C 12.707031 69.265625 11.699219 69.625 10.691406 69.949219 C 13.140625 71.566406 15.730469 72.898438 18.359375 73.980469 C 17.460938 74.519531 16.523438 75.058594 15.550781 75.527344 C 18.253906 76.679688 21.023438 77.542969 23.796875 78.15625 C 23.003906 78.839844 22.175781 79.523438 21.3125 80.171875 C 24.191406 80.855469 27.035156 81.214844 29.878906 81.324219 C 29.195312 82.152344 28.511719 82.945312 27.792969 83.734375 C 30.742188 83.914062 33.625 83.773438 36.433594 83.375 C 35.929688 84.3125 35.351562 85.210938 34.777344 86.113281 C 37.691406 85.753906 40.535156 85.140625 43.234375 84.277344 C 42.875 85.285156 42.515625 86.292969 42.085938 87.265625 C 44.890625 86.398438 47.59375 85.320312 50.074219 83.988281 C 49.894531 85.03125 49.714844 86.074219 49.464844 87.121094 C 52.09375 85.789062 54.539062 84.238281 56.773438 82.476562 C 56.773438 83.519531 56.773438 84.601562 56.699219 85.679688 C 59.039062 83.914062 61.199219 81.972656 63.109375 79.847656 C 63.324219 80.890625 63.46875 81.9375 63.613281 83.015625 C 65.628906 80.855469 67.390625 78.589844 68.902344 76.175781 C 69.265625 77.183594 69.625 78.191406 69.949219 79.199219 C 71.566406 76.753906 72.898438 74.160156 73.980469 71.53125 C 74.519531 72.433594 75.058594 73.367188 75.527344 74.339844 C 76.679688 71.640625 77.542969 68.867188 78.15625 66.097656 C 78.839844 66.886719 79.523438 67.714844 80.171875 68.578125 C 80.855469 65.699219 81.214844 62.855469 81.324219 60.011719 C 82.152344 60.695312 82.945312 61.378906 83.734375 62.101562 C 83.914062 59.148438 83.773438 56.269531 83.375 53.460938 C 84.3125 53.964844 85.210938 54.539062 86.113281 55.117188 C 85.789062 52.234375 85.175781 49.390625 84.277344 46.691406 "/>
<path style=" stroke:none;fill-rule:nonzero;fill:rgb(67.450982%,12.156863%,17.647059%);fill-opacity:1;" d="M 45 76.5 C 38.773438 76.5 32.976562 74.664062 28.078125 71.566406 L 25.09375 71.566406 C 30.636719 75.742188 37.546875 78.226562 45 78.226562 C 52.453125 78.226562 59.363281 75.742188 64.90625 71.566406 L 61.921875 71.566406 C 57.023438 74.664062 51.226562 76.5 45 76.5 Z M 45 13.5 C 49.609375 13.5 53.964844 14.507812 57.886719 16.273438 C 59.363281 16.308594 60.839844 16.414062 62.207031 16.632812 C 57.167969 13.570312 51.300781 11.808594 44.964844 11.808594 C 38.953125 11.808594 33.335938 13.429688 28.476562 16.234375 L 32.21875 16.234375 C 36.144531 14.472656 40.464844 13.5 45 13.5 Z M 74.628906 30.058594 C 74.664062 31.246094 74.59375 32.507812 74.449219 33.875 C 75.78125 37.332031 76.5 41.113281 76.5 45.035156 C 76.5 50.183594 75.238281 55.078125 73.042969 59.363281 L 72.214844 64.007812 C 75.960938 58.644531 78.191406 52.09375 78.191406 45.035156 C 78.191406 39.636719 76.894531 34.558594 74.628906 30.058594 Z M 11.808594 45 C 11.808594 50.617188 13.210938 55.871094 15.660156 60.515625 L 16.164062 57.671875 C 14.472656 53.785156 13.5 49.5 13.5 45 C 13.5 36.574219 16.8125 28.90625 22.246094 23.257812 L 22.753906 20.410156 C 16.019531 26.460938 11.808594 35.242188 11.808594 45 Z M 11.808594 45 "/>
<path style=" stroke:none;fill-rule:nonzero;fill:rgb(100%,100%,100%);fill-opacity:1;" d="M 69.480469 35.640625 C 71.929688 21.851562 64.90625 20.914062 54.539062 20.914062 L 27.394531 20.914062 L 25.667969 30.78125 L 64.691406 30.78125 L 56.554688 33.300781 C 56.699219 34.054688 56.664062 35.0625 56.449219 36.324219 C 55.621094 40.933594 53.605469 42.15625 50.796875 42.15625 L 41.292969 42.15625 L 49.570312 57.277344 L 47.878906 66.886719 L 66.960938 66.886719 L 68.652344 57.277344 L 64.476562 57.277344 L 59.578125 48.457031 C 65.304688 46.585938 68.183594 42.875 69.480469 35.640625 Z M 69.480469 35.640625 "/>
<path style=" stroke:none;fill-rule:nonzero;fill:rgb(100%,100%,100%);fill-opacity:1;" d="M 41.941406 34.414062 L 28.800781 36.683594 L 25.164062 57.238281 L 20.988281 57.238281 L 19.296875 66.851562 L 40.429688 66.851562 L 42.121094 57.238281 L 37.90625 57.238281 Z M 73.765625 80.890625 L 74.410156 80.890625 L 74.410156 82.800781 L 74.628906 82.800781 L 74.628906 80.890625 L 75.277344 80.890625 L 75.277344 80.675781 L 73.765625 80.675781 Z M 77.039062 80.675781 L 76.5 82.402344 L 75.960938 80.675781 L 75.5625 80.675781 L 75.5625 82.800781 L 75.816406 82.800781 L 75.816406 81 L 76.390625 82.800781 L 76.609375 82.800781 L 77.183594 81 L 77.183594 82.800781 L 77.398438 82.800781 L 77.398438 80.675781 Z M 77.039062 80.675781 "/>
</g>
</svg>
