<?xml version="1.0" encoding="UTF-8"?>
<svg xmlns="http://www.w3.org/2000/svg" xmlns:xlink="http://www.w3.org/1999/xlink" width="90px" height="58px" viewBox="0 0 90 58" version="1.1">
<g id="surface1">
<path style=" stroke:none;fill-rule:nonzero;fill:rgb(13.725491%,12.156863%,12.54902%);fill-opacity:1;" d="M 88.109375 19.824219 C 87.535156 19.285156 86.960938 18.671875 86.492188 18.0625 C 86.023438 17.449219 85.558594 16.765625 85.164062 16.046875 C 84.765625 15.328125 84.40625 14.535156 84.046875 13.671875 C 83.722656 12.84375 83.4375 11.910156 83.183594 10.972656 C 83.148438 10.867188 83.078125 10.722656 82.96875 10.648438 L 78.546875 7.484375 C 78.4375 7.410156 78.332031 7.304688 78.1875 7.195312 C 78.078125 7.089844 77.972656 6.945312 77.863281 6.835938 C 77.753906 6.691406 77.648438 6.546875 77.574219 6.441406 C 77.46875 6.296875 77.359375 6.117188 77.289062 6.007812 C 77.144531 5.792969 77 5.578125 76.890625 5.398438 C 76.75 5.179688 76.570312 5 76.425781 4.820312 C 76.210938 4.605469 76.03125 4.425781 75.8125 4.355469 C 75.5625 4.210938 75.308594 4.101562 75.023438 4.066406 L 74.914062 4.066406 C 74.878906 4.066406 74.84375 4.066406 74.808594 4.101562 L 74.734375 4.101562 L 71.644531 5.398438 C 71.5 5.46875 71.355469 5.613281 71.320312 5.757812 C 71.320312 5.792969 71.285156 5.863281 71.285156 5.863281 C 71.285156 5.902344 71.285156 5.9375 71.246094 5.972656 C 71.246094 6.007812 71.246094 6.082031 71.210938 6.117188 L 71.210938 6.261719 C 71.210938 6.367188 71.210938 6.511719 71.246094 6.621094 C 71.246094 6.726562 71.285156 6.835938 71.320312 6.945312 C 71.355469 7.050781 71.355469 7.160156 71.390625 7.230469 C 71.390625 7.269531 71.425781 7.304688 71.425781 7.339844 L 71.355469 7.339844 C 70.921875 7.269531 70.492188 7.195312 70.097656 7.125 C 69.703125 7.050781 69.269531 6.945312 68.875 6.835938 C 68.480469 6.726562 68.082031 6.621094 67.722656 6.511719 C 67.652344 6.511719 67.578125 6.476562 67.542969 6.511719 C 67.4375 6.511719 67.328125 6.546875 67.257812 6.546875 L 66.933594 6.65625 C 66.933594 6.65625 66.898438 6.65625 66.898438 6.691406 L 64.019531 7.914062 C 63.984375 7.914062 63.984375 7.953125 63.949219 7.953125 L 63.660156 7.914062 C 63.554688 7.914062 63.410156 7.878906 63.265625 7.878906 L 62.871094 7.878906 C 62.832031 7.878906 62.652344 7.84375 62.617188 7.84375 L 62.511719 7.84375 C 62.472656 7.84375 62.367188 7.878906 62.332031 7.878906 C 62.332031 7.878906 62.1875 7.953125 62.152344 7.953125 C 62.152344 7.953125 62.113281 7.988281 62.078125 7.988281 L 61.71875 8.132812 L 59.992188 8.851562 C 59.707031 8.816406 59.453125 8.742188 59.167969 8.707031 C 58.84375 8.671875 58.519531 8.636719 58.050781 8.636719 L 57.65625 8.636719 C 57.476562 8.636719 57.296875 8.671875 57.152344 8.671875 C 56.972656 8.707031 56.792969 8.707031 56.683594 8.742188 C 56.503906 8.777344 56.324219 8.816406 56.183594 8.886719 C 56.039062 8.921875 55.894531 8.996094 55.785156 9.066406 L 54.5625 9.605469 L 53.160156 10.21875 C 52.945312 10.328125 52.765625 10.433594 52.550781 10.542969 C 52.335938 10.6875 52.15625 10.828125 52.011719 10.9375 C 51.832031 11.117188 51.6875 11.261719 51.617188 11.40625 C 51.472656 11.621094 51.398438 11.800781 51.363281 12.015625 C 51.328125 12.199219 51.398438 12.378906 51.542969 12.449219 L 51.757812 12.558594 L 50.320312 13.167969 C 50.285156 13.167969 50.25 13.203125 50.25 13.203125 C 50.285156 13.203125 50.285156 13.167969 50.320312 13.167969 C 50.285156 13.167969 50.285156 13.203125 50.25 13.203125 C 50.175781 13.242188 50.105469 13.3125 50.070312 13.347656 C 50.035156 13.382812 49.996094 13.421875 49.996094 13.492188 L 48.414062 13.492188 L 44.171875 13.382812 L 43.957031 13.382812 L 42.808594 13.347656 L 41.765625 13.3125 L 39.460938 13.242188 L 37.054688 13.242188 C 37.054688 13.242188 36.261719 13.242188 35.867188 13.277344 C 35.507812 13.277344 35.183594 13.3125 34.789062 13.347656 L 34.574219 13.347656 C 33.816406 13.527344 33.0625 13.78125 32.308594 14.175781 L 32.273438 14.175781 L 30.042969 15.21875 C 29.539062 15.472656 29 15.757812 28.460938 16.15625 C 27.957031 16.480469 27.417969 16.839844 26.878906 17.304688 C 26.554688 17.558594 26.195312 17.847656 25.835938 18.171875 C 25.726562 18.0625 25.65625 17.917969 25.546875 17.808594 C 25.441406 17.628906 25.332031 17.449219 25.222656 17.304688 C 25.082031 17.089844 24.972656 16.910156 24.828125 16.695312 C 24.648438 16.441406 24.503906 16.300781 24.363281 16.15625 C 24.144531 15.9375 23.964844 15.796875 23.714844 15.722656 C 23.460938 15.617188 23.246094 15.578125 22.851562 15.542969 L 22.347656 15.542969 C 22.277344 15.542969 22.242188 15.578125 22.167969 15.617188 L 21.953125 15.722656 L 19.832031 16.765625 C 19.796875 16.765625 19.183594 17.125 19.183594 17.125 L 18.789062 17.34375 C 18.394531 17.523438 18.035156 17.703125 17.636719 17.847656 C 16.128906 18.53125 14.546875 19.140625 13 19.71875 C 11.453125 20.292969 9.871094 20.796875 8.324219 21.226562 C 6.78125 21.660156 5.234375 22.054688 3.757812 22.34375 C 3.6875 22.34375 3.617188 22.378906 3.578125 22.414062 L 1.492188 23.460938 C 1.421875 23.386719 1.3125 23.566406 1.3125 23.746094 C 1.3125 23.925781 1.386719 24.105469 1.53125 24.179688 C 1.746094 24.359375 1.960938 24.503906 2.214844 24.609375 C 2.429688 24.753906 2.644531 24.863281 2.933594 24.96875 C 3.148438 25.078125 3.363281 25.1875 3.652344 25.292969 C 3.902344 25.402344 4.15625 25.472656 4.371094 25.582031 L 4.40625 25.582031 C 4.441406 25.582031 4.515625 25.617188 4.515625 25.617188 L 4.730469 25.691406 L 5.089844 25.832031 C 5.234375 25.871094 5.339844 25.941406 5.449219 25.976562 C 5.59375 26.050781 5.699219 26.085938 5.808594 26.121094 C 5.84375 26.121094 5.878906 26.15625 5.953125 26.15625 C 6.132812 26.195312 6.3125 26.230469 6.457031 26.230469 C 6.636719 26.265625 6.816406 26.265625 6.960938 26.300781 C 7.101562 26.300781 7.28125 26.335938 7.460938 26.335938 L 8.324219 26.335938 C 8.722656 26.335938 9.082031 26.300781 9.476562 26.265625 C 9.945312 26.230469 10.445312 26.15625 10.878906 26.050781 C 11.347656 25.941406 11.8125 25.796875 12.28125 25.652344 C 12.710938 25.511719 13.214844 25.328125 13.609375 25.148438 L 13.96875 24.96875 L 15.914062 24.105469 C 15.914062 24.105469 15.949219 24.105469 15.949219 24.070312 L 16.738281 23.675781 C 16.773438 23.675781 16.8125 23.640625 16.847656 23.601562 C 17.097656 23.460938 17.277344 23.351562 17.53125 23.207031 C 17.601562 23.136719 17.710938 23.097656 17.78125 23.027344 C 17.960938 22.917969 18.140625 22.8125 18.285156 22.667969 C 18.429688 22.558594 18.609375 22.453125 18.714844 22.34375 C 18.824219 22.378906 18.894531 22.414062 19.039062 22.453125 C 19.148438 22.488281 19.292969 22.558594 19.4375 22.632812 C 19.578125 22.703125 19.722656 22.777344 19.832031 22.847656 C 19.976562 22.917969 20.117188 22.992188 20.261719 23.097656 C 20.441406 23.207031 20.621094 23.242188 20.730469 23.316406 C 20.910156 23.386719 21.089844 23.460938 21.234375 23.496094 C 21.378906 23.53125 21.519531 23.53125 21.628906 23.566406 C 21.878906 23.746094 22.058594 23.925781 22.242188 24.144531 C 22.421875 24.394531 22.5625 24.644531 22.636719 24.96875 C 22.742188 25.257812 22.816406 25.582031 22.886719 25.976562 C 22.960938 26.335938 22.996094 26.699219 23.03125 27.058594 C 23.03125 27.09375 23.066406 27.238281 23.066406 27.238281 L 23.101562 27.667969 C 23.140625 27.847656 23.140625 28.066406 23.175781 28.246094 C 23.210938 28.460938 23.246094 28.640625 23.28125 28.785156 C 23.320312 29 23.390625 29.179688 23.460938 29.324219 C 23.824219 30.367188 24.253906 31.265625 24.863281 32.058594 C 25.40625 32.777344 26.050781 33.390625 26.84375 34 C 27.488281 34.46875 28.246094 34.902344 29.214844 35.332031 C 29.503906 35.476562 30.078125 35.726562 30.078125 35.726562 C 30.078125 35.726562 30.1875 35.765625 30.257812 35.800781 C 30.332031 35.835938 30.367188 35.835938 30.367188 35.835938 C 30.761719 36.015625 31.371094 36.230469 31.734375 36.410156 C 32.523438 36.734375 33.351562 37.058594 34.140625 37.417969 C 35.003906 37.816406 35.722656 38.210938 36.335938 38.644531 C 37.054688 39.144531 37.664062 39.722656 38.203125 40.332031 C 38.78125 41.015625 39.246094 41.808594 39.570312 42.707031 C 39.605469 42.851562 39.714844 42.960938 39.859375 42.996094 C 40.542969 43.320312 41.296875 43.570312 42.085938 43.859375 C 42.769531 44.113281 43.527344 44.328125 44.351562 44.542969 C 45.035156 44.722656 45.792969 44.9375 46.652344 45.117188 L 48.847656 45.585938 L 48.917969 45.585938 L 49.421875 45.765625 L 49.53125 46.917969 C 49.53125 46.953125 49.53125 47.027344 49.566406 47.0625 C 49.601562 47.132812 49.636719 47.207031 49.636719 47.277344 C 49.636719 47.351562 49.675781 47.386719 49.675781 47.457031 L 49.675781 47.566406 C 49.675781 47.601562 49.675781 47.601562 49.636719 47.636719 C 49.636719 47.671875 49.601562 47.710938 49.566406 47.710938 L 49.53125 47.746094 C 49.496094 47.78125 49.457031 47.78125 49.457031 47.816406 C 49.457031 47.816406 49.421875 47.816406 49.386719 47.855469 C 49.351562 47.890625 49.316406 47.890625 49.277344 47.925781 L 48.09375 48.25 L 48.234375 48.25 C 48.199219 48.25 48.128906 48.25 48.09375 48.285156 L 47.984375 48.285156 L 47.914062 48.320312 L 47.839844 48.320312 C 47.804688 48.320312 47.804688 48.320312 47.769531 48.355469 L 47.589844 48.355469 L 47.554688 48.394531 C 47.554688 48.394531 47.515625 48.394531 47.515625 48.429688 C 47.515625 48.429688 47.480469 48.464844 47.445312 48.464844 C 47.410156 48.464844 47.375 48.5 47.335938 48.539062 C 47.121094 48.644531 47.050781 48.898438 47.085938 49.113281 C 47.191406 49.507812 47.300781 49.832031 47.480469 50.191406 C 47.625 50.550781 47.804688 50.839844 47.984375 51.164062 C 48.199219 51.488281 48.378906 51.738281 48.59375 51.992188 C 48.847656 52.242188 49.0625 52.460938 49.351562 52.675781 C 49.421875 52.710938 49.457031 52.746094 49.53125 52.746094 L 49.816406 52.746094 L 52.550781 52.097656 L 52.585938 52.097656 L 52.660156 52.0625 C 52.660156 52.0625 52.695312 52.0625 52.695312 52.027344 C 52.800781 51.957031 52.875 51.882812 52.910156 51.8125 C 52.980469 51.632812 53.089844 51.453125 53.234375 51.308594 C 53.339844 51.164062 53.484375 51.019531 53.628906 50.910156 C 53.773438 50.769531 53.953125 50.660156 54.0625 50.550781 C 54.167969 50.445312 54.347656 50.371094 54.457031 50.300781 C 54.457031 50.335938 54.492188 50.371094 54.492188 50.371094 C 54.492188 50.40625 54.527344 50.445312 54.527344 50.445312 C 54.601562 50.695312 54.671875 50.910156 54.742188 51.128906 C 54.851562 51.414062 54.996094 51.632812 55.140625 51.847656 C 55.320312 52.097656 55.535156 52.277344 55.824219 52.421875 C 56.039062 52.53125 56.21875 52.601562 56.46875 52.640625 C 56.542969 52.78125 56.578125 52.925781 56.648438 53.035156 C 56.792969 53.25 56.9375 53.429688 57.082031 53.539062 C 57.261719 53.683594 57.476562 53.753906 57.65625 53.828125 C 57.691406 53.828125 57.726562 53.828125 57.800781 53.863281 C 57.945312 53.898438 58.125 53.933594 58.265625 53.933594 L 58.664062 53.933594 C 58.664062 53.933594 58.878906 53.898438 59.023438 53.898438 C 59.128906 53.863281 59.273438 53.863281 59.382812 53.828125 L 59.707031 53.753906 C 59.742188 53.753906 60.101562 53.683594 60.101562 53.683594 C 60.210938 53.644531 60.316406 53.644531 60.425781 53.644531 C 60.53125 53.644531 60.640625 53.609375 60.75 53.609375 L 61.539062 53.609375 L 64.414062 52.960938 C 64.59375 52.960938 64.777344 52.820312 64.8125 52.640625 C 64.847656 52.566406 64.847656 52.53125 64.917969 52.351562 C 64.957031 52.277344 64.957031 52.207031 64.957031 52.171875 L 64.957031 51.992188 C 64.957031 51.882812 64.957031 51.738281 64.917969 51.632812 C 64.882812 51.523438 64.847656 51.414062 64.8125 51.273438 C 64.777344 51.199219 64.738281 51.09375 64.667969 50.984375 C 64.632812 50.875 64.558594 50.804688 64.523438 50.730469 L 64.414062 50.515625 L 64.308594 50.300781 C 64.273438 50.226562 64.273438 50.15625 64.273438 50.085938 L 64.273438 50.046875 C 64.308594 50.011719 64.34375 49.976562 64.34375 49.941406 L 64.558594 49.617188 C 64.632812 49.507812 64.667969 49.363281 64.703125 49.257812 C 64.738281 49.113281 64.738281 49.003906 64.703125 48.859375 C 64.703125 48.789062 64.667969 48.679688 64.632812 48.644531 C 64.488281 48.429688 64.34375 48.25 64.199219 48.035156 C 64.128906 47.960938 64.054688 47.890625 64.019531 47.816406 C 63.984375 47.746094 63.914062 47.710938 63.875 47.636719 L 63.660156 47.421875 C 63.480469 47.242188 63.265625 47.0625 63.050781 46.847656 L 62.511719 46.378906 C 62.113281 45.984375 61.648438 45.660156 61.289062 45.226562 C 60.890625 44.796875 60.570312 44.398438 60.351562 44.039062 C 60.101562 43.609375 59.957031 43.140625 59.957031 42.671875 L 59.957031 42.566406 C 59.957031 42.203125 59.992188 41.882812 60.101562 41.484375 L 61.683594 41.484375 C 61.71875 41.484375 61.792969 41.484375 61.828125 41.449219 L 61.933594 41.414062 C 62.042969 41.378906 62.113281 41.378906 62.1875 41.339844 C 62.257812 41.339844 62.367188 41.304688 62.472656 41.304688 C 62.546875 41.304688 62.652344 41.304688 62.761719 41.269531 L 63.410156 41.269531 C 63.515625 41.269531 63.660156 41.304688 63.769531 41.304688 C 63.875 41.304688 64.019531 41.339844 64.128906 41.339844 C 64.234375 41.339844 64.378906 41.378906 64.488281 41.378906 L 64.8125 41.414062 C 64.992188 41.449219 65.097656 41.449219 65.207031 41.449219 C 65.316406 41.449219 65.457031 41.484375 65.566406 41.484375 L 66.214844 41.484375 C 66.320312 41.484375 66.394531 41.484375 66.5 41.449219 C 66.574219 41.449219 66.679688 41.414062 66.789062 41.414062 C 66.898438 41.378906 66.96875 41.378906 67.078125 41.339844 L 68.40625 40.945312 L 69.917969 40.550781 L 69.988281 40.550781 L 70.0625 40.511719 C 70.167969 40.476562 70.3125 40.441406 70.421875 40.40625 C 70.5625 40.371094 70.671875 40.296875 70.816406 40.152344 C 70.816406 40.152344 70.851562 40.152344 70.851562 40.117188 C 70.886719 40.117188 70.886719 40.082031 70.921875 40.082031 L 70.960938 40.046875 L 71.210938 39.757812 C 71.390625 39.578125 71.535156 39.398438 71.679688 39.21875 C 71.824219 39.039062 72.003906 38.785156 72.109375 38.570312 C 72.253906 38.28125 72.324219 38.03125 72.363281 37.742188 C 72.398438 37.417969 72.324219 37.132812 72.183594 36.84375 C 72.144531 36.734375 72.074219 36.628906 72.039062 36.519531 L 71.714844 35.871094 C 71.679688 35.765625 71.644531 35.65625 71.570312 35.585938 C 71.5 35.441406 71.425781 35.296875 71.355469 35.1875 C 71.285156 35.082031 71.246094 34.972656 71.175781 34.828125 C 71.066406 34.648438 70.996094 34.503906 70.921875 34.359375 C 70.671875 33.964844 70.492188 33.570312 70.242188 33.210938 L 69.523438 32.058594 C 69.269531 31.664062 69.054688 31.300781 68.800781 30.90625 C 68.550781 30.511719 68.335938 30.152344 68.121094 29.753906 C 67.902344 29.359375 67.6875 28.964844 67.507812 28.605469 C 67.328125 28.207031 67.113281 27.847656 67.003906 27.453125 C 67.003906 27.273438 66.96875 27.058594 66.96875 26.914062 L 66.96875 26.265625 C 66.96875 26.050781 67.003906 25.832031 67.003906 25.617188 C 67.039062 25.402344 67.039062 25.1875 67.078125 24.96875 L 67.148438 24.285156 C 67.183594 24.035156 67.183594 23.820312 67.21875 23.566406 C 67.21875 23.316406 67.257812 23.0625 67.257812 22.8125 L 67.257812 22.308594 C 67.976562 21.804688 68.695312 21.265625 69.449219 20.796875 C 70.382812 20.183594 71.210938 19.679688 71.964844 19.320312 C 72.109375 19.25 72.21875 19.214844 72.324219 19.140625 C 72.363281 19.105469 72.398438 19.105469 72.433594 19.070312 C 72.503906 19.070312 72.542969 19.035156 72.613281 19.035156 C 72.9375 18.960938 73.1875 18.925781 73.511719 18.855469 C 73.691406 18.816406 73.90625 18.816406 74.050781 18.78125 C 74.160156 19.035156 74.304688 19.285156 74.449219 19.5 C 74.699219 19.789062 74.949219 20.039062 75.273438 20.257812 C 75.5625 20.4375 75.851562 20.617188 76.246094 20.722656 C 76.570312 20.867188 76.855469 20.976562 77.214844 21.085938 C 77.574219 21.191406 77.898438 21.335938 78.222656 21.480469 C 78.582031 21.625 78.832031 21.804688 79.050781 21.910156 C 79.300781 22.09375 79.480469 22.308594 79.625 22.523438 C 79.804688 22.8125 79.914062 23.136719 79.949219 23.53125 C 79.949219 23.601562 79.984375 23.675781 80.019531 23.746094 C 80.09375 23.890625 80.199219 24 80.308594 24.105469 C 80.414062 24.214844 80.523438 24.285156 80.667969 24.359375 C 80.8125 24.429688 80.917969 24.464844 81.0625 24.503906 C 81.171875 24.539062 81.316406 24.539062 81.457031 24.539062 L 81.746094 24.539062 C 81.746094 24.539062 81.925781 24.503906 82.035156 24.503906 C 82.140625 24.503906 82.25 24.464844 82.320312 24.464844 L 82.609375 24.394531 C 82.679688 24.394531 82.789062 24.359375 82.859375 24.359375 C 82.96875 24.359375 83.039062 24.324219 83.148438 24.324219 C 83.257812 24.324219 83.328125 24.285156 83.4375 24.285156 L 83.761719 24.285156 C 83.832031 24.285156 83.867188 24.285156 83.941406 24.25 L 87.140625 23.207031 L 87.175781 23.207031 C 87.210938 23.207031 87.285156 23.171875 87.320312 23.136719 C 87.535156 22.992188 87.75 22.8125 88.003906 22.632812 C 88.289062 22.378906 88.46875 22.164062 88.6875 21.875 C 88.9375 21.550781 89.082031 21.226562 89.1875 20.867188 C 89.332031 20.472656 89.367188 20.039062 89.332031 19.644531 C 88.21875 20.039062 88.144531 19.933594 88.109375 19.824219 Z M 49.027344 38.320312 C 48.773438 38.140625 48.59375 37.960938 48.34375 37.816406 C 47.410156 37.058594 46.617188 36.269531 45.933594 35.367188 C 45.574219 34.9375 45.289062 34.46875 45 34 C 44.929688 33.894531 44.890625 33.785156 44.820312 33.714844 C 44.75 33.605469 44.675781 33.496094 44.640625 33.355469 C 44.570312 33.171875 44.460938 33.03125 44.390625 32.886719 C 44.390625 32.851562 44.351562 32.8125 44.351562 32.777344 C 45.289062 32.992188 46.257812 33.171875 47.15625 33.28125 C 48.164062 33.425781 49.136719 33.570312 50.140625 33.675781 C 51.078125 33.785156 52.046875 33.855469 52.945312 33.894531 C 53.125 34.039062 53.269531 34.179688 53.378906 34.324219 C 53.484375 34.46875 53.59375 34.722656 53.703125 34.9375 C 53.773438 35.152344 53.84375 35.367188 53.882812 35.621094 C 53.882812 35.691406 53.882812 35.765625 53.917969 35.800781 L 51.507812 36.554688 C 51.472656 36.554688 51.4375 36.59375 51.398438 36.59375 C 51.183594 36.699219 50.96875 36.84375 50.753906 36.988281 C 50.5 37.132812 50.285156 37.3125 50.035156 37.457031 C 49.78125 37.636719 49.566406 37.816406 49.277344 37.996094 C 49.207031 38.140625 49.097656 38.210938 49.027344 38.320312 Z M 47.554688 48.355469 C 47.554688 48.394531 47.554688 48.394531 47.554688 48.355469 C 47.554688 48.355469 47.589844 48.355469 47.554688 48.355469 C 47.589844 48.355469 47.589844 48.355469 47.554688 48.355469 Z M 47.554688 48.355469 "/>
<path style=" stroke:none;fill-rule:nonzero;fill:rgb(100%,100%,100%);fill-opacity:1;" d="M 87.714844 20.183594 C 87.75 20.582031 87.714844 20.867188 87.605469 21.226562 C 87.5 21.550781 87.355469 21.804688 87.175781 22.09375 C 86.996094 22.34375 86.78125 22.558594 86.5625 22.738281 C 86.347656 22.957031 86.167969 23.097656 85.953125 23.207031 L 85.59375 23.207031 C 85.484375 23.207031 85.378906 23.207031 85.269531 23.242188 C 85.164062 23.242188 85.054688 23.277344 84.980469 23.277344 C 84.875 23.277344 84.800781 23.316406 84.695312 23.316406 C 84.585938 23.351562 84.515625 23.351562 84.40625 23.386719 C 84.300781 23.386719 84.226562 23.421875 84.15625 23.421875 C 84.082031 23.421875 83.976562 23.460938 83.902344 23.460938 L 83.652344 23.460938 C 83.542969 23.460938 83.4375 23.460938 83.363281 23.421875 C 83.257812 23.386719 83.183594 23.386719 83.113281 23.316406 C 83.039062 23.277344 82.96875 23.207031 82.898438 23.136719 C 82.824219 23.0625 82.753906 22.992188 82.679688 22.882812 C 82.609375 22.414062 82.5 21.984375 82.285156 21.695312 C 82.070312 21.335938 81.855469 21.121094 81.566406 20.90625 C 81.277344 20.6875 80.957031 20.507812 80.597656 20.402344 C 80.234375 20.257812 79.914062 20.113281 79.515625 20.003906 C 79.195312 19.898438 78.871094 19.789062 78.546875 19.644531 C 78.222656 19.5 77.933594 19.355469 77.648438 19.214844 C 77.359375 19.070312 77.144531 18.816406 76.929688 18.566406 C 76.710938 18.277344 76.53125 17.988281 76.460938 17.59375 C 75.417969 17.667969 74.449219 17.847656 73.476562 18.132812 C 72.503906 18.421875 71.605469 18.816406 70.742188 19.285156 C 69.882812 19.753906 69.019531 20.257812 68.15625 20.796875 C 67.328125 21.335938 66.5 21.949219 65.710938 22.488281 L 65.710938 23.277344 C 65.710938 23.53125 65.675781 23.746094 65.675781 24 C 65.675781 24.25 65.636719 24.464844 65.601562 24.683594 C 65.566406 24.933594 65.566406 25.113281 65.53125 25.367188 C 65.496094 25.582031 65.496094 25.796875 65.457031 26.011719 C 65.421875 26.265625 65.421875 26.445312 65.421875 26.699219 C 65.421875 26.949219 65.386719 27.128906 65.421875 27.382812 C 65.421875 27.632812 65.421875 27.8125 65.457031 28.066406 C 65.636719 28.460938 65.855469 28.929688 66.035156 29.324219 C 66.25 29.71875 66.429688 30.152344 66.679688 30.511719 C 66.933594 30.90625 67.113281 31.300781 67.363281 31.664062 C 67.617188 32.023438 67.832031 32.417969 68.082031 32.8125 C 68.335938 33.210938 68.550781 33.570312 68.800781 33.964844 C 69.054688 34.359375 69.269531 34.722656 69.484375 35.117188 C 69.738281 35.511719 69.917969 35.90625 70.132812 36.304688 C 70.347656 36.699219 70.527344 37.09375 70.671875 37.492188 C 70.78125 37.742188 70.816406 37.921875 70.816406 38.140625 C 70.816406 38.355469 70.742188 38.535156 70.636719 38.75 C 70.527344 38.964844 70.382812 39.144531 70.242188 39.328125 C 70.097656 39.507812 69.917969 39.722656 69.773438 39.867188 L 69.558594 40.082031 C 69.414062 40.152344 69.304688 40.226562 69.160156 40.296875 C 69.019531 40.371094 68.875 40.40625 68.765625 40.441406 C 68.621094 40.476562 68.480469 40.511719 68.371094 40.511719 C 68.261719 40.511719 68.082031 40.550781 67.976562 40.511719 L 67.652344 40.511719 C 67.652344 40.511719 67.4375 40.476562 67.292969 40.476562 C 67.183594 40.476562 67.039062 40.441406 66.933594 40.441406 C 66.824219 40.441406 66.679688 40.40625 66.574219 40.40625 C 66.464844 40.40625 66.320312 40.371094 66.214844 40.371094 C 66.105469 40.371094 65.960938 40.332031 65.855469 40.332031 C 65.746094 40.332031 65.601562 40.296875 65.496094 40.296875 L 64.8125 40.296875 C 64.8125 40.296875 64.59375 40.296875 64.488281 40.332031 C 64.378906 40.332031 64.273438 40.371094 64.164062 40.40625 C 64.054688 40.441406 63.949219 40.441406 63.839844 40.476562 L 61.753906 40.476562 C 61.429688 40.476562 61.144531 40.511719 60.820312 40.550781 C 60.496094 40.585938 60.210938 40.65625 59.921875 40.730469 C 59.597656 40.800781 59.347656 40.910156 59.058594 41.015625 C 58.769531 41.773438 58.664062 42.421875 58.699219 42.996094 C 58.734375 43.570312 58.914062 44.113281 59.167969 44.578125 C 59.453125 45.046875 59.777344 45.480469 60.210938 45.875 C 60.605469 46.269531 61.035156 46.667969 61.46875 47.027344 C 61.683594 47.207031 61.863281 47.386719 62.042969 47.53125 C 62.222656 47.671875 62.4375 47.890625 62.582031 48.035156 C 62.761719 48.214844 62.941406 48.394531 63.050781 48.574219 C 63.195312 48.753906 63.375 48.96875 63.445312 49.113281 L 63.445312 49.363281 C 63.445312 49.4375 63.410156 49.507812 63.375 49.582031 C 63.335938 49.652344 63.300781 49.722656 63.230469 49.796875 L 63.011719 50.011719 L 63.011719 50.371094 C 63.011719 50.480469 63.050781 50.589844 63.085938 50.695312 C 63.121094 50.804688 63.15625 50.875 63.195312 50.984375 C 63.230469 51.054688 63.265625 51.164062 63.335938 51.234375 C 63.375 51.308594 63.445312 51.414062 63.480469 51.488281 C 63.515625 51.558594 63.554688 51.667969 63.589844 51.738281 C 63.625 51.8125 63.660156 51.917969 63.660156 51.992188 C 63.695312 52.0625 63.695312 52.171875 63.695312 52.242188 L 63.695312 52.351562 C 63.695312 52.386719 63.695312 52.421875 63.660156 52.460938 C 63.660156 52.496094 63.625 52.53125 63.625 52.566406 C 63.625 52.601562 63.589844 52.640625 63.589844 52.675781 L 62.796875 52.675781 C 62.691406 52.675781 62.546875 52.710938 62.4375 52.710938 C 62.332031 52.710938 62.1875 52.746094 62.078125 52.78125 C 61.972656 52.820312 61.828125 52.820312 61.71875 52.855469 C 61.574219 52.890625 61.46875 52.890625 61.359375 52.925781 C 61.25 52.960938 61.109375 52.960938 61 53 C 60.890625 53 60.75 53.035156 60.640625 53.035156 L 60.316406 53.035156 C 60.136719 53.035156 59.957031 53 59.847656 52.960938 C 59.707031 52.925781 59.5625 52.855469 59.453125 52.746094 C 59.308594 52.640625 59.203125 52.53125 59.09375 52.351562 C 58.988281 52.171875 58.914062 51.992188 58.84375 51.777344 C 58.484375 51.738281 58.265625 51.667969 58.015625 51.558594 C 57.800781 51.453125 57.621094 51.273438 57.511719 51.128906 C 57.40625 50.984375 57.261719 50.730469 57.1875 50.550781 C 57.117188 50.335938 57.046875 50.121094 56.972656 49.867188 C 56.902344 49.617188 56.828125 49.4375 56.757812 49.183594 C 56.683594 48.933594 56.578125 48.753906 56.433594 48.574219 C 56.289062 48.355469 56.144531 48.214844 55.964844 48.105469 C 55.75 47.960938 55.535156 47.890625 55.210938 47.855469 C 55.140625 48.214844 55.066406 48.464844 54.921875 48.71875 C 54.816406 48.96875 54.671875 49.148438 54.527344 49.292969 C 54.347656 49.472656 54.167969 49.617188 54.023438 49.722656 C 53.808594 49.867188 53.628906 49.976562 53.414062 50.121094 C 53.234375 50.226562 53.054688 50.335938 52.910156 50.445312 C 52.765625 50.550781 52.550781 50.695312 52.40625 50.839844 C 52.226562 50.984375 52.082031 51.164062 51.976562 51.308594 C 51.832031 51.488281 51.6875 51.703125 51.578125 51.917969 C 51.328125 51.738281 51.113281 51.523438 50.898438 51.308594 C 50.679688 51.054688 50.5 50.839844 50.320312 50.550781 C 50.140625 50.265625 49.960938 49.976562 49.855469 49.652344 C 49.746094 49.328125 49.601562 49.003906 49.496094 48.644531 L 49.710938 48.539062 C 49.78125 48.5 49.890625 48.464844 49.960938 48.429688 C 50.070312 48.394531 50.140625 48.355469 50.25 48.355469 C 50.355469 48.320312 50.464844 48.320312 50.539062 48.285156 C 50.71875 48.25 50.859375 48.214844 51.003906 48.175781 C 51.183594 48.140625 51.328125 48.070312 51.4375 48.035156 C 51.578125 47.960938 51.722656 47.890625 51.832031 47.816406 C 51.9375 47.746094 52.046875 47.636719 52.082031 47.492188 C 52.121094 47.421875 52.15625 47.351562 52.15625 47.277344 C 52.15625 47.207031 52.191406 47.132812 52.15625 47.027344 C 52.15625 46.953125 52.121094 46.847656 52.121094 46.773438 C 52.082031 46.667969 52.046875 46.59375 52.011719 46.488281 L 51.867188 44.976562 L 51.003906 44.6875 C 50.25 44.507812 49.457031 44.328125 48.703125 44.183594 C 47.949219 44.003906 47.15625 43.789062 46.402344 43.609375 C 45.648438 43.390625 44.855469 43.175781 44.101562 42.925781 C 43.347656 42.671875 42.589844 42.382812 41.871094 42.0625 C 41.476562 41.054688 40.972656 40.226562 40.398438 39.507812 C 39.824219 38.785156 39.140625 38.210938 38.421875 37.707031 C 37.699219 37.203125 36.910156 36.773438 36.117188 36.410156 C 35.328125 36.015625 34.5 35.691406 33.675781 35.367188 C 32.8125 35.007812 31.949219 34.683594 31.121094 34.289062 C 30.292969 33.894531 29.539062 33.460938 28.820312 32.957031 C 28.101562 32.453125 27.488281 31.84375 26.878906 31.085938 C 26.339844 30.367188 25.871094 29.46875 25.546875 28.425781 C 25.476562 28.246094 25.441406 28.066406 25.40625 27.921875 L 25.296875 27.382812 C 25.261719 27.199219 25.222656 26.984375 25.222656 26.839844 C 25.1875 26.660156 25.1875 26.445312 25.152344 26.300781 C 25.117188 25.90625 25.082031 25.546875 25.007812 25.148438 C 24.9375 24.753906 24.863281 24.394531 24.757812 24.035156 C 24.648438 23.675781 24.46875 23.351562 24.289062 23.0625 C 24.074219 22.738281 23.824219 22.523438 23.460938 22.273438 C 23.28125 22.273438 23.101562 22.234375 22.960938 22.199219 C 22.78125 22.164062 22.636719 22.09375 22.492188 22.054688 C 22.347656 21.984375 22.167969 21.910156 22.058594 21.839844 C 21.953125 21.769531 21.773438 21.695312 21.628906 21.625 C 21.484375 21.550781 21.339844 21.480469 21.234375 21.40625 L 20.800781 21.191406 C 20.660156 21.121094 20.476562 21.085938 20.371094 21.046875 C 20.226562 21.011719 20.046875 20.976562 19.9375 20.976562 C 19.832031 20.976562 19.722656 20.976562 19.617188 21.011719 C 19.507812 21.011719 19.398438 21.046875 19.292969 21.085938 C 19.183594 21.121094 19.078125 21.15625 18.933594 21.226562 C 18.824219 21.300781 18.679688 21.371094 18.574219 21.445312 C 17.890625 22.019531 17.207031 22.558594 16.488281 22.992188 C 15.769531 23.421875 15.011719 23.820312 14.257812 24.105469 C 13.503906 24.429688 12.710938 24.609375 11.921875 24.753906 C 11.128906 24.898438 10.304688 24.96875 9.476562 24.96875 C 9.296875 24.96875 9.117188 24.96875 9.007812 24.933594 C 8.828125 24.933594 8.648438 24.898438 8.542969 24.898438 C 8.363281 24.898438 8.183594 24.863281 8.039062 24.828125 C 7.859375 24.789062 7.679688 24.789062 7.535156 24.753906 C 7.425781 24.683594 7.28125 24.644531 7.140625 24.609375 C 6.996094 24.574219 6.886719 24.503906 6.742188 24.464844 C 6.601562 24.429688 6.492188 24.359375 6.347656 24.324219 C 6.203125 24.285156 6.097656 24.214844 5.953125 24.179688 C 5.699219 24.105469 5.484375 24 5.234375 23.925781 C 4.980469 23.820312 4.765625 23.746094 4.550781 23.640625 C 4.296875 23.53125 4.117188 23.421875 3.867188 23.277344 C 3.652344 23.136719 3.4375 22.992188 3.21875 22.882812 C 4.730469 22.558594 6.277344 22.234375 7.820312 21.769531 C 9.367188 21.335938 10.949219 20.796875 12.53125 20.257812 C 14.113281 19.71875 15.660156 19.070312 17.207031 18.351562 C 18.753906 17.628906 20.261719 16.945312 21.773438 16.15625 L 22.203125 16.15625 C 22.457031 16.15625 22.671875 16.226562 22.851562 16.300781 C 23.066406 16.371094 23.210938 16.515625 23.355469 16.660156 C 23.5 16.800781 23.640625 16.984375 23.75 17.125 C 23.894531 17.304688 24.003906 17.523438 24.144531 17.703125 C 24.253906 17.882812 24.363281 18.0625 24.503906 18.207031 C 24.613281 18.386719 24.757812 18.566406 24.902344 18.671875 C 25.042969 18.816406 25.1875 18.960938 25.367188 19.070312 C 25.546875 19.175781 25.765625 19.285156 25.945312 19.355469 C 26.625 18.746094 27.273438 18.171875 27.921875 17.59375 C 28.570312 17.054688 29.214844 16.480469 29.898438 16.011719 C 30.546875 15.542969 31.230469 15.113281 31.949219 14.789062 C 32.632812 14.429688 33.351562 14.175781 34.105469 13.996094 C 34.5 13.960938 34.898438 13.960938 35.292969 13.925781 C 35.6875 13.925781 36.082031 13.886719 36.480469 13.886719 L 38.851562 13.886719 C 39.246094 13.886719 39.605469 13.886719 40.003906 13.925781 C 40.398438 13.925781 40.757812 13.960938 41.152344 13.960938 C 41.546875 13.960938 41.90625 13.996094 42.304688 13.996094 C 42.699219 13.996094 43.058594 14.03125 43.453125 14.03125 C 43.847656 14.03125 44.171875 14.066406 44.570312 14.066406 C 44.964844 14.066406 45.289062 14.105469 45.683594 14.105469 C 46.078125 14.105469 46.402344 14.140625 46.796875 14.140625 C 47.191406 14.140625 47.554688 14.140625 47.914062 14.175781 L 50.285156 14.175781 C 50.679688 14.175781 51.078125 14.175781 51.472656 14.140625 C 51.867188 14.140625 52.261719 14.105469 52.660156 14.066406 L 53.019531 13.707031 L 52.980469 13.492188 C 52.945312 13.457031 52.910156 13.457031 52.875 13.421875 L 52.765625 13.3125 C 52.730469 13.277344 52.730469 13.242188 52.695312 13.167969 C 52.660156 13.132812 52.660156 13.097656 52.660156 13.023438 L 52.660156 12.882812 C 52.660156 12.84375 52.660156 12.808594 52.695312 12.773438 C 52.695312 12.738281 52.730469 12.699219 52.730469 12.664062 C 52.765625 12.628906 52.765625 12.59375 52.800781 12.558594 C 53.019531 12.449219 53.199219 12.378906 53.414062 12.339844 C 53.628906 12.269531 53.808594 12.234375 54.0625 12.199219 C 54.3125 12.160156 54.492188 12.160156 54.742188 12.125 C 54.996094 12.125 55.210938 12.089844 55.464844 12.089844 C 55.644531 12.089844 55.859375 12.054688 56.003906 12.054688 C 56.183594 12.054688 56.398438 12.015625 56.542969 12.015625 C 56.722656 11.980469 56.9375 11.980469 57.082031 11.945312 C 57.261719 11.910156 57.476562 11.875 57.621094 11.835938 C 57.476562 11.65625 57.332031 11.476562 57.1875 11.371094 C 57.007812 11.226562 56.792969 11.117188 56.613281 11.046875 C 56.398438 10.972656 56.21875 10.902344 56.003906 10.867188 C 55.785156 10.828125 55.570312 10.792969 55.355469 10.792969 L 55.066406 10.792969 C 55.066406 10.792969 54.886719 10.792969 54.78125 10.828125 C 54.671875 10.828125 54.601562 10.867188 54.492188 10.867188 C 54.382812 10.867188 54.3125 10.902344 54.203125 10.9375 C 54.203125 10.792969 54.277344 10.648438 54.382812 10.507812 C 54.492188 10.363281 54.636719 10.183594 54.78125 10.074219 C 54.921875 9.964844 55.140625 9.785156 55.320312 9.679688 C 55.535156 9.570312 55.714844 9.460938 55.929688 9.390625 L 56.363281 9.28125 C 56.503906 9.246094 56.683594 9.210938 56.792969 9.210938 C 56.9375 9.175781 57.117188 9.175781 57.226562 9.175781 L 57.65625 9.175781 C 57.980469 9.175781 58.265625 9.210938 58.589844 9.246094 C 58.914062 9.28125 59.203125 9.355469 59.527344 9.390625 C 59.847656 9.460938 60.101562 9.535156 60.425781 9.605469 C 60.710938 9.679688 61 9.75 61.25 9.824219 L 61.46875 9.460938 C 61.46875 9.355469 61.503906 9.28125 61.503906 9.175781 C 61.503906 9.066406 61.539062 8.960938 61.574219 8.886719 C 61.613281 8.777344 61.648438 8.707031 61.683594 8.636719 C 61.71875 8.5625 61.792969 8.492188 61.828125 8.457031 C 61.863281 8.457031 61.863281 8.417969 61.898438 8.417969 C 61.933594 8.417969 61.933594 8.382812 61.972656 8.382812 L 62.796875 8.382812 C 62.90625 8.382812 63.050781 8.417969 63.15625 8.417969 C 63.265625 8.417969 63.375 8.457031 63.480469 8.457031 C 63.589844 8.457031 63.695312 8.492188 63.769531 8.527344 C 63.875 8.5625 63.984375 8.5625 64.09375 8.597656 C 64.199219 8.636719 64.308594 8.636719 64.414062 8.636719 C 64.523438 8.636719 64.632812 8.671875 64.738281 8.671875 L 65.0625 8.671875 C 65.207031 8.671875 65.316406 8.671875 65.457031 8.636719 C 65.566406 8.636719 65.710938 8.597656 65.816406 8.5625 C 65.925781 8.527344 66.070312 8.457031 66.175781 8.417969 C 66.285156 8.347656 66.394531 8.277344 66.5 8.167969 C 66.5 8.058594 66.464844 7.988281 66.464844 7.878906 L 66.464844 7.664062 C 66.464844 7.664062 66.464844 7.554688 66.5 7.484375 C 66.5 7.449219 66.539062 7.375 66.574219 7.339844 C 66.609375 7.269531 66.679688 7.195312 66.71875 7.160156 C 66.789062 7.125 66.859375 7.050781 66.933594 7.015625 C 67.003906 6.980469 67.078125 6.945312 67.148438 6.945312 C 67.21875 6.90625 67.292969 6.90625 67.363281 6.90625 L 68.550781 7.230469 C 68.945312 7.339844 69.378906 7.449219 69.808594 7.519531 C 70.242188 7.628906 70.671875 7.699219 71.105469 7.734375 C 71.535156 7.808594 72.003906 7.84375 72.433594 7.84375 L 73.046875 7.84375 C 73.046875 7.84375 73.441406 7.808594 73.65625 7.808594 C 73.871094 7.773438 74.050781 7.773438 74.269531 7.699219 C 74.484375 7.664062 74.664062 7.628906 74.84375 7.554688 C 74.914062 7.410156 74.949219 7.230469 74.988281 7.125 C 75.023438 7.015625 75.023438 6.835938 74.988281 6.726562 C 74.988281 6.585938 74.949219 6.476562 74.914062 6.332031 C 74.878906 6.1875 74.84375 6.082031 74.808594 5.972656 C 74.769531 5.863281 74.769531 5.792969 74.734375 5.683594 C 74.699219 5.578125 74.699219 5.503906 74.664062 5.398438 C 74.628906 5.289062 74.628906 5.21875 74.628906 5.109375 L 74.628906 4.605469 C 74.628906 4.570312 74.628906 4.535156 74.664062 4.496094 C 74.664062 4.460938 74.664062 4.425781 74.699219 4.390625 C 74.949219 4.425781 75.128906 4.496094 75.308594 4.605469 C 75.488281 4.714844 75.667969 4.855469 75.777344 5 C 75.921875 5.179688 76.066406 5.359375 76.171875 5.503906 C 76.316406 5.722656 76.425781 5.902344 76.570312 6.082031 C 76.675781 6.261719 76.785156 6.40625 76.890625 6.511719 C 77 6.691406 77.109375 6.835938 77.214844 6.945312 C 77.324219 7.089844 77.46875 7.230469 77.574219 7.339844 C 77.71875 7.484375 77.863281 7.59375 77.972656 7.699219 C 78.007812 7.734375 78.332031 7.953125 78.691406 8.203125 C 79.085938 8.492188 79.589844 8.851562 80.09375 9.210938 C 80.597656 9.605469 81.136719 9.929688 81.53125 10.253906 C 81.925781 10.578125 82.25 10.757812 82.359375 10.828125 C 82.609375 11.800781 82.898438 12.738281 83.21875 13.566406 C 83.578125 14.429688 83.902344 15.253906 84.371094 16.011719 C 84.765625 16.765625 85.269531 17.449219 85.738281 18.097656 C 86.5625 19.035156 87.140625 19.644531 87.714844 20.183594 Z M 57.765625 37.5625 L 57.800781 37.382812 C 57.726562 37.238281 57.65625 37.09375 57.621094 36.953125 C 57.585938 36.808594 57.546875 36.628906 57.511719 36.519531 C 57.476562 36.339844 57.476562 36.195312 57.441406 36.050781 C 57.40625 35.871094 57.40625 35.691406 57.367188 35.546875 C 57.332031 35.261719 57.296875 35.007812 57.261719 34.722656 C 57.226562 34.433594 57.152344 34.179688 57.082031 33.929688 C 56.972656 33.675781 56.867188 33.425781 56.683594 33.171875 C 56.503906 32.921875 56.289062 32.742188 56.074219 32.527344 L 56.003906 32.488281 C 54.996094 32.453125 54.023438 32.382812 53.019531 32.273438 C 52.011719 32.167969 51.039062 32.058594 50.035156 31.878906 C 49.027344 31.734375 48.054688 31.519531 47.050781 31.339844 C 46.042969 31.121094 45.070312 30.90625 44.066406 30.65625 L 43.921875 30.691406 C 43.777344 30.835938 43.667969 30.980469 43.597656 31.121094 C 43.527344 31.300781 43.527344 31.519531 43.527344 31.664062 C 43.527344 31.84375 43.5625 32.058594 43.597656 32.203125 C 43.632812 32.382812 43.667969 32.527344 43.707031 32.597656 C 44.136719 33.714844 44.785156 34.683594 45.503906 35.621094 C 46.222656 36.554688 47.085938 37.382812 47.984375 38.140625 C 48.882812 38.894531 49.855469 39.507812 50.824219 40.082031 C 51.796875 40.585938 52.765625 41.054688 53.703125 41.339844 C 53.773438 41.378906 53.808594 41.414062 53.882812 41.449219 C 53.953125 41.484375 53.988281 41.484375 54.0625 41.519531 C 54.132812 41.519531 54.167969 41.558594 54.242188 41.558594 L 54.671875 41.558594 C 54.671875 41.558594 54.742188 41.519531 54.78125 41.519531 C 54.816406 41.519531 54.851562 41.484375 54.886719 41.484375 L 55.210938 41.269531 C 55.320312 41.160156 55.390625 41.054688 55.5 40.945312 C 55.570312 40.800781 55.644531 40.65625 55.714844 40.550781 C 55.785156 40.371094 55.824219 40.191406 55.859375 40.046875 L 55.785156 39.902344 L 55.644531 39.867188 C 55.605469 39.902344 55.570312 39.902344 55.5 39.902344 C 55.464844 39.902344 55.425781 39.9375 55.390625 39.9375 L 55.175781 39.9375 C 55.101562 39.9375 55.03125 39.9375 54.921875 39.902344 C 54.851562 39.867188 54.78125 39.867188 54.707031 39.828125 L 54.492188 39.722656 C 54.421875 39.6875 54.347656 39.613281 54.277344 39.578125 C 54.203125 39.542969 54.132812 39.46875 54.0625 39.433594 C 53.988281 39.398438 53.917969 39.363281 53.84375 39.289062 C 53.773438 39.253906 53.664062 39.21875 53.59375 39.183594 C 53.519531 39.144531 53.414062 39.144531 53.304688 39.144531 L 53.089844 39.144531 C 53.089844 39.144531 53.019531 39.144531 52.980469 39.183594 C 52.945312 39.183594 52.910156 39.21875 52.875 39.21875 C 52.800781 39.21875 52.695312 39.21875 52.621094 39.183594 C 52.550781 39.144531 52.441406 39.144531 52.371094 39.109375 C 52.300781 39.074219 52.191406 39.039062 52.121094 38.964844 C 52.046875 38.894531 51.976562 38.859375 51.867188 38.785156 L 51.722656 38.644531 C 51.722656 38.644531 51.652344 38.535156 51.617188 38.5 C 51.578125 38.460938 51.578125 38.390625 51.542969 38.355469 C 51.507812 38.320312 51.507812 38.246094 51.507812 38.210938 C 51.796875 37.996094 52.011719 37.777344 52.300781 37.597656 C 52.550781 37.382812 52.800781 37.203125 53.019531 37.058594 C 53.269531 36.878906 53.484375 36.699219 53.703125 36.59375 C 53.953125 36.449219 54.132812 36.304688 54.347656 36.195312 C 54.382812 36.269531 54.457031 36.375 54.527344 36.554688 L 54.78125 37.058594 C 54.886719 37.238281 54.960938 37.417969 55.03125 37.527344 C 55.101562 37.671875 55.140625 37.777344 55.175781 37.777344 L 55.246094 37.851562 C 55.320312 37.886719 55.390625 37.886719 55.5 37.921875 C 55.570312 37.960938 55.679688 37.960938 55.75 37.996094 C 55.824219 37.996094 55.929688 38.03125 56.003906 38.03125 L 56.253906 38.03125 C 56.398438 38.03125 56.542969 38.03125 56.648438 37.996094 C 56.792969 37.960938 56.9375 37.960938 57.046875 37.921875 C 57.1875 37.886719 57.296875 37.816406 57.40625 37.777344 C 57.585938 37.742188 57.65625 37.671875 57.765625 37.5625 M 65.890625 37.203125 L 62.726562 33.210938 L 62.617188 33.171875 L 62.222656 33.171875 L 62.078125 33.28125 L 61 37.417969 L 61.035156 37.5625 L 61.324219 37.816406 L 61.46875 37.851562 C 61.753906 37.777344 62.007812 37.707031 62.292969 37.671875 C 62.582031 37.636719 62.871094 37.5625 63.15625 37.527344 C 63.480469 37.492188 63.769531 37.457031 64.09375 37.457031 L 65.816406 37.457031 L 65.960938 37.382812 L 65.960938 37.203125 "/>
</g>
</svg>
