<?xml version="1.0" encoding="UTF-8"?>
<svg xmlns="http://www.w3.org/2000/svg" xmlns:xlink="http://www.w3.org/1999/xlink" width="90px" height="90px" viewBox="0 0 90 90" version="1.1">
<g id="surface1">
<path style=" stroke:none;fill-rule:nonzero;fill:rgb(100%,72.156864%,10.980392%);fill-opacity:1;" d="M 12.542969 19.890625 L 0 56.464844 L 33.574219 56.464844 L 28.898438 70.109375 L 77.464844 70.109375 L 80.640625 60.859375 L 45.292969 60.859375 C 46.199219 58.214844 48.675781 56.449219 51.464844 56.449219 L 82.160156 56.449219 L 85.332031 47.199219 L 49.984375 47.199219 C 50.890625 44.558594 53.367188 42.792969 56.160156 42.792969 L 86.851562 42.792969 L 90.023438 33.542969 L 21.089844 33.558594 C 22 30.917969 24.476562 29.148438 27.265625 29.148438 L 57.957031 29.148438 L 61.132812 19.898438 L 12.542969 19.898438 Z M 36.742188 47.214844 L 16.382812 47.214844 C 17.292969 44.574219 19.765625 42.808594 22.558594 42.808594 L 38.25 42.808594 Z M 36.742188 47.214844 "/>
<path style=" stroke:none;fill-rule:nonzero;fill:rgb(16.470589%,32.156864%,20.392157%);fill-opacity:1;" d="M 30.640625 68.859375 L 35.316406 55.214844 L 1.75 55.214844 L 13.433594 21.140625 L 59.359375 21.140625 L 57.042969 27.890625 L 27.242188 27.890625 C 23.917969 27.890625 20.964844 30 19.882812 33.148438 L 19.316406 34.808594 L 88.25 34.792969 L 85.933594 41.542969 L 56.132812 41.542969 C 52.808594 41.542969 49.859375 43.648438 48.773438 46.800781 L 48.207031 48.457031 L 83.558594 48.457031 L 81.242188 55.207031 L 51.441406 55.207031 C 48.117188 55.207031 45.167969 57.316406 44.082031 60.464844 L 43.515625 62.125 L 78.867188 62.125 L 76.550781 68.875 L 30.640625 68.875 Z M 22.558594 41.558594 C 19.234375 41.558594 16.285156 43.667969 15.199219 46.816406 L 14.632812 48.476562 L 37.632812 48.476562 L 40 41.566406 L 22.558594 41.566406 Z M 22.558594 41.558594 "/>
</g>
</svg>
