<?xml version="1.0" encoding="UTF-8"?>
<svg xmlns="http://www.w3.org/2000/svg" xmlns:xlink="http://www.w3.org/1999/xlink" width="90px" height="90px" viewBox="0 0 90 90" version="1.1">
<g id="surface1">
<path style=" stroke:none;fill-rule:nonzero;fill:rgb(100%,100%,100%);fill-opacity:1;" d="M 34.335938 89.953125 C 32.761719 89.953125 31.140625 89.863281 29.609375 89.730469 C 29.160156 89.730469 19.664062 89.460938 7.695312 73.484375 C 6.34375 71.371094 5.941406 69.839844 6.433594 68.894531 C 6.570312 68.625 7.019531 68.039062 8.011719 68.039062 C 8.683594 68.039062 9.496094 68.308594 10.621094 68.941406 C 10.800781 69.03125 14.488281 70.828125 19.890625 71.820312 C 15.75 69.390625 10.800781 65.699219 7.335938 60.703125 C 7.199219 60.570312 4.273438 56.566406 5.21875 51.660156 C 5.761719 48.78125 7.558594 46.214844 10.484375 44.054688 C 9.675781 43.15625 8.550781 41.851562 7.46875 40.273438 C 4.546875 35.910156 3.285156 31.636719 3.914062 27.898438 C 4.003906 26.820312 7.425781 17.863281 19.078125 10.394531 C 19.171875 10.351562 30.195312 2.96875 48.195312 0.496094 C 48.421875 0.449219 50.535156 0.179688 54.359375 0.179688 C 55.261719 0.179688 56.25 0.179688 57.328125 0.226562 C 57.914062 0.226562 58.5 0.269531 59.175781 0.269531 C 64.394531 0.449219 72.226562 0.675781 81.765625 3.238281 L 86.039062 4.453125 L 82.261719 6.976562 C 82.171875 7.019531 72.988281 13.050781 70.515625 20.746094 C 68.625 26.550781 69.75 33.390625 73.84375 40.949219 L 75.015625 43.15625 L 74.339844 43.378906 L 74.789062 43.738281 C 75.644531 44.414062 79.785156 47.878906 79.515625 51.253906 C 79.46875 51.75 79.335938 52.199219 79.15625 52.605469 C 79.335938 52.785156 79.515625 53.054688 79.605469 53.324219 C 79.785156 53.640625 80.011719 54.449219 79.378906 55.710938 C 79.289062 55.933594 76.589844 61.785156 71.371094 66.464844 C 73.933594 67.726562 79.15625 70.695312 83.386719 75.238281 C 84.148438 76.183594 84.464844 77.578125 83.386719 78.433594 C 83.023438 78.703125 82.441406 78.929688 80.773438 78.929688 L 79.964844 78.929688 C 77.761719 78.929688 69.886719 79.246094 61.066406 83.339844 C 61.066406 83.339844 48.644531 89.953125 34.335938 89.953125 Z M 34.335938 89.953125 "/>
<path style=" stroke:none;fill-rule:nonzero;fill:rgb(100%,100%,100%);fill-opacity:1;" d="M 13.410156 44.101562 C 13.410156 44.101562 4.636719 36.089844 5.941406 28.214844 C 5.941406 28.214844 8.550781 19.574219 20.203125 12.148438 C 20.203125 12.148438 31.273438 4.949219 48.464844 2.566406 C 48.464844 2.566406 60.886719 -0.226562 81.179688 5.265625 C 81.179688 5.265625 58.816406 17.59375 72 41.984375 C 72 41.984375 59.265625 45.988281 42.074219 38.96875 C 42.074219 38.96875 20.339844 28.304688 17.640625 41.398438 Z M 13.410156 44.101562 "/>
<path style=" stroke:none;fill-rule:nonzero;fill:rgb(3.921569%,13.333334%,25.098041%);fill-opacity:1;" d="M 26.234375 73.664062 C 16.964844 73.53125 10.035156 70.019531 10.035156 70.019531 C 5.128906 67.273438 8.683594 72.765625 8.683594 72.765625 C 20.476562 88.515625 29.789062 88.515625 29.789062 88.515625 C 45.855469 90.226562 60.703125 82.171875 60.703125 82.171875 C 71.324219 77.21875 80.683594 77.671875 80.683594 77.671875 C 82.441406 77.671875 82.710938 77.488281 82.710938 77.488281 C 83.339844 76.949219 82.574219 76.003906 82.574219 76.003906 C 76.816406 69.839844 69.210938 66.691406 69.210938 66.691406 C 75.148438 62.101562 78.300781 55.125 78.300781 55.125 C 78.796875 54.136719 78.480469 53.730469 78.480469 53.730469 C 78.253906 52.785156 76.589844 53.414062 76.589844 53.414062 C 81.628906 50.671875 74.023438 44.640625 74.023438 44.640625 C 52.425781 49.726562 38.65625 38.339844 38.65625 38.339844 L 37.800781 36.539062 L 31.589844 35.011719 L 18 40.410156 L 12.511719 44.101562 C 1.441406 50.804688 8.28125 59.984375 8.28125 59.984375 C 14.625 69.074219 26.234375 73.664062 26.234375 73.664062 Z M 26.234375 73.664062 "/>
<path style=" stroke:none;fill-rule:nonzero;fill:rgb(37.254903%,55.29412%,70.980394%);fill-opacity:1;" d="M 48.421875 12.734375 L 51.660156 6.390625 L 51.03125 6.433594 C 36.089844 7.109375 34.199219 8.910156 34.109375 9 L 34.066406 9.046875 L 29.746094 15.253906 L 31.949219 15.074219 L 24.570312 26.234375 L 22.050781 26.640625 L 19.574219 33.929688 L 20.25 33.75 C 32.488281 30.691406 46.621094 34.875 46.753906 34.921875 L 47.203125 35.054688 L 47.476562 27.449219 L 45 27.089844 C 45.40625 17.371094 45.628906 13.636719 45.988281 12.691406 L 48.421875 12.691406 Z M 45.269531 12.285156 C 45.226562 12.421875 44.460938 15.210938 44.191406 27.40625 L 44.191406 27.71875 L 46.710938 28.078125 L 46.484375 34.066406 C 45 33.660156 40.453125 32.488281 34.46875 32.085938 L 35.191406 26.191406 L 37.800781 26.324219 L 37.84375 25.605469 L 31.949219 25.289062 L 31.589844 26.011719 L 34.46875 26.144531 L 33.523438 31.949219 C 32.445312 31.90625 31.273438 31.90625 30.105469 31.90625 C 27.046875 31.90625 23.804688 32.175781 20.699219 32.894531 L 22.589844 27.316406 L 24.976562 26.910156 L 33.390625 14.128906 L 31.09375 14.355469 L 34.558594 9.539062 C 34.964844 9.316406 37.53125 7.785156 50.398438 7.199219 L 47.925781 12.015625 L 45.316406 12.015625 Z M 45.269531 12.285156 "/>
<path style=" stroke:none;fill-rule:nonzero;fill:rgb(37.254903%,55.29412%,70.980394%);fill-opacity:1;" d="M 38.386719 20.339844 L 39.105469 14.625 L 34.875 20.339844 Z M 37.753906 19.621094 L 36.316406 19.621094 L 38.023438 17.324219 Z M 37.753906 19.621094 "/>
<path style=" stroke:none;fill-rule:nonzero;fill:rgb(3.921569%,13.333334%,25.098041%);fill-opacity:1;" d="M 47.476562 11.160156 L 48.914062 8.234375 C 39.914062 8.460938 35.144531 10.171875 35.144531 10.171875 L 33.300781 12.78125 L 36.675781 12.058594 C 31.996094 17.28125 26.011719 27.628906 26.011719 27.628906 L 23.398438 28.078125 L 22.320312 31.230469 C 25.738281 30.421875 32.671875 30.871094 32.671875 30.871094 L 33.210938 27.496094 L 29.609375 27.449219 L 31.363281 24.210938 C 36.71875 24.074219 39.238281 24.480469 39.238281 24.480469 L 39.238281 27.855469 L 36.226562 27.585938 L 35.910156 31.050781 C 35.910156 31.050781 40.726562 31.273438 45.539062 32.625 L 45.675781 28.800781 L 43.558594 28.441406 C 43.199219 19.171875 44.640625 11.070312 44.640625 11.070312 L 47.476562 11.070312 Z M 39.238281 21.511719 L 33.300781 21.511719 C 35.101562 17.460938 39.914062 12.644531 39.914062 12.644531 Z M 39.238281 21.511719 "/>
<path style=" stroke:none;fill-rule:nonzero;fill:rgb(100%,100%,100%);fill-opacity:1;" d="M 65.113281 70.425781 C 62.640625 69.433594 61.066406 66.601562 61.066406 66.601562 L 57.644531 59.941406 C 68.265625 58.230469 71.191406 55.980469 71.191406 55.980469 C 64.304688 58.003906 57.328125 58.726562 57.328125 58.726562 L 57.734375 57.464844 L 55.933594 53.863281 L 53.414062 53.011719 L 52.378906 55.171875 L 54.089844 59.128906 L 50.851562 59.398438 L 51.121094 57.960938 L 49.589844 54.585938 L 46.753906 53.414062 L 45.628906 55.84375 L 47.386719 59.625 L 44.054688 59.714844 L 44.503906 58.363281 L 42.570312 54.585938 L 39.824219 53.910156 L 38.65625 56.023438 L 40.410156 59.941406 L 36.808594 59.941406 L 37.441406 58.320312 L 35.863281 54.808594 L 32.894531 53.910156 L 31.589844 56.203125 L 33.164062 59.984375 C 20.789062 59.851562 10.800781 56.609375 10.800781 56.609375 C 18.539062 61.335938 36 61.515625 36 61.515625 L 41.535156 71.863281 C 42.570312 73.800781 42.074219 75.691406 42.074219 75.691406 C 28.304688 80.820312 12.464844 73.84375 12.464844 73.84375 C 11.609375 73.484375 11.429688 73.621094 11.429688 73.621094 C 11.203125 73.710938 11.609375 74.070312 11.609375 74.070312 C 17.054688 79.066406 29.746094 79.695312 29.746094 79.695312 C 38.160156 79.921875 44.863281 77.21875 44.863281 77.21875 C 47.113281 76.320312 50.488281 75.148438 50.488281 75.148438 C 65.835938 70.019531 75.328125 72.496094 75.328125 72.496094 C 70.335938 69.75 65.113281 70.425781 65.113281 70.425781 Z M 35.820312 59.308594 L 34.199219 59.308594 L 32.761719 56.070312 L 33.300781 54.988281 L 34.785156 55.441406 L 36.089844 58.363281 Z M 53.371094 55.304688 L 53.910156 54.089844 L 55.351562 54.628906 L 56.65625 57.421875 L 56.386719 58.589844 L 54.988281 58.679688 Z M 46.710938 55.753906 L 47.25 54.585938 L 48.914062 55.304688 L 49.949219 57.871094 L 49.816406 58.996094 L 48.238281 59.039062 Z M 39.871094 56.070312 L 40.410156 54.988281 L 41.941406 55.484375 L 43.246094 58.363281 L 42.976562 59.355469 L 41.355469 59.355469 Z M 48.148438 73.890625 L 46.664062 74.386719 C 45.179688 73.980469 43.199219 71.371094 43.199219 71.371094 L 37.710938 61.335938 L 43.019531 61.335938 L 47.609375 70.066406 C 48.78125 72.226562 48.148438 73.890625 48.148438 73.890625 Z M 54.136719 72.046875 L 52.558594 72.539062 C 51.164062 71.953125 49.410156 69.929688 49.410156 69.929688 L 44.503906 61.109375 L 49.679688 60.929688 L 53.640625 68.308594 C 54.71875 70.425781 54.136719 72.046875 54.136719 72.046875 Z M 60.433594 70.828125 L 58.769531 71.144531 C 58.769531 71.144531 56.339844 70.199219 54.855469 67.546875 L 51.164062 60.75 L 56.160156 60.210938 L 59.535156 66.554688 C 59.535156 66.554688 60.929688 68.851562 60.433594 70.828125 Z M 60.433594 70.828125 "/>
<path style=" stroke:none;fill-rule:nonzero;fill:rgb(37.254903%,55.29412%,70.980394%);fill-opacity:1;" d="M 10.078125 71.640625 C 10.078125 71.640625 24.164062 80.101562 41.445312 75.105469 C 41.445312 75.105469 41.804688 74.339844 41.085938 72.71875 C 41.085938 72.71875 27.40625 77.671875 10.078125 71.640625 Z M 44.414062 71.640625 L 47.023438 70.648438 C 47.023438 70.648438 47.699219 71.820312 47.609375 73.304688 L 46.800781 73.574219 C 46.800781 73.574219 45.359375 72.765625 44.414062 71.640625 Z M 50.175781 69.480469 L 52.875 68.714844 C 52.875 68.714844 53.59375 69.75 53.503906 71.371094 L 52.605469 71.59375 C 52.605469 71.59375 51.164062 70.964844 50.175781 69.480469 Z M 56.070312 67.726562 L 59.128906 67.183594 C 59.128906 67.183594 59.851562 68.445312 59.761719 70.289062 L 58.90625 70.425781 C 58.90625 70.425781 57.148438 69.433594 56.070312 67.726562 Z M 62.371094 67.003906 C 62.371094 67.003906 63.40625 68.941406 65.429688 69.703125 C 65.429688 69.703125 68.714844 69.03125 73.214844 70.738281 C 73.214844 70.738281 70.828125 67.726562 62.371094 67.003906 Z M 62.371094 67.003906 "/>
<path style=" stroke:none;fill-rule:nonzero;fill:rgb(37.254903%,55.29412%,70.980394%);fill-opacity:1;" d="M 13.816406 76.636719 C 13.816406 76.636719 22.90625 82.125 37.710938 80.011719 C 37.710938 80.011719 42.839844 79.109375 47.023438 77.445312 C 47.023438 77.445312 55.710938 73.53125 65.925781 72.71875 C 65.925781 72.71875 72.046875 72.226562 76.453125 73.890625 C 76.726562 73.980469 77.308594 74.339844 76.003906 74.070312 C 76.003906 74.070312 70.15625 72.675781 58.679688 75.601562 C 58.679688 75.601562 53.011719 77.355469 48.511719 79.558594 C 48.511719 79.558594 41.488281 82.890625 33.976562 83.070312 C 26.460938 83.25 18 81.226562 13.816406 76.636719 Z M 13.816406 76.636719 "/>
<path style=" stroke:none;fill-rule:nonzero;fill:rgb(100%,100%,100%);fill-opacity:1;" d="M 20.699219 82.800781 C 20.699219 82.800781 31.859375 87.886719 45.808594 83.878906 C 45.808594 83.878906 51.75 82.078125 55.441406 80.28125 C 55.441406 80.28125 63.179688 76.589844 69.796875 75.644531 C 69.796875 75.644531 71.910156 75.285156 74.746094 75.148438 C 74.746094 75.148438 75.871094 75.148438 75.871094 75.058594 C 75.871094 74.878906 74.65625 74.699219 74.65625 74.699219 C 74.65625 74.699219 65.835938 72.988281 55.304688 77.625 C 55.304688 77.625 44.910156 82.304688 39.511719 83.296875 C 39.511719 83.296875 33.75 85.140625 21.464844 82.710938 C 21.554688 82.710938 20.699219 82.484375 20.699219 82.800781 Z M 20.699219 82.800781 "/>
<path style=" stroke:none;fill-rule:nonzero;fill:rgb(37.254903%,55.29412%,70.980394%);fill-opacity:1;" d="M 28.800781 86.355469 C 28.800781 86.355469 39.824219 89.324219 52.109375 84.238281 C 52.109375 84.238281 58.546875 81.585938 59.578125 81.089844 C 59.578125 81.089844 62.820312 79.425781 71.414062 77.355469 C 71.414062 77.355469 74.429688 76.726562 73.484375 76.5 C 73.484375 76.5 69.253906 75.195312 58.183594 80.011719 C 58.183594 80.011719 50.714844 83.386719 46.261719 84.511719 C 46.261719 84.511719 37.53125 87.164062 29.96875 86.308594 C 29.925781 86.265625 28.84375 86.085938 28.800781 86.355469 Z M 28.800781 86.355469 "/>
<path style=" stroke:none;fill-rule:nonzero;fill:rgb(3.921569%,13.333334%,25.098041%);fill-opacity:1;" d="M 81.40625 4.410156 C 70.828125 1.574219 62.460938 1.621094 57.238281 1.394531 C 51.570312 1.171875 48.464844 1.621094 48.328125 1.664062 C 31.363281 4.050781 20.429688 10.890625 19.710938 11.429688 C 8.324219 18.765625 5.175781 27.449219 5.085938 28.125 C 4.546875 31.546875 5.671875 35.503906 8.460938 39.601562 C 10.53125 42.613281 12.734375 44.640625 12.824219 44.730469 L 13.320312 45.179688 L 18.449219 41.941406 L 18.539062 41.578125 C 19.035156 39.195312 20.203125 37.574219 22.09375 36.675781 C 28.710938 33.433594 41.625 39.691406 41.761719 39.734375 L 41.804688 39.78125 C 59.039062 46.84375 71.773438 42.976562 72.316406 42.839844 L 73.304688 42.523438 L 72.808594 41.625 C 68.535156 33.75 67.410156 26.640625 69.390625 20.476562 C 72 12.328125 81.539062 6.121094 81.628906 6.074219 L 83.25 4.996094 Z M 67.726562 19.84375 C 65.65625 26.191406 66.691406 33.433594 70.785156 41.398438 C 69.480469 41.714844 66.914062 42.164062 63.449219 42.253906 C 58.679688 42.34375 51.210938 41.714844 42.523438 38.160156 C 41.671875 37.753906 28.664062 31.546875 21.375 35.101562 C 19.078125 36.226562 17.503906 38.386719 16.875 41.21875 L 13.726562 43.109375 C 11.925781 41.398438 5.761719 34.648438 6.796875 28.351562 L 6.796875 28.261719 C 6.796875 28.214844 9.628906 19.890625 20.65625 12.824219 L 20.699219 12.78125 C 20.789062 12.734375 29.203125 5.894531 43.921875 4.050781 C 46.980469 3.691406 52.199219 3.105469 60.75 3.148438 C 65.609375 3.285156 71.773438 3.734375 79.019531 5.578125 C 76.453125 7.246094 69.75 13.589844 67.726562 19.84375 Z M 67.726562 19.84375 "/>
</g>
</svg>
