<?xml version="1.0" encoding="UTF-8"?><svg xmlns="http://www.w3.org/2000/svg" viewBox="0 0 500 500"><defs><linearGradient id="a" x1="57.13" y1="250" x2="442.94" y2="250" gradientUnits="userSpaceOnUse"><stop offset="0" stop-color="#e74624"/><stop offset="1" stop-color="#f15725"/></linearGradient></defs><path class="cls-4" d="M132.62 396.86l8.99-76.66-84.48.66 6.2-52.85 10.82-.08 7.11-60.66-10.82.08 4.35-37.17c.06-.5 1.42-12.75 1.81-16.29l48.07-.19.13-.08c13.58-8.19 27.89-17 28.04-17.09l.5-.31-.35-.47c-.05-.07-5.22-7.06-9.88-16.59-5.69-10.26-7.82-20.41-6.34-30.21l.34-2.27c.06-.4.29-.75.64-.96l1.97-1.17c.25-.15 2.6-1.51 7.24-2.88 3.06-.99 6.56-1.73 10.42-2.19 4.66-.65 9.68-.98 14.92-.98h.74c14.22.09 30.3 2.46 47.78 7.06l.07.02.23.02 16.45-2.57c14.76-2.32 30.82-3.5 47.73-3.5h2.12c58.93.35 87.03 27.27 94.24 35.52.15.17.33.29.55.35 17.48 5.24 32.44 12.79 44.47 22.45l3.05 2.44.16.14.16.12 2.79 2.69c6.19 5.95 8.92 10.36 9.2 10.84l.89 1.48v1.73c-.08 11.86-9.59 32.55-23.13 43.28l-1.21 1.03c-2.55 2.19-5.29 4.23-8.13 6.06-.22.14-.39.36-.47.61-4.79 14.01-8.92 19.84-11.39 23.32-.28.4-.55.77-.78 1.12-4.66 5.82-11.47 14.19-14.08 17.14.11-.48.25-1.04.38-1.61 1.47-6.1 4.54-18.8 3.56-29.76-.05-.62-.56-1.1-1.19-1.1l-.23.02c-4.03.76-8.17 1.14-12.3 1.14h-.38c-6.58-.04-15.56-2.26-16.57-2.51l-15.81-4.06c-9.22-2.37-13.29-3.01-14.24-3.01 0 0-.33 0-.43.01l-.39.02-.1.38c-.19.72-.42 2.16-.43 4.94-.04 6.65.13 12.61.47 17.23l.03.39 2.68.62c16.51 3.83 24.11 12.76 31.46 21.39l1 1.17c2.75 3.22 10.35 10.67 10.43 10.74l.27.26.34-.16c8.83-4.21 19.04-13.91 23.4-18.05l.59-.56c-2.03 5.73-8.52 23.33-11.27 30.74-.25.52-.04 1.21.51 1.52l5.91 3.34c.27.15.77.45 1.14.67l-3.98 5.71c-8.41 9.89-25.68 13.24-32.72 13.31h-.83c-12.4 0-21.68-2.77-29.13-5-1.98-.59-3.83-1.15-5.57-1.6-3.41-.89-6.57-1.33-9.39-1.33-10.73 0-17.63 6.12-23.06 20.46-1.72 4.54-2.15 6.4-2.65 8.54-.15.66-.32 1.36-.53 2.19l-60.46.47 2.17-18.54-22.74.18-7 59.74 22.74-.18 2.84-24.21 60.98-.48-6.76 57.62-23.4 20.21-97.3.76-23.15-24.61z" fill="url(#a)"/><path class="cls-1" d="M442.51 153.82c-.29-.49-3.04-4.94-9.29-10.95l-2.84-2.73-.16-.12s-.09-.09-.14-.13l-3.05-2.44c-12.09-9.71-27.11-17.29-44.65-22.54-.12-.04-.22-.1-.3-.19-7.25-8.29-35.49-35.35-94.64-35.69-17.73-.1-34.53 1.08-49.94 3.5l-16.27 2.56h-.1c-.06 0-.11 0-.16-.02-17.53-4.61-33.65-6.99-47.92-7.08-22.36-.13-32.5 5.49-33.59 6.13l-1.97 1.17c-.49.29-.82.78-.9 1.34l-.34 2.27c-1.5 9.91.65 20.18 6.38 30.53 4.74 9.68 9.94 16.67 9.94 16.67s-14.3 8.8-28.03 17.09l-48.4.19c-.3 2.72-1.81 16.24-1.87 16.76l-4.42 37.77 10.82-.08-6.99 59.59-10.82.08-6.32 53.92 84.48-.66-8.95 76.3 23.48 24.97 97.74-.76 23.7-20.47 6.85-58.43-62.06.49-2.84 24.21-21.65.17 6.88-58.67 21.65-.17-2.17 18.54 61.48-.48c1.01-3.84.95-4.96 3.27-11.07 5.89-15.55 13.98-23.42 31.81-18.79 8.43 2.19 19.42 6.78 35.67 6.62 7.85-.08 24.83-3.75 33.15-13.54l4.3-6.18s-1.18-.7-1.65-.97l-5.91-3.34c-.3-.17-.42-.55-.27-.86 0 0 12.04-32.55 11.91-32.64-.29-.19-14.02 14.43-25.36 19.84 0 0-6.58-8.29-9.35-11.53-7.68-8.99-16.35-17.88-33.79-21.92l-2.3-.53c-.37-4.86-.51-10.95-.47-17.18.02-2.78.25-4.16.42-4.8h.4c.86 0 4.91.64 14.11 3l15.82 4.06c.4.1 9.87 2.49 16.7 2.53 4.29.02 8.59-.36 12.78-1.15.04 0 .09-.01.13-.01.35 0 .63.27.66.61 1.3 14.65-4.77 32.84-4.19 32.85.58 0 15.3-18.36 15.3-18.36 2.32-3.37 6.88-8.88 12.24-24.56.05-.14.14-.26.26-.33 2.86-1.84 5.61-3.9 8.18-6.11l.96-.82s.07-.07.11-.1l.12-.1c13.66-10.83 23.25-31.72 23.32-43.7v-1.88l-.95-1.61z" fill="none" stroke="#fff" stroke-miterlimit="10" stroke-width="9.81"/><path class="cls-2" d="M200.89 260.55l.12-.77c.29.26.58.52.86.78h-.98z" fill="#f15623"/><path class="cls-3" d="M272.22 312.58l3.54-30.31-13.84-14.71-65.87.52 3.63-30.95-8.8-9.36 10.98-9.48 4.31-36.74-13.78-14.65-97.94.91c-1.81.01-3.14.04-3.86.18l-1.01.2-.17.95c-.06.32-.09.75-.13 1.28-.04.49-.08 1.07-.16 1.75l-2.54 21.68 10.82-.08-10.26 87.52-10.82.08-3.05 25.99 84.48-.66-10.11 86.2 14.25 15.15 85.07-.67 15.73-13.59 4.38-37.33-31.83.25-2.84 24.21-51.88.41 10.4-86.6 51.64-.41-2.17 18.54 31.84-.25zm-109.29-31.93L118 281l4.44-37.83s28.4-.23 41.71-.39l3.3-.04-4.52 37.9zm8.31-64.08l-45.73.36 2.75-23.44 45.73-.36-2.75 23.44z" fill="#171717"/><path class="cls-3" d="M129.07 249.87l-2.85 24.32 30.09-.24 2.9-24.37c-8.74.1-23.83.23-30.14.28z" fill="#171717"/><path d="M217.34 198.67c-.98 4.05-4.68 21.39 6.93 36.9 7.44 9.94 18.2 15.17 22.3 16.97 4.13 1.81 7.85 2.9 10.61 3.57-6.79-3.89-18.6-11.78-27.82-25.38-8.75-12.89-11.22-25.08-12.02-32.07z"/><path class="cls-3" fill="#171717" d="M135.47 199.52l29.23-.25-1.42 11.28-29.24.24 1.43-11.27"/><g fill="#171717"><path class="cls-3" d="M441.75 154.09c-.29-.48-3.01-4.89-9.2-10.84l-2.79-2.69-.16-.12-.16-.15-3.05-2.44c-12.04-9.66-27-17.22-44.47-22.45-.21-.06-.4-.18-.55-.35-7.21-8.24-35.31-35.17-94.24-35.51h-2.14c-16.9 0-32.95 1.17-47.71 3.49l-16.27 2.56h-.42l-.06-.02c-17.48-4.6-33.56-6.98-47.78-7.06H172c-26.69-1.3-35.4 8.1-35.4 8.1-1.48 9.8.35 22.54 6.04 32.79 4.68 9.54 10.35 16.32 10.39 16.39l.28.45-.45.28c-.14.09-13.53 8.57-27.06 16.63l-49.66.19c-.3 2.72-1.81 16.24-1.87 16.76l-4.42 37.77 10.82-.08-6.99 59.59-10.82.08-6.32 53.92 84.48-.66-8.95 76.3 23.48 24.97 97.74-.76 23.7-20.47 6.85-58.43-62.06.49-2.84 24.21-21.65.17 6.88-58.67 21.65-.17-2.17 18.54 61.48-.48c.34-3.52 4.14-15 5.69-18.67 4.7-11.12 15.48-17.9 34.61-11.04 9.16 3.28 18.08 5.93 29.59 5.93h.55c7.04-.07 24.31-3.43 32.72-13.32l3.97-5.71c-.38-.22-.87-.52-1.14-.67l-5.91-3.34c-.55-.31-.76-1-.51-1.51 2.75-7.43 9.27-25.11 11.29-30.79-.24.22-.49.46-.76.71-4.56 4.23-15.22 14.12-24.02 18.32s-8.77-11.23-12.36-14.87c-7.45-7.55-15.12-15.86-30.31-19.38l-2.68-.62-.03-.39c-.37-4.88-.54-10.52-.5-16.76.01-2.76.24-4.21.43-4.93l.1-.38.39-.02h.43c.95 0 5.01.65 14.24 3.01l15.81 4.06c.21.05 2.84.72 6.27 1.35 1.24.28 2.51.5 3.81.62 2.19.31 4.46.53 6.49.54h.37c4.13 0 8.27-.38 12.3-1.14l.24-.02c.62 0 1.13.48 1.19 1.1.97 10.95-2.09 23.65-3.56 29.75-.14.57-.27 1.13-.39 1.62 2.62-2.95 9.42-11.32 14.08-17.14.24-.35.5-.72.78-1.12 2.47-3.48 6.61-9.31 11.39-23.32.09-.25.25-.46.47-.61 2.84-1.83 5.57-3.87 8.13-6.06l1.21-1.03c13.54-10.73 23.05-31.43 23.12-43.29v-1.72l-.87-1.48zM367.04 269c-.95.6-5.43 3.41-6.25 3.89-.26-.58-2.92-6.44-2.92-6.44s-8.28.07-11.51.1c-.28-1.4-2.11-10.6-2.11-10.6s-9.1 1.6-10.63 1.86c-2.52-3.56-4.89-8.68-6.2-19.12 20.5 4.75 20.75 11.28 39.62 30.3zm47.53-71.48c-2.94 2.53-6.15 4.85-9.61 6.89-5.17 16.38-11.98 25.06-11.98 25.06s2.6-10.64-.93-19.28c-5.69 1.8-11.86 2.81-18.43 2.78-.3 0-.59 0-.88-.01-4.41-.1-8.15-.79-11.36-1.88-9.33-4.19-16.51-13.65-16.51-23.86 0-12.83 9.37-23.37 21.85-24.72l-.53-16.85-6.89 3.01.21 9.3c-12.14 4.12-20.69 15.64-20.69 29.25 0 7.87 2.98 15.04 7.83 20.51l-3.11-.96c-4.74-1.21-15.11-4.37-17.99-4.38-5.98-.03-6.06 4.58-6.1 12.49-.21 35.29 5.95 43.11 11.85 49.99l7.69-1.34 1.88 9.46 12.88-.11 4.2 9.28s10.58-4.06 27.34-18.13l-8.86 18.15 7.2 4.07s-10.28 11.58-29.89 10.33c-19.08-1.49-28.09-5.98-37.21-7.68-10.74-2.28-23.25.72-29.42 12.89-3.32 6.55-6.49 16.39-6.91 17.66l-1.51.05-46.63.37 2.17-18.54-36.86.29-8.52 72.66 36.86-.29 2.84-24.21 46.86-.37-5.61 47.86-19.72 17.03-91.35.71-18.83-20.02 9.54-81.29-84.48.66 4.69-39.93 10.82-.08 8.63-73.58-10.82.08 3.48-29.69c.07-.58 1.21-10.83 1.21-10.83l38.78-.15c7.68-.08 5.63-.13 8.9-1.79l26.9-16.03c.27-.16.61-.19.9-.07 0 0 21.16 9.48 28.26 11.79 0 0-49.7-30.86-44.5-65.28 0 0 31.36-16.48 112.87 15.11-5.51-4.73-11.93-8.61-20.54-13.48 15.89-2.68 33.52-4.22 52.88-4.11 65.29.38 90.93 34.98 90.93 34.98 21.07 6 35.34 14.62 44.5 21.97-7.07 3.83-10.38 11.69-10.42 17.66-.03 5.42 3.95 15.14 3.89 26.17-.03 4.63-.86 8.08-1.72 10.42zm6.16-7.9c3.09-11.82-3.25-21.7-3.21-29.1.05-8.56 7.79-12.39 10.37-13.43 5.8 5.57 8.18 9.55 8.18 9.55-.05 9.14-5.52 21.99-15.34 32.97z"/><path class="cls-3" d="M319.52 120s17.37.57 38.61 6.59l.56 6.25 7.32 2.3-.97-13.28S348 111.55 319.52 120z"/></g></svg>