<?xml version="1.0" encoding="UTF-8"?><svg id="Layer_1" xmlns="http://www.w3.org/2000/svg" version="1.1" viewBox="0 0 1080 1080">    <defs>    <style>      .st0 {        fill: #ffb81c;      }      .st1 {        fill: #2a5234;      }    </style>  </defs>  <g id="Layer_11">    <g id="Layer_111" data-name="Layer_11">      <g>        <path id="rect2417" class="st0" d="M150.5,238.7L0,677.6h402.9l-56.1,163.7h582.8l38.1-111h-424.2c10.9-31.7,40.6-52.9,74.1-52.9h368.3l38.1-111h-424.2c10.9-31.7,40.6-52.9,74.1-52.9h368.3l38.1-111-827.2.2h0c10.9-31.7,40.6-52.9,74.1-52.9h368.3l38.1-111H150.5ZM440.9,566.6h-244.3c10.9-31.7,40.6-52.9,74.1-52.9h188.3l-18.1,52.9Z"/>        <path class="st1" d="M367.7,826.3l56.1-163.7H21L161.2,253.7h551.1l-27.8,81h-357.6c-39.9,0-75.3,25.3-88.3,63.1l-6.8,19.9,827.2-.2-27.8,81h-357.6c-39.9,0-75.3,25.3-88.3,63.1l-6.8,19.9h424.2l-27.8,81h-357.6c-39.9,0-75.3,25.3-88.3,63.1l-6.8,19.9h424.2l-27.8,81H367.7v-.2ZM270.7,498.7c-39.9,0-75.3,25.3-88.3,63.1l-6.8,19.9h276l28.4-82.9h-209.3Z"/>      </g>    </g>  </g></svg>