<?xml version="1.0" encoding="utf-8"?><svg xmlns="http://www.w3.org/2000/svg" viewBox="0 0 200 200"><path class="st0" d="M76.3 199.9c-3.5 0-7.1-.2-10.5-.5-1 0-22.1-.6-48.7-36.1-3-4.7-3.9-8.1-2.8-10.2.3-.6 1.3-1.9 3.5-1.9 1.5 0 3.3.6 5.8 2 .4.2 8.6 4.2 20.6 6.4C35 154.2 24 146 16.3 134.9c-.3-.3-6.8-9.2-4.7-20.1 1.2-6.4 5.2-12.1 11.7-16.9-1.8-2-4.3-4.9-6.7-8.4-6.5-9.7-9.3-19.2-7.9-27.5.2-2.4 7.8-22.3 33.7-38.9.2-.1 24.7-16.5 64.7-22 .5-.1 5.2-.7 13.7-.7 2 0 4.2 0 6.6.1 1.3 0 2.6.1 4.1.1 11.6.4 29 .9 50.2 6.6l9.5 2.7-8.4 5.6c-.2.1-20.6 13.5-26.1 30.6-4.2 12.9-1.7 28.1 7.4 44.9l2.6 4.9-1.5.5 1 .8c1.9 1.5 11.1 9.2 10.5 16.7-.1 1.1-.4 2.1-.8 3 .4.4.8 1 1 1.6.4.7.9 2.5-.5 5.3-.2.5-6.2 13.5-17.8 23.9 5.7 2.8 17.3 9.4 26.7 19.5 1.7 2.1 2.4 5.2 0 7.1-.8.6-2.1 1.1-5.8 1.1h-1.8c-4.9 0-22.4.7-42 9.8 0 0-27.6 14.7-59.4 14.7z" fill="#FFF"/><path class="st0" d="M29.8 98S10.3 80.2 13.2 62.7c0 0 5.8-19.2 31.7-35.7 0 0 24.6-16 62.8-21.3 0 0 27.6-6.2 72.7 6 0 0-49.7 27.4-20.4 81.6 0 0-28.3 8.9-66.5-6.7 0 0-48.3-23.7-54.3 5.4l-9.4 6z" fill="#FFF"/><path class="st1" d="M58.3 163.7c-20.6-.3-36-8.1-36-8.1-10.9-6.1-3 6.1-3 6.1 26.2 35 46.9 35 46.9 35 35.7 3.8 68.7-14.1 68.7-14.1 23.6-11 44.4-10 44.4-10 3.9 0 4.5-.4 4.5-.4 1.4-1.2-.3-3.3-.3-3.3-12.8-13.7-29.7-20.7-29.7-20.7C167 138 174 122.5 174 122.5c1.1-2.2.4-3.1.4-3.1-.5-2.1-4.2-.7-4.2-.7 11.2-6.1-5.7-19.5-5.7-19.5-48 11.3-78.6-14-78.6-14l-1.9-4-13.8-3.4-30.2 12L27.8 98c-24.6 14.9-9.4 35.3-9.4 35.3 14.1 20.2 39.9 30.4 39.9 30.4z" fill="#0A2240"/><g fill="#5F8DB5"><path class="st2" d="M107.6 28.3l7.2-14.1-1.4.1C80.2 15.8 76 19.8 75.8 20l-.1.1-9.6 13.8 4.9-.4-16.4 24.8-5.6.9-5.5 16.2L45 75c27.2-6.8 58.6 2.5 58.9 2.6l1 .3.6-16.9-5.5-.8c.9-21.6 1.4-29.9 2.2-32h5.4zm-7-1c-.1.3-1.8 6.5-2.4 33.6v.7l5.6.8-.5 13.3c-3.3-.9-13.4-3.5-26.7-4.4l1.6-13.1 5.8.3.1-1.6-13.1-.7-.8 1.6 6.4.3L74.5 71c-2.4-.1-5-.1-7.6-.1-6.8 0-14 .6-20.9 2.2l4.2-12.4 5.3-.9 18.7-28.4-5.1.5 7.7-10.7c.9-.5 6.6-3.9 35.2-5.2l-5.5 10.7h-5.8l-.1.6z"/><path class="st2" d="M85.3 45.2l1.6-12.7-9.4 12.7h7.8zm-1.4-1.6h-3.2l3.8-5.1-.6 5.1z"/></g><path class="st1" d="M105.5 24.8l3.2-6.5c-20 .5-30.6 4.3-30.6 4.3L74 28.4l7.5-1.6C71.1 38.4 57.8 61.4 57.8 61.4l-5.8 1-2.4 7c7.6-1.8 23-.8 23-.8l1.2-7.5-8-.1 3.9-7.2c11.9-.3 17.5.6 17.5.6v7.5l-6.7-.6-.7 7.7s10.7.5 21.4 3.5l.3-8.5-4.7-.8c-.8-20.6 2.4-38.6 2.4-38.6h6.3zm-18.3 23H74c4-9 14.7-19.7 14.7-19.7l-1.5 19.7z" fill="#0A2240"/><path class="st0" d="M144.7 156.5c-5.5-2.2-9-8.5-9-8.5l-7.6-14.8c23.6-3.8 30.1-8.8 30.1-8.8-15.3 4.5-30.8 6.1-30.8 6.1l.9-2.8-4-8-5.6-1.9-2.3 4.8 3.8 8.8-7.2.6.6-3.2-3.4-7.5-6.3-2.6-2.5 5.4 3.9 8.4-7.4.2 1-3-4.3-8.4-6.1-1.5-2.6 4.7 3.9 8.7h-8l1.4-3.6-3.5-7.8-6.6-2-2.9 5.1 3.5 8.4c-27.5-.3-49.7-7.5-49.7-7.5 17.2 10.5 56 10.9 56 10.9l12.3 23c2.3 4.3 1.2 8.5 1.2 8.5-30.6 11.4-65.8-4.1-65.8-4.1-1.9-.8-2.3-.5-2.3-.5-.5.2.4 1 .4 1 12.1 11.1 40.3 12.5 40.3 12.5 18.7.5 33.6-5.5 33.6-5.5 5-2 12.5-4.6 12.5-4.6 34.1-11.4 55.2-5.9 55.2-5.9-11.1-6.1-22.7-4.6-22.7-4.6zm-65.1-24.7H76l-3.2-7.2 1.2-2.4 3.3 1 2.9 6.5-.6 2.1zm39-8.9l1.2-2.7 3.2 1.2 2.9 6.2-.6 2.6-3.1.2-3.6-7.5zm-14.8 1l1.2-2.6 3.7 1.6 2.3 5.7-.3 2.5-3.5.1-3.4-7.3zm-15.2.7l1.2-2.4 3.4 1.1 2.9 6.4-.6 2.2h-3.6l-3.3-7.3zm18.4 39.6l-3.3 1.1c-3.3-.9-7.7-6.7-7.7-6.7l-12.2-22.3h11.8l10.2 19.4c2.6 4.8 1.2 8.5 1.2 8.5zm13.3-4.1l-3.5 1.1c-3.1-1.3-7-5.8-7-5.8l-10.9-19.6 11.5-.4 8.8 16.4c2.4 4.7 1.1 8.3 1.1 8.3zm14-2.7l-3.7.7s-5.4-2.1-8.7-8l-8.2-15.1 11.1-1.2 7.5 14.1s3.1 5.1 2 9.5z" fill="#FFF"/><path class="st2" d="M22.4 159.2s31.3 18.8 69.7 7.7c0 0 .8-1.7-.8-5.3 0 0-30.4 11-68.9-2.4zm76.3 0l5.8-2.2s1.5 2.6 1.3 5.9l-1.8.6s-3.2-1.8-5.3-4.3zm12.8-4.8l6-1.7s1.6 2.3 1.4 5.9l-2 .5s-3.2-1.4-5.4-4.7zm13.1-3.9l6.8-1.2s1.6 2.8 1.4 6.9l-1.9.3s-3.9-2.2-6.3-6zm14-1.6s2.3 4.3 6.8 6c0 0 7.3-1.5 17.3 2.3 0 0-5.3-6.7-24.1-8.3z" fill="#5F8DB5"/><path class="st2" d="M30.7 170.3s20.2 12.2 53.1 7.5c0 0 11.4-2 20.7-5.7 0 0 19.3-8.7 42-10.5 0 0 13.6-1.1 23.4 2.6.6.2 1.9 1-1 .4 0 0-13-3.1-38.5 3.4 0 0-12.6 3.9-22.6 8.8 0 0-15.6 7.4-32.3 7.8s-35.5-4.1-44.8-14.3z" fill="#5F8DB5"/><path class="st0" d="M46 184s24.8 11.3 55.8 2.4c0 0 13.2-4 21.4-8 0 0 17.2-8.2 31.9-10.3 0 0 4.7-.8 11-1.1 0 0 2.5 0 2.5-.2 0-.4-2.7-.8-2.7-.8s-19.6-3.8-43 6.5c0 0-23.1 10.4-35.1 12.6 0 0-12.8 4.1-40.1-1.3.2 0-1.7-.5-1.7.2z" fill="#FFF"/><path class="st2" d="M64 191.9s24.5 6.6 51.8-4.7c0 0 14.3-5.9 16.6-7 0 0 7.2-3.7 26.3-8.3 0 0 6.7-1.4 4.6-1.9 0 0-9.4-2.9-34 7.8 0 0-16.6 7.5-26.5 10 0 0-19.4 5.9-36.2 4-.1-.1-2.5-.5-2.6.1z" fill="#5F8DB5"/><path class="st1" d="M180.9 9.8c-23.5-6.3-42.1-6.2-53.7-6.7-12.6-.5-19.5.5-19.8.6-37.7 5.3-62 20.5-63.6 21.7C18.5 41.7 11.5 61 11.3 62.5c-1.2 7.6 1.3 16.4 7.5 25.5 4.6 6.7 9.5 11.2 9.7 11.4l1.1 1L41 93.2l.2-.8c1.1-5.3 3.7-8.9 7.9-10.9 14.7-7.2 43.4 6.7 43.7 6.8l.1.1c38.3 15.7 66.6 7.1 67.8 6.8l2.2-.7-1.1-2c-9.5-17.5-12-33.3-7.6-47 5.8-18.1 27-31.9 27.2-32l3.6-2.4-4.1-1.3zm-30.4 34.3c-4.6 14.1-2.3 30.2 6.8 47.9-2.9.7-8.6 1.7-16.3 1.9-10.6.2-27.2-1.2-46.5-9.1-1.9-.9-30.8-14.7-47-6.8-5.1 2.5-8.6 7.3-10 13.6l-7 4.2C26.5 92 12.8 77 15.1 63v-.2c0-.1 6.3-18.6 30.8-34.3l.1-.1c.2-.1 18.9-15.3 51.6-19.4 6.8-.8 18.4-2.1 37.4-2 10.8.3 24.5 1.3 40.6 5.4-5.7 3.7-20.6 17.8-25.1 31.7z" fill="#0A2240"/></svg>