<?xml version="1.0" encoding="UTF-8"?><svg id="Layer_1" data-name="Layer 1" xmlns="http://www.w3.org/2000/svg" viewBox="0 0 851.01 659.56">  <defs>    <style>      .cls-1 {        fill: #1e3d79;      }      .cls-2 {        fill: #fff;      }    </style>  </defs>  <polygon class="cls-2" points="598.28 27.45 598.28 174.85 630.72 174.85 588.6 395.95 501.92 27.45 349.1 27.45 262.43 395.95 220.3 174.85 252.76 174.85 252.76 27.45 27.47 27.45 27.47 174.85 68.74 174.85 170.55 632.09 328.51 632.09 425.52 264.68 522.49 632.09 680.46 632.09 782.27 174.85 823.54 174.85 823.54 27.45 598.28 27.45"/>  <g>    <path class="cls-1" d="M570.81,0v200.4L523.66,0h-196.32l-47.12,200.4V0H0v202.31h46.72l101.81,457.25h201.14l75.84-287.3,75.83,287.3h201.15l101.81-457.25h46.71V0h-280.19ZM597.53,202.31l-11.75,61.71-14.52-61.71h26.27ZM279.76,202.31l-14.5,61.71-11.77-61.71h26.27ZM823.54,174.85h-41.27l-101.81,457.24h-157.97l-96.97-367.41-97.01,367.41h-157.96L68.74,174.85H27.47V27.45h225.29v147.41h-32.46l42.13,221.1L349.1,27.45h152.81l86.69,368.51,42.12-221.1h-32.45V27.45h225.27v147.41Z"/>    <polygon class="cls-1" points="717.62 633.74 726.18 633.74 726.18 659.56 729.27 659.56 729.27 633.74 738.27 633.74 738.27 630.64 717.62 630.64 717.62 633.74"/>    <polygon class="cls-1" points="754.8 654.17 747.39 630.64 742.4 630.64 742.4 659.56 745.52 659.56 745.52 634.99 753.25 659.56 756.35 659.56 764.11 634.99 764.11 659.56 767.18 659.56 767.18 630.64 762.22 630.64 754.8 654.17"/>  </g></svg>