<?xml version="1.0" encoding="UTF-8"?>
<svg xmlns="http://www.w3.org/2000/svg" xmlns:xlink="http://www.w3.org/1999/xlink" width="90px" height="90px" viewBox="0 0 90 90" version="1.1">
<g id="surface1">
<path style=" stroke:none;fill-rule:nonzero;fill:rgb(1.568628%,11.764706%,25.882354%);fill-opacity:1;" d="M 82.4375 50.695312 C 81.738281 50.695312 81.171875 51.257812 81.171875 51.957031 C 81.171875 52.65625 81.738281 53.222656 82.4375 53.222656 C 83.128906 53.214844 83.683594 52.652344 83.683594 51.957031 C 83.683594 51.265625 83.128906 50.703125 82.4375 50.695312 Z M 82.4375 52.953125 C 81.886719 52.953125 81.441406 52.507812 81.441406 51.960938 L 81.441406 51.957031 C 81.441406 51.695312 81.546875 51.441406 81.734375 51.253906 C 81.917969 51.070312 82.171875 50.964844 82.4375 50.964844 C 82.699219 50.964844 82.953125 51.070312 83.136719 51.253906 C 83.324219 51.441406 83.429688 51.695312 83.429688 51.957031 C 83.429688 52.507812 82.984375 52.953125 82.4375 52.953125 Z M 82.957031 51.664062 C 82.957031 51.429688 82.761719 51.238281 82.527344 51.238281 L 81.917969 51.238281 L 81.917969 52.679688 L 82.1875 52.679688 L 82.1875 52.09375 L 82.382812 52.09375 L 82.65625 52.679688 L 82.957031 52.679688 L 82.667969 52.070312 C 82.839844 52.007812 82.953125 51.847656 82.957031 51.664062 Z M 82.527344 51.824219 L 82.1875 51.824219 L 82.1875 51.507812 L 82.527344 51.507812 C 82.613281 51.507812 82.683594 51.578125 82.683594 51.664062 C 82.683594 51.753906 82.613281 51.824219 82.527344 51.824219 Z M 82.527344 51.824219 "/>
<path style=" stroke:none;fill-rule:nonzero;fill:rgb(100%,100%,100%);fill-opacity:1;" d="M 21.828125 53.128906 L 27.621094 53.128906 L 25.648438 57.894531 L 30.503906 57.894531 L 32.476562 53.128906 L 46.746094 53.128906 L 46.332031 54.128906 C 45.382812 56.414062 45.511719 59.351562 46.484375 60.90625 L 52.007812 69.761719 L 56.285156 63.550781 L 63.289062 63.550781 L 67.113281 58.847656 L 58.246094 58.847656 L 55.570312 62.140625 L 50.242188 57.710938 C 50.125 57.601562 49.988281 57.023438 50.207031 56.488281 L 52.632812 50.632812 C 52.632812 50.632812 53.144531 53.128906 56.382812 53.128906 L 75.625 53.128906 C 76.539062 53.128906 79.320312 53.128906 80.394531 50.539062 C 81.367188 48.179688 79.914062 46.886719 79.914062 46.886719 L 81.449219 46.886719 L 83.195312 42.667969 L 73.789062 42.667969 C 72.601562 42.667969 71.5 42.96875 70.632812 43.488281 L 75.074219 32.765625 L 70.21875 32.765625 L 65.34375 44.539062 C 65.34375 44.539062 64.472656 42.667969 61.621094 42.667969 L 55.933594 42.667969 L 65.175781 20.339844 L 60.324219 20.339844 L 51.078125 42.667969 L 39.207031 42.667969 C 36.179688 42.664062 33.285156 43.929688 31.234375 46.160156 C 31.234375 46.160156 31.210938 42.667969 27.066406 42.667969 L 16.503906 42.667969 C 12.285156 42.667969 7.929688 45.1875 6.597656 48.40625 C 5.65625 50.675781 6.980469 53.128906 9.992188 53.128906 L 14.105469 53.128906 C 15.816406 53.128906 17.636719 51.988281 18.421875 51.433594 C 18.421875 51.433594 19.296875 53.128906 21.828125 53.128906 Z M 21.828125 53.128906 "/>
<path style=" stroke:none;fill-rule:nonzero;fill:rgb(100%,100%,100%);fill-opacity:1;" d="M 63.160156 63.28125 L 54.992188 63.28125 L 58.375 59.121094 L 66.542969 59.121094 Z M 58.773438 61.480469 L 62.304688 61.480469 L 62.761719 60.917969 L 59.230469 60.917969 Z M 39.503906 42.140625 C 38.847656 42.140625 38.40625 41.972656 38.109375 41.761719 L 37.980469 42.074219 L 35.988281 42.074219 L 35.90625 41.832031 L 35.808594 42.074219 L 29.0625 42.074219 C 28.828125 42.121094 28.589844 42.140625 28.351562 42.140625 C 28.121094 42.140625 27.921875 42.117188 27.75 42.074219 L 25.445312 42.074219 L 25.386719 41.527344 L 25.195312 41.527344 L 24.707031 42.074219 L 19.21875 42.074219 L 19.460938 37.820312 L 25.101562 37.820312 L 26.023438 34.976562 L 22.632812 32.511719 L 26.824219 32.511719 L 28.121094 28.523438 L 29.417969 32.511719 L 37.707031 32.511719 L 39.003906 28.523438 L 40.300781 32.511719 L 48.589844 32.511719 L 49.886719 28.519531 L 51.179688 32.511719 L 55.375 32.511719 L 51.984375 34.976562 L 53.277344 38.960938 L 52.28125 38.238281 L 50.691406 42.074219 L 48.695312 42.074219 L 48.617188 41.835938 L 48.519531 42.074219 L 46.074219 42.074219 L 46.078125 42.0625 C 45.839844 42.117188 45.59375 42.140625 45.351562 42.140625 C 44.367188 42.140625 43.894531 41.738281 43.667969 41.402344 C 43.648438 41.371094 43.628906 41.339844 43.613281 41.308594 L 43.292969 42.074219 L 40.792969 42.074219 L 40.839844 41.964844 C 40.359375 42.09375 39.839844 42.140625 39.503906 42.140625 Z M 26.921875 37.820312 L 27.488281 37.820312 L 27.558594 38.527344 C 27.996094 38.039062 28.675781 37.757812 29.453125 37.757812 C 29.601562 37.753906 29.75 37.765625 29.898438 37.789062 L 28.121094 36.5 L 26.894531 37.390625 Z M 37.160156 37.835938 L 37.21875 38.011719 L 37.300781 37.820312 L 39.742188 37.820312 L 39.730469 37.851562 C 39.984375 37.789062 40.25 37.753906 40.523438 37.753906 C 40.601562 37.753906 40.671875 37.757812 40.742188 37.761719 L 39.003906 36.5 Z M 48.066406 37.820312 L 49.867188 37.820312 L 49.929688 38.011719 L 50.007812 37.820312 L 51.707031 37.820312 L 49.886719 36.5 Z M 42.023438 37.820312 L 45.75 37.820312 C 45.96875 37.777344 46.195312 37.753906 46.421875 37.753906 C 46.585938 37.753906 46.738281 37.765625 46.875 37.789062 L 47.789062 34.976562 L 44.445312 32.546875 L 41.101562 34.976562 Z M 35.125 37.820312 L 35.984375 37.820312 L 36.90625 34.976562 L 33.5625 32.546875 L 30.21875 34.976562 L 31.140625 37.820312 Z M 35.125 37.820312 "/>
<path style=" stroke:none;fill-rule:nonzero;fill:rgb(78.431374%,6.27451%,18.039216%);fill-opacity:1;" d="M 58.804688 60.019531 L 56.882812 62.382812 L 62.730469 62.382812 L 64.652344 60.019531 Z M 26.441406 36.605469 L 28.121094 35.386719 L 29.800781 36.605469 L 29.160156 34.632812 L 30.839844 33.414062 L 28.761719 33.414062 L 28.121094 31.4375 L 27.480469 33.414062 L 25.402344 33.414062 L 27.082031 34.632812 Z M 37.324219 36.605469 L 39.003906 35.386719 L 40.683594 36.605469 L 40.042969 34.632812 L 41.722656 33.414062 L 39.644531 33.414062 L 39.003906 31.4375 L 38.363281 33.414062 L 36.285156 33.414062 L 37.964844 34.632812 Z M 50.527344 33.414062 L 49.886719 31.4375 L 49.246094 33.414062 L 47.167969 33.414062 L 48.847656 34.632812 L 48.207031 36.605469 L 49.886719 35.386719 L 51.566406 36.605469 L 50.925781 34.632812 L 52.605469 33.414062 Z M 22.308594 39.21875 L 22.3125 39.21875 L 22.1875 41.175781 L 22.863281 41.175781 L 24.75 38.71875 L 24.199219 38.71875 L 22.769531 40.640625 L 22.761719 40.640625 L 22.894531 38.71875 L 22.199219 38.71875 L 20.765625 40.640625 L 20.757812 40.640625 L 20.902344 38.71875 L 20.3125 38.71875 L 20.171875 41.175781 L 20.835938 41.175781 Z M 26.203125 40.625 L 26.257812 41.175781 L 26.910156 41.175781 L 26.671875 38.71875 L 25.980469 38.71875 L 23.710938 41.175781 L 24.300781 41.175781 L 24.789062 40.625 Z M 26.105469 39.15625 L 26.171875 40.222656 L 25.152344 40.222656 Z M 27.542969 40.40625 C 27.324219 40.933594 27.644531 41.242188 28.351562 41.242188 C 29.1875 41.242188 29.746094 40.941406 29.957031 40.433594 C 30.402344 39.351562 28.371094 39.992188 28.632812 39.355469 C 28.726562 39.132812 29.027344 39.019531 29.253906 39.019531 C 29.632812 39.019531 29.808594 39.136719 29.695312 39.453125 L 30.246094 39.453125 C 30.433594 38.957031 30.171875 38.65625 29.453125 38.65625 C 28.882812 38.65625 28.257812 38.882812 28.023438 39.449219 C 27.613281 40.4375 29.585938 39.953125 29.355469 40.503906 C 29.28125 40.679688 29.035156 40.875 28.578125 40.875 C 28.144531 40.875 28.003906 40.699219 28.09375 40.40625 Z M 30.769531 41.175781 L 31.203125 40.121094 L 32.542969 40.121094 L 32.105469 41.175781 L 32.65625 41.175781 L 33.671875 38.71875 L 33.121094 38.71875 L 32.707031 39.722656 L 31.371094 39.722656 L 31.785156 38.71875 L 31.234375 38.71875 L 30.214844 41.175781 Z M 33.953125 41.175781 L 34.972656 38.71875 L 34.421875 38.71875 L 33.402344 41.175781 Z M 35.207031 41.175781 L 36 39.257812 L 36.007812 39.257812 L 36.640625 41.175781 L 37.378906 41.175781 L 38.398438 38.71875 L 37.902344 38.71875 L 37.121094 40.605469 L 37.113281 40.605469 L 36.503906 38.71875 L 35.726562 38.71875 L 34.710938 41.175781 Z M 41.464844 39.511719 C 41.703125 38.9375 41.265625 38.65625 40.523438 38.65625 C 39.554688 38.65625 38.808594 39.207031 38.503906 39.941406 C 38.136719 40.832031 38.585938 41.242188 39.503906 41.242188 C 39.859375 41.242188 40.425781 41.171875 40.835938 41.023438 L 41.3125 39.875 L 39.988281 39.875 L 39.832031 40.257812 L 40.617188 40.257812 L 40.421875 40.726562 C 40.117188 40.8125 39.917969 40.839844 39.703125 40.839844 C 38.949219 40.839844 38.886719 40.394531 39.078125 39.9375 C 39.339844 39.296875 39.929688 39.035156 40.445312 39.035156 C 40.71875 39.035156 41.015625 39.167969 40.890625 39.511719 Z M 42.140625 41.175781 L 42.691406 41.175781 L 43.542969 39.121094 L 44.476562 39.121094 L 44.644531 38.71875 L 42.222656 38.71875 L 42.058594 39.121094 L 42.992188 39.121094 Z M 45.351562 41.242188 C 46.253906 41.242188 46.960938 40.808594 47.316406 39.945312 C 47.675781 39.085938 47.324219 38.65625 46.421875 38.65625 C 45.515625 38.65625 44.808594 39.085938 44.453125 39.945312 C 44.097656 40.808594 44.445312 41.242188 45.351562 41.242188 Z M 45.023438 39.945312 C 45.261719 39.367188 45.722656 39.054688 46.253906 39.054688 C 46.789062 39.054688 46.984375 39.367188 46.746094 39.945312 C 46.507812 40.527344 46.050781 40.839844 45.515625 40.839844 C 44.984375 40.839844 44.785156 40.527344 45.023438 39.945312 Z M 49.832031 40.605469 L 49.824219 40.605469 L 49.214844 38.71875 L 48.4375 38.71875 L 47.421875 41.175781 L 47.917969 41.175781 L 48.710938 39.257812 L 48.71875 39.257812 L 49.347656 41.175781 L 50.089844 41.175781 L 51.105469 38.71875 L 50.609375 38.71875 Z M 49.832031 40.605469 "/>
<path style=" stroke:none;fill-rule:nonzero;fill:rgb(1.568628%,11.764706%,25.882354%);fill-opacity:1;" d="M 15.820312 45.71875 L 18.890625 45.71875 L 19.667969 43.835938 L 16.503906 43.835938 C 12.777344 43.835938 8.828125 46.082031 7.679688 48.851562 C 6.988281 50.527344 8.003906 51.957031 9.992188 51.957031 L 14.105469 51.957031 C 15.894531 51.957031 18.074219 50.238281 18.074219 50.238281 L 16.148438 49.425781 C 16.148438 49.425781 15.277344 50.078125 14.332031 50.078125 L 10.386719 50.078125 C 9.894531 50.078125 9.6875 49.601562 9.949219 48.972656 C 10.695312 47.175781 13.324219 45.71875 15.820312 45.71875 Z M 21.828125 51.957031 L 24.214844 51.957031 C 25.070312 51.957031 25.804688 51.460938 25.804688 51.460938 L 25.597656 51.957031 L 27.917969 51.957031 L 29.816406 47.375 C 30.625 45.421875 29.394531 43.835938 27.066406 43.835938 L 21.039062 43.835938 L 20.257812 45.71875 L 26.789062 45.71875 C 28.183594 45.71875 27.757812 46.742188 27.757812 46.742188 L 23.054688 46.742188 C 21.1875 46.742188 19.808594 47.601562 19.367188 48.667969 C 18.617188 50.484375 19.71875 51.957031 21.828125 51.957031 Z M 21.40625 49.347656 C 21.570312 48.949219 22.03125 48.621094 22.433594 48.621094 L 25.6875 48.621094 C 26.433594 48.621094 27.097656 48.339844 27.097656 48.339844 L 26.714844 49.261719 C 26.527344 49.710938 25.878906 50.078125 25.371094 50.078125 L 21.832031 50.078125 C 21.429688 50.078125 21.238281 49.753906 21.40625 49.347656 Z M 54.808594 43.835938 L 54.03125 45.71875 L 61.339844 45.71875 C 62.734375 45.71875 62.308594 46.742188 62.308594 46.742188 L 57.609375 46.742188 C 55.738281 46.742188 54.363281 47.601562 53.921875 48.667969 C 53.167969 50.484375 54.269531 51.957031 56.382812 51.957031 L 58.765625 51.957031 C 59.621094 51.957031 60.359375 51.460938 60.359375 51.460938 L 60.152344 51.957031 L 62.472656 51.957031 L 64.371094 47.371094 C 65.179688 45.421875 63.949219 43.835938 61.621094 43.835938 Z M 61.269531 49.261719 C 61.082031 49.710938 60.429688 50.078125 59.921875 50.078125 L 56.382812 50.078125 C 55.984375 50.078125 55.792969 49.753906 55.957031 49.347656 C 56.125 48.949219 56.585938 48.621094 56.988281 48.621094 L 60.242188 48.621094 C 60.984375 48.621094 61.648438 48.339844 61.648438 48.339844 Z M 65.859375 51.957031 L 73.324219 33.933594 L 71.003906 33.933594 L 63.539062 51.957031 Z M 48.238281 43.835938 L 45.917969 43.835938 L 45.136719 45.71875 L 47.457031 45.71875 Z M 44.875 51.957031 L 47.035156 46.742188 L 44.714844 46.742188 L 42.554688 51.957031 Z M 70.101562 45.707031 C 69.386719 47.433594 70.316406 48.835938 72.183594 48.835938 L 76.890625 48.835938 C 77.234375 48.835938 77.398438 49.117188 77.253906 49.457031 C 77.113281 49.800781 76.71875 50.078125 76.378906 50.078125 L 67.765625 50.078125 L 66.988281 51.957031 L 75.625 51.957031 C 77.234375 51.957031 78.691406 51.589844 79.3125 50.089844 C 80.027344 48.359375 79.097656 46.957031 77.230469 46.957031 L 72.523438 46.957031 C 72.179688 46.957031 72.019531 46.679688 72.160156 46.335938 C 72.304688 45.996094 72.695312 45.71875 73.039062 45.71875 L 80.667969 45.71875 L 81.445312 43.835938 L 73.789062 43.835938 C 72.179688 43.835938 70.589844 44.53125 70.101562 45.707031 Z M 29.722656 56.722656 L 32.417969 50.214844 C 33.445312 47.730469 35.710938 45.71875 39.296875 45.71875 L 41.597656 45.71875 L 40.140625 49.238281 C 39.949219 49.699219 39.410156 50.078125 38.949219 50.078125 L 33.589844 50.078125 L 32.808594 51.957031 L 39.226562 51.957031 C 40.382812 51.957031 41.550781 51.429688 42.203125 49.851562 L 44.695312 43.839844 L 39.207031 43.839844 C 34.902344 43.839844 31.628906 46.519531 30.257812 49.828125 L 27.402344 56.722656 Z M 29.722656 56.722656 "/>
<path style=" stroke:none;fill-rule:nonzero;fill:rgb(1.568628%,11.764706%,25.882354%);fill-opacity:1;" d="M 47.414062 54.578125 C 46.644531 56.429688 46.675781 59 47.476562 60.285156 L 52.058594 67.625 L 55.074219 63.25 L 49.496094 58.613281 C 48.910156 58.125 48.742188 56.96875 49.128906 56.042969 L 63.425781 21.511719 L 61.105469 21.511719 L 51.859375 43.835938 L 49.109375 43.835938 L 48.332031 45.71875 L 51.082031 45.71875 Z M 47.414062 54.578125 "/>
</g>
</svg>
