<?xml version="1.0" encoding="UTF-8"?>
<svg xmlns="http://www.w3.org/2000/svg" xmlns:xlink="http://www.w3.org/1999/xlink" width="90px" height="90px" viewBox="0 0 90 90" version="1.1">
<defs>
<linearGradient id="linear0" gradientUnits="userSpaceOnUse" x1="57.130001" y1="250" x2="442.940002" y2="250" gradientTransform="matrix(0.18,0,0,0.18,0,0)">
<stop offset="0" style="stop-color:rgb(90.588235%,27.45098%,14.117647%);stop-opacity:1;"/>
<stop offset="1" style="stop-color:rgb(94.509804%,34.117647%,14.509804%);stop-opacity:1;"/>
</linearGradient>
</defs>
<g id="surface1">
<path style=" stroke:none;fill-rule:nonzero;fill:url(#linear0);" d="M 23.871094 71.433594 L 25.488281 57.636719 L 10.285156 57.753906 L 11.398438 48.242188 L 13.347656 48.226562 L 14.625 37.308594 L 12.679688 37.324219 L 13.460938 30.632812 C 13.472656 30.542969 13.71875 28.335938 13.789062 27.699219 L 22.441406 27.664062 L 22.464844 27.652344 C 24.910156 26.175781 27.484375 24.589844 27.511719 24.574219 L 27.601562 24.519531 L 27.539062 24.433594 C 27.527344 24.421875 26.597656 23.164062 25.761719 21.449219 C 24.734375 19.601562 24.351562 17.773438 24.617188 16.011719 L 24.679688 15.601562 C 24.691406 15.53125 24.730469 15.46875 24.796875 15.429688 L 25.148438 15.21875 C 25.195312 15.191406 25.617188 14.945312 26.453125 14.699219 C 27.003906 14.523438 27.632812 14.390625 28.328125 14.304688 C 29.167969 14.1875 30.070312 14.128906 31.015625 14.128906 L 31.148438 14.128906 C 33.707031 14.144531 36.601562 14.574219 39.746094 15.402344 L 39.761719 15.40625 L 39.800781 15.40625 L 42.761719 14.945312 C 45.417969 14.527344 48.308594 14.316406 51.355469 14.316406 L 51.734375 14.316406 C 62.34375 14.378906 67.402344 19.222656 68.699219 20.710938 C 68.726562 20.738281 68.757812 20.761719 68.796875 20.773438 C 71.945312 21.714844 74.636719 23.074219 76.800781 24.8125 L 77.351562 25.253906 L 77.378906 25.277344 L 77.410156 25.300781 L 77.910156 25.78125 C 79.027344 26.855469 79.515625 27.648438 79.566406 27.734375 L 79.726562 28 L 79.726562 28.3125 C 79.714844 30.445312 78 34.171875 75.5625 36.101562 L 75.347656 36.289062 C 74.886719 36.683594 74.394531 37.050781 73.882812 37.378906 C 73.84375 37.402344 73.8125 37.445312 73.796875 37.488281 C 72.9375 40.011719 72.191406 41.058594 71.746094 41.6875 C 71.699219 41.757812 71.648438 41.824219 71.609375 41.886719 C 70.769531 42.933594 69.542969 44.441406 69.074219 44.972656 C 69.09375 44.886719 69.117188 44.785156 69.140625 44.683594 C 69.40625 43.585938 69.957031 41.300781 69.78125 39.328125 C 69.773438 39.214844 69.679688 39.128906 69.566406 39.128906 L 69.527344 39.132812 C 68.800781 39.269531 68.054688 39.335938 67.3125 39.335938 L 67.246094 39.335938 C 66.058594 39.328125 64.445312 38.929688 64.261719 38.886719 L 61.414062 38.15625 C 59.757812 37.726562 59.023438 37.613281 58.851562 37.613281 C 58.851562 37.613281 58.792969 37.613281 58.777344 37.613281 L 58.707031 37.617188 L 58.6875 37.6875 C 58.652344 37.816406 58.613281 38.074219 58.609375 38.574219 C 58.601562 39.773438 58.632812 40.84375 58.695312 41.675781 L 58.699219 41.746094 L 59.183594 41.859375 C 62.152344 42.546875 63.523438 44.15625 64.84375 45.710938 L 65.023438 45.917969 C 65.519531 46.5 66.886719 47.839844 66.902344 47.851562 L 66.949219 47.898438 L 67.011719 47.871094 C 68.601562 47.113281 70.4375 45.367188 71.222656 44.621094 L 71.332031 44.519531 C 70.964844 45.550781 69.796875 48.71875 69.300781 50.054688 C 69.257812 50.148438 69.292969 50.273438 69.394531 50.328125 L 70.457031 50.929688 C 70.507812 50.957031 70.597656 51.011719 70.664062 51.050781 L 69.945312 52.078125 C 68.433594 53.859375 65.324219 54.460938 64.054688 54.472656 L 63.90625 54.472656 C 61.675781 54.472656 60.003906 53.976562 58.664062 53.574219 C 58.308594 53.46875 57.972656 53.367188 57.660156 53.285156 C 57.046875 53.125 56.480469 53.046875 55.972656 53.046875 C 54.039062 53.046875 52.796875 54.148438 51.820312 56.730469 C 51.511719 57.546875 51.433594 57.878906 51.34375 58.265625 C 51.316406 58.386719 51.285156 58.511719 51.246094 58.660156 L 40.363281 58.746094 L 40.753906 55.40625 L 36.664062 55.441406 L 35.402344 66.191406 L 39.496094 66.160156 L 40.007812 61.804688 L 50.984375 61.714844 L 49.765625 72.089844 L 45.554688 75.726562 L 28.039062 75.863281 L 23.875 71.433594 Z M 23.871094 71.433594 "/>
<path style="fill:none;stroke-width:9.81;stroke-linecap:butt;stroke-linejoin:miter;stroke:rgb(100%,100%,100%);stroke-opacity:1;stroke-miterlimit:10;" d="M 442.513021 153.819444 C 442.209201 153.320312 439.474826 148.871528 433.224826 142.860243 L 430.381944 140.147569 L 430.230035 140.017361 C 430.230035 140.017361 430.121528 139.930556 430.078125 139.887153 L 427.039931 137.456597 C 414.930556 127.734375 399.913194 120.16059 382.378472 114.908854 C 382.269965 114.865451 382.161458 114.800347 382.074653 114.713542 C 374.826389 106.423611 346.592882 79.361979 287.434896 79.036458 C 269.704861 78.927951 252.907986 80.099826 237.5 82.530382 L 221.223958 85.091146 L 221.137153 85.091146 C 221.072049 85.091146 221.028646 85.091146 220.963542 85.069444 C 203.450521 80.46875 187.326389 78.081597 173.046875 77.994792 C 150.694444 77.864583 140.559896 83.485243 139.453125 84.114583 L 137.5 85.286458 C 137.000868 85.590278 136.675347 86.067708 136.588542 86.631944 L 136.241319 88.91059 C 134.743924 98.806424 136.892361 109.071181 142.621528 119.422743 C 147.374132 129.101562 152.560764 136.08941 152.560764 136.08941 C 152.560764 136.08941 138.259549 144.900174 124.544271 153.190104 L 76.150174 153.385417 C 75.846354 156.09809 74.327257 169.618056 74.262153 170.138889 L 69.856771 207.899306 L 80.664062 207.834201 L 73.676215 267.426215 L 62.868924 267.491319 L 56.532118 321.419271 L 141.015625 320.768229 L 132.074653 397.070312 L 155.555556 422.02691 L 253.298611 421.267361 L 276.996528 400.802951 L 283.832465 342.361111 L 221.788194 342.860243 L 218.945312 367.078993 L 197.287326 367.230903 L 204.166667 308.572049 L 225.824653 308.398438 L 223.654514 326.931424 L 285.134549 326.453993 C 286.132812 322.612847 286.08941 321.506076 288.389757 315.386285 C 294.292535 299.84809 302.387153 291.970486 320.203993 296.592882 C 328.645833 298.784722 339.626736 303.385417 355.881076 303.211806 C 363.736979 303.146701 380.707465 299.479167 389.040799 289.670139 L 393.337674 283.506944 C 393.337674 283.506944 392.144097 282.790799 391.688368 282.530382 L 385.763889 279.188368 C 385.460069 279.014757 385.351562 278.645833 385.503472 278.320312 C 385.503472 278.320312 397.547743 245.789931 397.417535 245.681424 C 397.113715 245.507812 383.398438 260.112847 372.048611 265.538194 C 372.048611 265.538194 365.47309 257.248264 362.695312 253.993056 C 355.013021 245.008681 346.354167 236.111111 328.90625 232.074653 L 326.605903 231.553819 C 326.236979 226.692708 326.106771 220.594618 326.150174 214.366319 C 326.150174 211.588542 326.388889 210.199653 326.5625 209.570312 L 326.953125 209.570312 C 327.821181 209.570312 331.87934 210.199653 341.080729 212.565104 L 356.87934 216.623264 C 357.291667 216.731771 366.753472 219.118924 373.58941 219.162326 C 377.886285 219.184028 382.18316 218.793403 386.371528 218.012153 C 386.414931 218.012153 386.458333 217.990451 386.501736 217.990451 C 386.848958 217.990451 387.131076 218.272569 387.152778 218.619792 C 388.454861 233.268229 382.400174 251.453993 382.96441 251.453993 C 383.550347 251.453993 398.263889 233.094618 398.263889 233.094618 C 400.585938 229.730903 405.143229 224.21875 410.503472 208.550347 C 410.568576 208.398438 410.655382 208.289931 410.763889 208.203125 C 413.628472 206.380208 416.384549 204.318576 418.945312 202.105035 L 419.900174 201.280382 C 419.900174 201.280382 419.986979 201.215278 420.030382 201.171875 L 420.138889 201.085069 C 433.810764 190.256076 443.381076 169.357639 443.467882 157.378472 L 443.467882 155.490451 L 442.513021 153.884549 Z M 442.513021 153.819444 " transform="matrix(0.18,0,0,0.18,0,0)"/>
<path style=" stroke:none;fill-rule:nonzero;fill:rgb(94.509804%,33.725491%,13.725491%);fill-opacity:1;" d="M 36.160156 46.898438 L 36.183594 46.761719 C 36.234375 46.808594 36.285156 46.855469 36.335938 46.902344 L 36.160156 46.902344 Z M 36.160156 46.898438 "/>
<path style=" stroke:none;fill-rule:nonzero;fill:rgb(9.019608%,9.019608%,9.019608%);fill-opacity:1;" d="M 49 56.265625 L 49.636719 50.808594 L 47.144531 48.160156 L 35.289062 48.253906 L 35.941406 42.683594 L 34.359375 41 L 36.335938 39.292969 L 37.109375 32.679688 L 34.628906 30.042969 L 17 30.207031 C 16.675781 30.207031 16.4375 30.214844 16.304688 30.238281 L 16.125 30.273438 L 16.09375 30.445312 C 16.082031 30.503906 16.078125 30.582031 16.070312 30.675781 C 16.0625 30.765625 16.054688 30.867188 16.042969 30.992188 L 15.585938 34.894531 L 17.53125 34.878906 L 15.683594 50.632812 L 13.738281 50.648438 L 13.1875 55.324219 L 28.394531 55.207031 L 26.574219 70.722656 L 29.140625 73.449219 L 44.453125 73.328125 L 47.285156 70.882812 L 48.074219 64.164062 L 42.34375 64.207031 L 41.832031 68.566406 L 32.492188 68.640625 L 34.367188 53.050781 L 43.660156 52.976562 L 43.269531 56.316406 L 49 56.269531 Z M 29.328125 50.515625 L 21.238281 50.578125 L 22.039062 43.769531 C 22.039062 43.769531 27.152344 43.730469 29.546875 43.699219 L 30.140625 43.691406 Z M 30.824219 38.984375 L 22.59375 39.046875 L 23.085938 34.828125 L 31.316406 34.761719 Z M 30.824219 38.984375 "/>
<path style=" stroke:none;fill-rule:nonzero;fill:rgb(9.019608%,9.019608%,9.019608%);fill-opacity:1;" d="M 23.234375 44.976562 L 22.71875 49.355469 L 28.136719 49.3125 L 28.65625 44.925781 C 27.085938 44.941406 24.367188 44.964844 23.234375 44.976562 Z M 23.234375 44.976562 "/>
<path style=" stroke:none;fill-rule:nonzero;fill:rgb(0%,0%,0%);fill-opacity:1;" d="M 39.121094 35.761719 C 38.945312 36.488281 38.277344 39.609375 40.367188 42.402344 C 41.707031 44.191406 43.644531 45.132812 44.382812 45.457031 C 45.125 45.78125 45.796875 45.980469 46.292969 46.101562 C 45.070312 45.398438 42.945312 43.980469 41.285156 41.53125 C 39.710938 39.210938 39.265625 37.015625 39.121094 35.757812 Z M 39.121094 35.761719 "/>
<path style=" stroke:none;fill-rule:nonzero;fill:rgb(9.019608%,9.019608%,9.019608%);fill-opacity:1;" d="M 24.382812 35.914062 L 29.644531 35.867188 L 29.390625 37.898438 L 24.128906 37.941406 L 24.382812 35.914062 "/>
<path style=" stroke:none;fill-rule:nonzero;fill:rgb(9.019608%,9.019608%,9.019608%);fill-opacity:1;" d="M 79.515625 27.734375 C 79.460938 27.648438 78.972656 26.855469 77.859375 25.785156 L 77.355469 25.300781 L 77.300781 25.253906 L 76.75 24.8125 C 74.582031 23.074219 71.890625 21.714844 68.746094 20.773438 C 68.707031 20.761719 68.671875 20.738281 68.648438 20.710938 C 67.347656 19.226562 62.289062 14.378906 51.683594 14.316406 L 51.296875 14.316406 C 48.257812 14.316406 45.367188 14.527344 42.710938 14.945312 L 39.78125 15.40625 L 39.707031 15.40625 L 39.695312 15.402344 C 36.550781 14.574219 33.65625 14.144531 31.09375 14.132812 L 30.960938 14.132812 C 26.15625 13.898438 24.589844 15.589844 24.589844 15.589844 C 24.320312 17.355469 24.652344 19.648438 25.675781 21.492188 C 26.519531 23.210938 27.539062 24.429688 27.546875 24.441406 L 27.597656 24.523438 L 27.515625 24.574219 C 27.488281 24.589844 25.078125 26.117188 22.644531 27.566406 L 13.707031 27.601562 C 13.652344 28.089844 13.378906 30.523438 13.367188 30.617188 L 12.574219 37.417969 L 14.519531 37.402344 L 13.261719 48.128906 L 11.316406 48.144531 L 10.175781 57.847656 L 25.382812 57.730469 L 23.773438 71.464844 L 28 75.957031 L 45.59375 75.820312 L 49.859375 72.136719 L 51.089844 61.621094 L 39.921875 61.707031 L 39.410156 66.066406 L 35.511719 66.097656 L 36.75 55.535156 L 40.648438 55.503906 L 40.257812 58.84375 L 51.324219 58.753906 C 51.382812 58.121094 52.070312 56.054688 52.347656 55.394531 C 53.195312 53.394531 55.132812 52.171875 58.578125 53.40625 C 60.226562 54 61.832031 54.476562 63.902344 54.476562 L 64.003906 54.476562 C 65.269531 54.460938 68.378906 53.859375 69.890625 52.078125 L 70.605469 51.050781 C 70.539062 51.011719 70.449219 50.957031 70.402344 50.929688 L 69.335938 50.328125 C 69.238281 50.273438 69.199219 50.148438 69.246094 50.054688 C 69.742188 48.71875 70.914062 45.535156 71.277344 44.515625 C 71.234375 44.554688 71.191406 44.597656 71.140625 44.640625 C 70.320312 45.402344 68.402344 47.183594 66.816406 47.9375 C 65.234375 48.695312 65.238281 45.917969 64.59375 45.261719 C 63.253906 43.902344 61.871094 42.40625 59.136719 41.773438 L 58.65625 41.664062 L 58.648438 41.59375 C 58.582031 40.714844 58.550781 39.699219 58.558594 38.574219 C 58.5625 38.078125 58.601562 37.816406 58.636719 37.6875 L 58.65625 37.621094 L 58.726562 37.617188 L 58.800781 37.617188 C 58.972656 37.617188 59.703125 37.734375 61.367188 38.15625 L 64.210938 38.890625 C 64.25 38.898438 64.722656 39.019531 65.339844 39.132812 C 65.5625 39.183594 65.792969 39.222656 66.027344 39.242188 C 66.421875 39.300781 66.828125 39.339844 67.195312 39.339844 L 67.261719 39.339844 C 68.003906 39.339844 68.75 39.273438 69.472656 39.136719 L 69.519531 39.132812 C 69.628906 39.132812 69.722656 39.21875 69.730469 39.328125 C 69.90625 41.300781 69.355469 43.585938 69.089844 44.683594 C 69.066406 44.789062 69.042969 44.886719 69.019531 44.976562 C 69.492188 44.445312 70.714844 42.9375 71.554688 41.890625 C 71.597656 41.828125 71.644531 41.761719 71.695312 41.691406 C 72.140625 41.0625 72.886719 40.015625 73.746094 37.492188 C 73.761719 37.445312 73.789062 37.410156 73.832031 37.382812 C 74.34375 37.054688 74.832031 36.6875 75.292969 36.292969 L 75.511719 36.105469 C 77.949219 34.175781 79.660156 30.449219 79.671875 28.3125 L 79.671875 28.003906 L 79.515625 27.738281 Z M 66.066406 48.421875 C 65.894531 48.527344 65.089844 49.035156 64.941406 49.121094 C 64.894531 49.015625 64.417969 47.960938 64.417969 47.960938 C 64.417969 47.960938 62.925781 47.972656 62.34375 47.980469 C 62.292969 47.726562 61.964844 46.070312 61.964844 46.070312 C 61.964844 46.070312 60.328125 46.359375 60.050781 46.40625 C 59.597656 45.765625 59.171875 44.84375 58.9375 42.964844 C 62.625 43.820312 62.671875 44.996094 66.066406 48.417969 Z M 74.621094 35.554688 C 74.09375 36.007812 73.515625 36.425781 72.894531 36.792969 C 71.960938 39.742188 70.738281 41.304688 70.738281 41.304688 C 70.738281 41.304688 71.203125 39.390625 70.570312 37.835938 C 69.542969 38.15625 68.433594 38.339844 67.25 38.335938 C 67.199219 38.335938 67.144531 38.335938 67.09375 38.332031 C 66.300781 38.316406 65.625 38.191406 65.046875 37.996094 C 63.367188 37.238281 62.078125 35.539062 62.078125 33.699219 C 62.078125 31.390625 63.761719 29.492188 66.007812 29.25 L 65.914062 26.21875 L 64.675781 26.757812 L 64.710938 28.433594 C 62.527344 29.175781 60.988281 31.246094 60.988281 33.699219 C 60.988281 35.113281 61.523438 36.40625 62.398438 37.390625 L 61.835938 37.21875 C 60.984375 37 59.117188 36.429688 58.597656 36.429688 C 57.523438 36.421875 57.507812 37.253906 57.5 38.675781 C 57.464844 45.027344 58.570312 46.4375 59.632812 47.675781 L 61.019531 47.433594 L 61.355469 49.136719 L 63.675781 49.117188 L 64.429688 50.785156 C 64.429688 50.785156 66.335938 50.054688 69.351562 47.523438 L 67.757812 50.789062 L 69.054688 51.523438 C 69.054688 51.523438 67.203125 53.609375 63.671875 53.382812 C 60.238281 53.113281 58.617188 52.304688 56.976562 52 C 55.042969 51.589844 52.789062 52.128906 51.679688 54.320312 C 51.082031 55.5 50.511719 57.269531 50.4375 57.5 L 50.164062 57.507812 L 41.769531 57.574219 L 42.160156 54.238281 L 35.527344 54.289062 L 33.992188 67.367188 L 40.628906 67.316406 L 41.140625 62.957031 L 49.574219 62.890625 L 48.5625 71.507812 L 45.015625 74.570312 L 28.570312 74.699219 L 25.183594 71.097656 L 26.898438 56.464844 L 11.691406 56.582031 L 12.535156 49.394531 L 14.484375 49.382812 L 16.039062 36.136719 L 14.089844 36.152344 L 14.71875 30.808594 C 14.730469 30.703125 14.933594 28.859375 14.933594 28.859375 L 21.914062 28.832031 C 23.296875 28.816406 22.929688 28.808594 23.515625 28.507812 L 28.359375 25.621094 C 28.40625 25.59375 28.46875 25.589844 28.519531 25.609375 C 28.519531 25.609375 32.328125 27.316406 33.609375 27.734375 C 33.609375 27.734375 24.660156 22.179688 25.597656 15.980469 C 25.597656 15.980469 31.242188 13.015625 45.914062 18.703125 C 44.921875 17.851562 43.765625 17.152344 42.21875 16.277344 C 45.078125 15.792969 48.25 15.515625 51.734375 15.535156 C 63.488281 15.605469 68.101562 21.832031 68.101562 21.832031 C 71.894531 22.914062 74.464844 24.464844 76.113281 25.785156 C 74.839844 26.476562 74.246094 27.890625 74.238281 28.964844 C 74.230469 29.941406 74.949219 31.691406 74.9375 33.675781 C 74.933594 34.507812 74.78125 35.128906 74.628906 35.550781 Z M 75.730469 34.132812 C 76.289062 32.003906 75.144531 30.226562 75.152344 28.894531 C 75.164062 27.351562 76.554688 26.664062 77.019531 26.476562 C 78.0625 27.480469 78.492188 28.195312 78.492188 28.195312 C 78.484375 29.839844 77.5 32.152344 75.730469 34.128906 Z M 75.730469 34.132812 "/>
<path style=" stroke:none;fill-rule:nonzero;fill:rgb(9.019608%,9.019608%,9.019608%);fill-opacity:1;" d="M 57.511719 21.601562 C 57.511719 21.601562 60.640625 21.703125 64.464844 22.785156 L 64.5625 23.910156 L 65.882812 24.324219 L 65.707031 21.933594 C 65.707031 21.933594 62.640625 20.078125 57.511719 21.601562 Z M 57.511719 21.601562 "/>
</g>
</svg>
