<?xml version="1.0" encoding="UTF-8"?>
<svg xmlns="http://www.w3.org/2000/svg" xmlns:xlink="http://www.w3.org/1999/xlink" width="70px" height="70px" viewBox="0 0 70 70" version="1.1">
<g id="surface1">
<path style=" stroke:none;fill-rule:nonzero;fill:rgb(2.745098%,11.372549%,28.627452%);fill-opacity:1;" d="M 69.984375 35.027344 C 69.984375 54.324219 54.351562 69.957031 35.054688 69.957031 C 15.757812 69.957031 0.125 54.324219 0.125 35.027344 C 0.125 15.730469 15.757812 0.0976562 35.054688 0.0976562 C 54.351562 0.0976562 69.984375 15.730469 69.984375 35.027344 Z M 69.984375 35.027344 "/>
<path style=" stroke:none;fill-rule:nonzero;fill:rgb(84.313726%,5.882353%,15.294118%);fill-opacity:1;" d="M 5.027344 28.070312 L 6.007812 25.582031 L 10.171875 25.46875 C 10.226562 25.46875 10.339844 25.484375 10.492188 25.484375 C 10.644531 25.496094 10.785156 25.496094 10.886719 25.527344 L 10.898438 25.511719 C 10.785156 25.441406 10.589844 25.289062 10.339844 25.054688 L 7.390625 22.144531 L 8.398438 19.601562 L 14.265625 21.921875 L 13.664062 23.445312 L 9.917969 21.964844 C 9.574219 21.828125 9.25 21.671875 8.957031 21.488281 L 8.941406 21.515625 C 9.011719 21.574219 9.140625 21.671875 9.304688 21.8125 C 9.472656 21.949219 9.617188 22.085938 9.75 22.226562 L 12.886719 25.441406 L 12.269531 27.007812 L 7.828125 27.144531 C 7.53125 27.144531 7.183594 27.132812 6.746094 27.09375 L 6.734375 27.121094 C 6.972656 27.171875 7.320312 27.285156 7.757812 27.453125 L 11.484375 28.9375 L 10.914062 30.390625 Z M 5.027344 28.070312 "/>
<path style=" stroke:none;fill-rule:evenodd;fill:rgb(84.313726%,5.882353%,15.294118%);fill-opacity:1;" d="M 16.222656 19.40625 C 15.578125 19.671875 14.949219 19.742188 14.335938 19.632812 C 13.734375 19.519531 13.1875 19.226562 12.703125 18.75 C 12.226562 18.277344 11.917969 17.730469 11.792969 17.128906 C 11.667969 16.53125 11.738281 15.902344 11.988281 15.242188 C 12.242188 14.601562 12.671875 13.972656 13.257812 13.355469 C 13.84375 12.757812 14.476562 12.324219 15.113281 12.058594 C 15.757812 11.804688 16.390625 11.722656 16.988281 11.832031 C 17.605469 11.945312 18.136719 12.226562 18.625 12.703125 C 19.097656 13.171875 19.40625 13.71875 19.519531 14.320312 C 19.632812 14.921875 19.574219 15.550781 19.324219 16.207031 C 19.070312 16.851562 18.652344 17.480469 18.066406 18.09375 C 17.480469 18.722656 16.863281 19.140625 16.222656 19.40625 Z M 17.800781 16.125 C 17.929688 15.746094 17.957031 15.382812 17.871094 15.03125 C 17.785156 14.671875 17.605469 14.363281 17.3125 14.085938 C 17.015625 13.800781 16.695312 13.625 16.347656 13.539062 C 15.984375 13.46875 15.621094 13.496094 15.257812 13.625 C 14.878906 13.761719 14.546875 13.984375 14.210938 14.320312 C 13.886719 14.644531 13.664062 15.003906 13.523438 15.367188 C 13.398438 15.746094 13.371094 16.113281 13.453125 16.460938 C 13.539062 16.824219 13.71875 17.128906 14.015625 17.410156 C 14.308594 17.6875 14.628906 17.871094 14.976562 17.957031 C 15.339844 18.039062 15.703125 18.011719 16.070312 17.871094 C 16.433594 17.730469 16.78125 17.507812 17.101562 17.171875 C 17.453125 16.851562 17.675781 16.503906 17.800781 16.125 Z M 17.800781 16.125 "/>
<path style=" stroke:none;fill-rule:nonzero;fill:rgb(84.313726%,5.882353%,15.294118%);fill-opacity:1;" d="M 19.3125 8.59375 L 21.054688 7.800781 L 25.539062 9.679688 C 25.820312 9.808594 26.070312 9.945312 26.296875 10.128906 L 26.324219 10.113281 L 25.945312 9.292969 L 24.535156 6.199219 L 26.015625 5.519531 L 28.628906 11.261719 L 27.007812 12 L 22.382812 10.113281 C 22.257812 10.058594 22.113281 9.988281 21.964844 9.90625 C 21.828125 9.824219 21.699219 9.738281 21.628906 9.667969 L 21.601562 9.679688 L 21.964844 10.480469 L 23.402344 13.636719 L 21.921875 14.320312 Z M 19.3125 8.59375 "/>
<path style=" stroke:none;fill-rule:nonzero;fill:rgb(84.313726%,5.882353%,15.294118%);fill-opacity:1;" d="M 36.285156 5.488281 L 33.671875 5.730469 L 34.121094 10.617188 L 32.332031 10.785156 L 31.886719 5.886719 L 29.269531 6.121094 L 29.144531 4.738281 L 36.15625 4.09375 Z M 36.285156 5.488281 "/>
<path style=" stroke:none;fill-rule:evenodd;fill:rgb(84.313726%,5.882353%,15.294118%);fill-opacity:1;" d="M 41.914062 9.140625 L 40.128906 8.71875 L 39.625 10.898438 L 37.878906 10.492188 L 39.304688 4.347656 L 43.496094 5.324219 C 44.402344 5.53125 45.015625 5.871094 45.3125 6.339844 C 45.617188 6.800781 45.714844 7.320312 45.574219 7.867188 C 45.492188 8.257812 45.296875 8.59375 44.988281 8.871094 C 44.679688 9.152344 44.277344 9.320312 43.757812 9.363281 L 44.824219 12.113281 L 42.855469 11.652344 Z M 40.378906 7.601562 L 42.417969 8.074219 C 42.8125 8.171875 43.113281 8.144531 43.328125 8.03125 C 43.539062 7.90625 43.660156 7.730469 43.730469 7.476562 C 43.789062 7.238281 43.746094 7.015625 43.621094 6.816406 C 43.480469 6.625 43.226562 6.484375 42.839844 6.382812 L 40.785156 5.914062 Z M 40.378906 7.601562 "/>
<path style=" stroke:none;fill-rule:nonzero;fill:rgb(84.313726%,5.882353%,15.294118%);fill-opacity:1;" d="M 52.101562 15.101562 L 51.433594 16.167969 L 45.984375 12.730469 L 49.347656 7.390625 L 54.742188 10.785156 L 54.070312 11.847656 L 50.199219 9.402344 L 49.515625 10.480469 L 53.261719 12.84375 L 52.632812 13.832031 L 48.886719 11.46875 L 48.160156 12.617188 Z M 53.011719 9.167969 L 51.75 8.367188 L 53.441406 8.199219 L 54.925781 9.125 Z M 53.011719 9.167969 "/>
<path style=" stroke:none;fill-rule:evenodd;fill:rgb(84.313726%,5.882353%,15.294118%);fill-opacity:1;" d="M 56.949219 20.625 L 54.785156 17.859375 L 53.414062 18.175781 L 52.214844 16.652344 L 59.128906 15.242188 L 60.511719 17 L 57.496094 23.390625 L 56.308594 21.878906 Z M 57.523438 19.503906 L 58.390625 17.800781 C 58.460938 17.675781 58.558594 17.507812 58.667969 17.324219 C 58.78125 17.140625 58.878906 16.960938 58.988281 16.808594 L 58.972656 16.792969 C 58.792969 16.863281 58.601562 16.917969 58.402344 16.988281 C 58.195312 17.042969 58.027344 17.101562 57.871094 17.140625 L 56.015625 17.574219 Z M 57.523438 19.503906 "/>
<path style=" stroke:none;fill-rule:nonzero;fill:rgb(84.313726%,5.882353%,15.294118%);fill-opacity:1;" d="M 63.800781 22.425781 L 64.382812 24.113281 L 59.757812 25.738281 L 61.171875 29.773438 L 59.84375 30.234375 L 57.828125 24.507812 Z M 63.800781 22.425781 "/>
<path style=" stroke:none;fill-rule:evenodd;fill:rgb(84.313726%,5.882353%,15.294118%);fill-opacity:1;" d="M 7.589844 44.695312 L 6.664062 41.300781 L 5.28125 41.0625 L 4.777344 39.207031 L 11.707031 40.589844 L 12.296875 42.757812 L 7.027344 47.449219 L 6.523438 45.589844 Z M 8.550781 43.871094 L 10 42.628906 C 10.128906 42.53125 10.269531 42.417969 10.4375 42.292969 C 10.605469 42.167969 10.773438 42.054688 10.941406 41.945312 L 10.941406 41.929688 C 10.746094 41.914062 10.546875 41.902344 10.339844 41.886719 C 10.128906 41.859375 9.945312 41.84375 9.792969 41.832031 L 7.90625 41.511719 Z M 8.550781 43.871094 "/>
<path style=" stroke:none;fill-rule:nonzero;fill:rgb(84.313726%,5.882353%,15.294118%);fill-opacity:1;" d="M 13.707031 46.46875 L 14.699219 47.96875 L 10.617188 50.6875 L 13.007812 54.253906 L 11.832031 55.035156 L 8.453125 49.992188 Z M 13.707031 46.46875 "/>
<path style=" stroke:none;fill-rule:evenodd;fill:rgb(84.313726%,5.882353%,15.294118%);fill-opacity:1;" d="M 14.921875 57.816406 C 14.589844 57.199219 14.445312 56.589844 14.488281 55.972656 C 14.53125 55.355469 14.757812 54.785156 15.171875 54.253906 C 15.59375 53.722656 16.097656 53.359375 16.679688 53.175781 C 17.269531 53 17.898438 52.984375 18.582031 53.164062 C 19.253906 53.347656 19.925781 53.695312 20.59375 54.210938 C 21.265625 54.742188 21.757812 55.300781 22.085938 55.914062 C 22.410156 56.53125 22.566406 57.144531 22.523438 57.757812 C 22.480469 58.375 22.257812 58.945312 21.839844 59.480469 C 21.417969 60.011719 20.914062 60.375 20.328125 60.554688 C 19.742188 60.738281 19.113281 60.738281 18.425781 60.566406 C 17.757812 60.382812 17.085938 60.039062 16.417969 59.519531 C 15.757812 59 15.257812 58.433594 14.921875 57.816406 Z M 18.375 59.03125 C 18.765625 59.113281 19.128906 59.101562 19.460938 58.972656 C 19.8125 58.851562 20.105469 58.625 20.355469 58.320312 C 20.609375 58 20.746094 57.660156 20.789062 57.296875 C 20.832031 56.9375 20.761719 56.574219 20.582031 56.226562 C 20.398438 55.875 20.132812 55.554688 19.773438 55.257812 C 19.40625 54.980469 19.027344 54.785156 18.652344 54.703125 C 18.261719 54.617188 17.898438 54.632812 17.5625 54.757812 C 17.214844 54.886719 16.917969 55.105469 16.667969 55.410156 C 16.417969 55.734375 16.277344 56.070312 16.234375 56.433594 C 16.195312 56.800781 16.261719 57.15625 16.445312 57.511719 C 16.625 57.859375 16.890625 58.179688 17.253906 58.460938 C 17.617188 58.765625 17.984375 58.945312 18.375 59.03125 Z M 18.375 59.03125 "/>
<path style=" stroke:none;fill-rule:nonzero;fill:rgb(84.313726%,5.882353%,15.294118%);fill-opacity:1;" d="M 26.242188 57.84375 L 25.234375 60.988281 C 25.066406 61.503906 25.09375 61.980469 25.304688 62.398438 C 25.527344 62.816406 25.917969 63.125 26.503906 63.308594 C 26.886719 63.433594 27.230469 63.460938 27.554688 63.40625 C 27.875 63.347656 28.140625 63.210938 28.375 62.984375 C 28.601562 62.761719 28.769531 62.496094 28.878906 62.144531 L 29.886719 59 L 31.605469 59.546875 L 30.546875 62.875 C 30.363281 63.445312 30.070312 63.90625 29.648438 64.257812 C 29.226562 64.605469 28.730469 64.816406 28.113281 64.886719 C 27.511719 64.957031 26.84375 64.871094 26.085938 64.632812 C 25.347656 64.398438 24.746094 64.074219 24.285156 63.660156 C 23.835938 63.238281 23.53125 62.773438 23.402344 62.242188 C 23.261719 61.714844 23.292969 61.171875 23.472656 60.582031 L 24.519531 57.285156 Z M 26.242188 57.84375 "/>
<path style=" stroke:none;fill-rule:nonzero;fill:rgb(84.313726%,5.882353%,15.294118%);fill-opacity:1;" d="M 39.453125 64.566406 L 39.484375 65.824219 L 33.058594 65.960938 L 32.917969 59.644531 L 39.289062 59.507812 L 39.320312 60.765625 L 34.746094 60.859375 L 34.761719 62.132812 L 39.191406 62.035156 L 39.21875 63.210938 L 34.789062 63.308594 L 34.816406 64.660156 Z M 39.453125 64.566406 "/>
<path style=" stroke:none;fill-rule:nonzero;fill:rgb(84.313726%,5.882353%,15.294118%);fill-opacity:1;" d="M 47.199219 58.445312 L 44.710938 59.296875 L 46.304688 63.949219 L 44.601562 64.539062 L 43.003906 59.886719 L 40.519531 60.738281 L 40.070312 59.410156 L 46.738281 57.113281 Z M 47.199219 58.445312 "/>
<path style=" stroke:none;fill-rule:nonzero;fill:rgb(84.313726%,5.882353%,15.294118%);fill-opacity:1;" d="M 53.804688 53.667969 L 51.695312 55.257812 L 54.660156 59.171875 L 53.234375 60.261719 L 50.269531 56.335938 L 48.171875 57.914062 L 47.339844 56.800781 L 52.957031 52.546875 Z M 53.804688 53.667969 "/>
<path style=" stroke:none;fill-rule:nonzero;fill:rgb(84.313726%,5.882353%,15.294118%);fill-opacity:1;" d="M 61.40625 49.558594 L 62.425781 50.285156 L 58.679688 55.523438 L 53.539062 51.863281 L 57.242188 46.667969 L 58.261719 47.394531 L 55.609375 51.125 L 56.644531 51.863281 L 59.214844 48.257812 L 60.164062 48.929688 L 57.59375 52.546875 L 58.710938 53.332031 Z M 61.40625 49.558594 "/>
<path style=" stroke:none;fill-rule:nonzero;fill:rgb(84.313726%,5.882353%,15.294118%);fill-opacity:1;" d="M 63.878906 46.539062 C 63.40625 47.128906 62.875 47.503906 62.285156 47.660156 L 61.8125 46.175781 C 62.257812 46.027344 62.652344 45.757812 63.015625 45.367188 C 63.375 44.972656 63.644531 44.472656 63.828125 43.871094 C 63.992188 43.328125 64.058594 42.90625 64.03125 42.601562 C 64.003906 42.308594 63.867188 42.125 63.628906 42.042969 C 63.445312 41.984375 63.28125 42.015625 63.15625 42.125 C 63.015625 42.238281 62.875 42.476562 62.71875 42.828125 L 61.941406 44.617188 C 61.632812 45.339844 61.269531 45.828125 60.859375 46.09375 C 60.453125 46.359375 59.984375 46.398438 59.4375 46.234375 C 58.835938 46.039062 58.460938 45.617188 58.292969 44.960938 C 58.140625 44.304688 58.207031 43.453125 58.53125 42.417969 C 59.015625 40.84375 59.785156 39.820312 60.832031 39.347656 L 61.40625 40.703125 C 61.027344 40.828125 60.695312 41.09375 60.398438 41.46875 C 60.09375 41.84375 59.859375 42.320312 59.6875 42.878906 C 59.546875 43.339844 59.480469 43.730469 59.519531 44 C 59.546875 44.277344 59.660156 44.445312 59.871094 44.515625 C 60.066406 44.574219 60.21875 44.546875 60.347656 44.417969 C 60.46875 44.292969 60.625 44.042969 60.792969 43.660156 L 61.476562 42.042969 C 61.703125 41.496094 61.941406 41.078125 62.1875 40.785156 C 62.425781 40.488281 62.707031 40.296875 62.984375 40.210938 C 63.28125 40.128906 63.601562 40.140625 63.976562 40.253906 C 64.632812 40.460938 65.054688 40.914062 65.234375 41.625 C 65.417969 42.335938 65.332031 43.226562 64.984375 44.320312 C 64.730469 45.214844 64.355469 45.957031 63.878906 46.539062 Z M 63.878906 46.539062 "/>
<path style=" stroke:none;fill-rule:evenodd;fill:rgb(84.313726%,5.882353%,15.294118%);fill-opacity:1;" d="M 35.054688 51.042969 L 30.277344 47.574219 L 34.105469 40.058594 L 31.113281 34.199219 C 30.75 33.488281 29.871094 33.210938 29.171875 33.574219 C 28.6875 33.828125 28.375 34.3125 28.375 34.875 L 28.375 46.21875 L 19.84375 39.988281 L 19.84375 26.128906 C 19.84375 25.21875 20.121094 24.355469 20.652344 23.617188 C 22.03125 21.714844 24.714844 21.28125 26.617188 22.660156 L 32.207031 26.714844 L 35.054688 21.125 L 37.90625 26.714844 L 43.496094 22.660156 C 45.394531 21.28125 48.078125 21.699219 49.460938 23.617188 C 49.992188 24.355469 50.269531 25.21875 50.269531 26.128906 L 50.269531 39.988281 L 41.71875 46.191406 L 41.71875 34.84375 C 41.71875 34.300781 41.410156 33.800781 40.925781 33.5625 C 40.210938 33.199219 39.332031 33.476562 38.984375 34.1875 L 35.992188 40.042969 L 39.820312 47.5625 Z M 32.425781 47.058594 L 35.054688 48.972656 L 37.679688 47.058594 L 35.054688 41.902344 Z M 26.703125 42.894531 L 26.703125 34.84375 C 26.703125 33.660156 27.355469 32.597656 28.40625 32.066406 C 29.941406 31.285156 31.828125 31.898438 32.609375 33.433594 L 35.042969 38.214844 L 37.472656 33.433594 C 38.253906 31.898438 40.140625 31.285156 41.679688 32.066406 C 42.730469 32.597656 43.382812 33.671875 43.382812 34.84375 L 43.382812 42.894531 L 48.566406 39.121094 L 48.566406 26.113281 C 48.566406 25.566406 48.398438 25.039062 48.078125 24.589844 C 47.242188 23.433594 45.605469 23.179688 44.460938 24.015625 L 37.277344 29.226562 L 35.042969 24.828125 L 32.792969 29.226562 L 25.625 24.015625 C 25.066406 23.617188 24.382812 23.445312 23.695312 23.558594 C 23.011719 23.667969 22.410156 24.03125 22.003906 24.589844 C 21.6875 25.039062 21.515625 25.566406 21.515625 26.113281 L 21.515625 39.121094 Z M 26.703125 42.894531 "/>
</g>
</svg>
