<?xml version="1.0" encoding="UTF-8"?>
<svg xmlns="http://www.w3.org/2000/svg" xmlns:xlink="http://www.w3.org/1999/xlink" width="90px" height="47px" viewBox="0 0 89 47" version="1.1">
<g id="surface1">
<path style=" stroke:none;fill-rule:nonzero;fill:rgb(100%,100%,100%);fill-opacity:1;" d="M 70.320312 4.359375 L 72.230469 0.757812 L 63.015625 0.757812 L 62.265625 1.511719 C 61.769531 2.097656 61.105469 2.429688 60.523438 2.429688 C 59.777344 2.429688 59.113281 2.179688 58.199219 1.761719 C 56.371094 1.089844 54.214844 0.167969 50.144531 0.167969 C 46.574219 0.167969 42.921875 1.175781 40.183594 2.933594 C 39.519531 3.351562 38.9375 3.855469 38.355469 4.359375 L 32.710938 4.359375 C 29.140625 4.359375 20.507812 5.113281 16.855469 11.898438 L 0 43.480469 L 17.433594 43.480469 L 15.691406 46.832031 L 24.90625 46.832031 L 25.652344 45.824219 C 26.484375 44.652344 26.980469 44.484375 27.8125 44.484375 C 29.140625 44.484375 30.136719 44.820312 31.382812 45.238281 C 32.960938 45.824219 34.953125 46.496094 37.941406 46.496094 C 41.925781 46.496094 45.828125 45.488281 49.066406 43.5625 L 56.371094 43.5625 C 59.941406 43.5625 68.578125 42.808594 72.230469 36.023438 L 89 4.527344 L 70.320312 4.527344 Z M 70.320312 4.359375 "/>
<path style=" stroke:none;fill-rule:nonzero;fill:rgb(0%,0%,0%);fill-opacity:1;" d="M 32.710938 5.53125 C 21.585938 5.53125 18.347656 11.480469 17.851562 12.484375 L 1.992188 42.308594 L 56.289062 42.308594 C 67.414062 42.308594 70.652344 36.359375 71.148438 35.355469 L 87.007812 5.53125 Z M 63.59375 37.617188 C 63.59375 37.617188 61.769531 41.050781 56.125 41.050781 L 9.050781 41.050781 L 25.488281 10.222656 C 25.488281 10.222656 27.3125 6.789062 32.960938 6.789062 L 52.222656 6.789062 L 53.464844 6.703125 L 54.792969 6.789062 L 80.035156 6.789062 Z M 63.59375 37.617188 "/>
<path style=" stroke:none;fill-rule:nonzero;fill:rgb(100%,100%,100%);fill-opacity:1;" d="M 71.566406 39.542969 C 70.816406 39.542969 70.152344 40.128906 70.152344 40.964844 C 70.152344 41.71875 70.734375 42.390625 71.566406 42.390625 C 72.3125 42.390625 72.976562 41.804688 72.976562 40.964844 C 72.894531 40.128906 72.3125 39.542969 71.566406 39.542969 M 71.566406 42.054688 C 70.984375 42.054688 70.484375 41.554688 70.484375 40.964844 C 70.484375 40.378906 70.984375 39.878906 71.566406 39.878906 C 72.144531 39.878906 72.644531 40.378906 72.644531 40.964844 C 72.644531 41.554688 72.144531 42.054688 71.566406 42.054688 Z M 71.566406 42.054688 "/>
<path style=" stroke:none;fill-rule:nonzero;fill:rgb(100%,100%,100%);fill-opacity:1;" d="M 72.0625 40.632812 C 72.0625 40.378906 71.8125 40.128906 71.566406 40.128906 L 70.902344 40.128906 L 70.902344 41.71875 L 71.234375 41.71875 L 71.234375 41.050781 L 71.480469 41.050781 L 71.8125 41.71875 L 72.144531 41.71875 L 71.8125 41.050781 C 71.980469 40.964844 72.0625 40.800781 72.0625 40.632812 M 71.648438 40.800781 L 71.316406 40.800781 L 71.316406 40.464844 L 71.648438 40.464844 C 71.730469 40.464844 71.8125 40.546875 71.8125 40.632812 C 71.8125 40.714844 71.730469 40.800781 71.648438 40.800781 Z M 71.648438 40.800781 "/>
<path style=" stroke:none;fill-rule:nonzero;fill:rgb(100%,100%,100%);fill-opacity:1;" d="M 72.8125 29.910156 L 70.070312 31.667969 L 69.90625 31.667969 C 69.820312 31.667969 69.820312 31.585938 69.820312 31.5 L 69.820312 28.234375 L 71.066406 25.886719 L 71.066406 25.132812 L 68.246094 30.410156 C 68.246094 30.496094 68.160156 30.496094 68.160156 30.578125 L 68.160156 34.433594 L 67.25 36.273438 C 67.164062 36.359375 67.25 36.441406 67.332031 36.527344 C 67.414062 36.609375 67.496094 36.527344 67.582031 36.441406 L 68.578125 34.683594 L 71.8125 32.589844 C 71.898438 32.589844 71.898438 32.503906 71.980469 32.421875 L 74.222656 28.148438 L 73.558594 28.566406 Z M 72.8125 29.910156 "/>
<path style=" stroke:none;fill-rule:nonzero;fill:rgb(100%,100%,100%);fill-opacity:1;" d="M 76.710938 22.621094 L 73.972656 24.378906 L 73.808594 24.378906 C 73.722656 24.378906 73.722656 24.296875 73.722656 24.210938 L 73.722656 20.945312 L 74.96875 18.597656 L 74.96875 17.84375 L 72.144531 23.039062 C 72.144531 23.121094 72.0625 23.121094 72.0625 23.207031 L 72.0625 27.058594 L 71.066406 28.820312 C 70.984375 28.902344 71.066406 28.988281 71.148438 29.070312 C 71.234375 29.15625 71.316406 29.070312 71.398438 28.988281 L 72.394531 27.226562 L 75.632812 25.132812 C 75.714844 25.132812 75.714844 25.050781 75.800781 24.964844 L 78.042969 20.695312 L 77.375 21.113281 Z M 76.710938 22.621094 "/>
<path style=" stroke:none;fill-rule:nonzero;fill:rgb(100%,100%,100%);fill-opacity:1;" d="M 80.613281 15.25 L 77.875 17.007812 C 77.792969 17.007812 77.707031 17.089844 77.707031 17.007812 C 77.625 17.007812 77.625 16.925781 77.625 16.839844 L 77.625 13.574219 L 78.871094 11.226562 L 78.871094 10.472656 L 76.046875 15.667969 C 76.046875 15.75 75.964844 15.75 75.964844 15.835938 L 75.964844 19.6875 L 74.96875 21.449219 C 74.886719 21.53125 74.96875 21.613281 75.050781 21.699219 C 75.136719 21.78125 75.21875 21.699219 75.300781 21.613281 L 76.296875 19.855469 L 79.535156 17.761719 C 79.617188 17.761719 79.617188 17.679688 79.703125 17.59375 L 81.941406 13.320312 L 81.277344 13.742188 Z M 80.613281 15.25 "/>
<path style=" stroke:none;fill-rule:nonzero;fill:rgb(100%,100%,100%);fill-opacity:1;" d="M 84.933594 7.039062 C 82.605469 7.792969 80.945312 8.882812 79.867188 9.972656 L 79.867188 12.566406 L 78.871094 14.328125 C 78.789062 14.410156 78.871094 14.496094 78.953125 14.578125 C 79.039062 14.660156 79.121094 14.578125 79.203125 14.496094 L 80.199219 12.734375 L 82.273438 11.394531 L 82.273438 8.714844 C 83.023438 8.296875 83.851562 7.875 84.683594 7.542969 Z M 84.933594 7.039062 "/>
<path style=" stroke:none;fill-rule:nonzero;fill:rgb(100%,100%,100%);fill-opacity:1;" d="M 13.699219 29.910156 L 10.957031 31.667969 L 10.792969 31.667969 C 10.710938 31.667969 10.710938 31.585938 10.710938 31.5 L 10.710938 28.234375 L 11.457031 26.808594 L 11.457031 26.054688 L 9.132812 30.410156 C 9.132812 30.496094 9.050781 30.496094 9.050781 30.578125 L 9.050781 34.433594 L 8.054688 36.191406 C 7.96875 36.273438 8.054688 36.359375 8.136719 36.441406 C 8.21875 36.527344 8.300781 36.441406 8.386719 36.359375 L 9.382812 34.601562 L 12.621094 32.503906 C 12.703125 32.503906 12.703125 32.421875 12.785156 32.339844 L 15.855469 26.558594 L 15.191406 26.976562 Z M 13.699219 29.910156 "/>
<path style=" stroke:none;fill-rule:nonzero;fill:rgb(100%,100%,100%);fill-opacity:1;" d="M 19.011719 19.941406 L 17.433594 22.871094 L 14.695312 24.632812 L 14.527344 24.632812 C 14.445312 24.632812 14.445312 24.546875 14.445312 24.464844 L 14.445312 21.195312 L 15.191406 19.773438 L 15.191406 19.019531 L 12.953125 23.289062 C 12.953125 23.375 12.867188 23.375 12.867188 23.457031 L 12.867188 27.3125 L 11.871094 29.070312 C 11.789062 29.15625 11.871094 29.238281 11.957031 29.320312 C 12.039062 29.40625 12.121094 29.320312 12.203125 29.238281 L 13.199219 27.480469 L 16.4375 25.386719 C 16.519531 25.386719 16.519531 25.300781 16.605469 25.21875 L 19.675781 19.4375 Z M 19.011719 19.941406 "/>
<path style=" stroke:none;fill-rule:nonzero;fill:rgb(100%,100%,100%);fill-opacity:1;" d="M 15.691406 22.453125 C 15.773438 22.535156 15.855469 22.453125 15.941406 22.367188 L 16.9375 20.609375 L 20.175781 18.515625 C 20.257812 18.515625 20.257812 18.433594 20.339844 18.347656 L 23.414062 12.566406 L 22.75 12.988281 L 21.171875 15.917969 L 18.429688 17.679688 L 18.265625 17.679688 C 18.183594 17.679688 18.183594 17.59375 18.183594 17.511719 L 18.183594 14.242188 L 18.929688 12.820312 L 18.929688 12.066406 L 16.6875 16.335938 C 16.6875 16.421875 16.605469 16.421875 16.605469 16.503906 L 16.605469 20.359375 L 15.609375 22.117188 C 15.609375 22.285156 15.609375 22.367188 15.691406 22.453125 Z M 15.691406 22.453125 "/>
<path style=" stroke:none;fill-rule:nonzero;fill:rgb(100%,100%,100%);fill-opacity:1;" d="M 19.34375 14.914062 C 19.425781 14.996094 19.511719 14.914062 19.59375 14.828125 L 20.589844 13.070312 L 22.664062 11.730469 L 22.664062 9.132812 C 23.328125 8.714844 24.160156 8.296875 25.074219 7.960938 L 25.320312 7.457031 C 22.996094 8.296875 21.335938 9.46875 20.257812 10.558594 L 20.257812 12.902344 L 19.261719 14.660156 C 19.261719 14.746094 19.261719 14.828125 19.34375 14.914062 Z M 19.34375 14.914062 "/>
<path style=" stroke:none;fill-rule:nonzero;fill:rgb(0%,38.431373%,25.490198%);fill-opacity:1;" d="M 63.59375 37.617188 C 63.59375 37.617188 61.769531 41.050781 56.125 41.050781 L 9.050781 41.050781 L 25.488281 10.222656 C 25.488281 10.222656 27.3125 6.789062 32.960938 6.789062 L 52.222656 6.789062 L 53.464844 6.703125 L 54.878906 6.789062 L 80.035156 6.789062 Z M 63.59375 37.617188 "/>
<path style=" stroke:none;fill-rule:nonzero;fill:rgb(100%,100%,100%);fill-opacity:1;" d="M 39.601562 23.289062 L 26.816406 23.289062 L 27.480469 21.949219 L 19.179688 21.949219 L 17.765625 24.546875 L 40.433594 24.546875 C 40.101562 24.128906 39.851562 23.710938 39.601562 23.289062 Z M 36.445312 16.925781 L 26.816406 16.925781 L 27.480469 15.582031 L 22.417969 15.582031 L 21.003906 18.179688 L 36.777344 18.179688 C 36.777344 17.761719 36.613281 17.34375 36.445312 16.925781 Z M 43.335938 29.65625 L 26.816406 29.65625 L 27.480469 28.316406 L 15.773438 28.316406 L 14.363281 30.914062 L 43.835938 30.914062 C 43.753906 30.578125 43.585938 30.074219 43.335938 29.65625 Z M 51.308594 16.925781 C 51.472656 17.089844 51.558594 17.34375 51.722656 17.511719 C 51.890625 17.761719 52.054688 17.929688 52.222656 18.179688 L 62.929688 18.179688 L 62.183594 19.519531 L 73.226562 19.519531 L 74.636719 16.925781 Z M 56.621094 30.914062 L 62.847656 30.914062 L 62.183594 32.253906 L 66.417969 32.253906 L 67.828125 29.65625 L 56.703125 29.65625 C 56.703125 30.074219 56.621094 30.496094 56.621094 30.914062 Z M 55.792969 24.546875 L 62.847656 24.546875 L 62.183594 25.886719 L 69.820312 25.886719 L 71.234375 23.289062 L 55.210938 23.289062 C 55.375 23.710938 55.625 24.128906 55.792969 24.546875 Z M 55.792969 24.546875 "/>
<path style=" stroke:none;fill-rule:nonzero;fill:rgb(0%,0%,0%);fill-opacity:1;" d="M 50.0625 1.34375 C 46.660156 1.34375 43.335938 2.265625 40.765625 3.9375 C 37.527344 6.035156 35.867188 9.132812 35.867188 12.820312 C 35.867188 17.425781 38.355469 21.363281 40.597656 24.796875 C 42.507812 27.730469 44.25 30.578125 44.25 33.34375 C 44.25 34.933594 43.503906 36.695312 42.257812 38.035156 C 41.179688 39.125 39.351562 40.546875 36.199219 40.546875 C 34.871094 40.546875 31.546875 40.296875 29.722656 38.117188 C 29.140625 37.363281 28.726562 36.273438 29.308594 35.101562 L 23.246094 35.101562 L 17.601562 45.65625 L 24.242188 45.65625 L 24.65625 45.15625 C 25.570312 43.816406 26.484375 43.3125 27.730469 43.3125 C 29.222656 43.3125 30.386719 43.730469 31.632812 44.148438 C 33.207031 44.734375 35.035156 45.324219 37.859375 45.324219 C 43.089844 45.324219 47.902344 43.5625 51.472656 40.296875 C 54.792969 37.28125 56.703125 33.34375 56.703125 29.40625 C 56.703125 24.882812 54.046875 20.945312 51.722656 17.511719 C 50.0625 15.082031 48.484375 12.734375 48.484375 10.890625 C 48.484375 8.964844 49.8125 6.789062 53.464844 6.789062 C 58.945312 6.789062 59.609375 10.390625 59.609375 10.472656 L 59.777344 11.5625 L 65.253906 11.5625 L 69.324219 3.855469 L 70.320312 2.011719 L 63.511719 2.011719 L 63.097656 2.347656 C 62.597656 2.933594 61.6875 3.605469 60.523438 3.605469 C 59.609375 3.605469 58.78125 3.269531 57.785156 2.851562 C 56.039062 2.179688 53.882812 1.34375 50.0625 1.34375 Z M 50.0625 1.34375 "/>
<path style=" stroke:none;fill-rule:nonzero;fill:rgb(100%,100%,100%);fill-opacity:1;" d="M 64.011719 3.183594 C 63.347656 3.9375 62.183594 4.859375 60.441406 4.859375 C 57.535156 4.859375 56.039062 2.597656 50.0625 2.597656 C 44.332031 2.597656 37.109375 5.613281 37.109375 12.820312 C 37.109375 20.945312 45.496094 26.726562 45.496094 33.34375 C 45.496094 36.945312 42.507812 41.804688 36.199219 41.804688 C 29.972656 41.804688 27.480469 37.949219 27.730469 36.273438 L 23.910156 36.273438 L 19.59375 44.316406 L 23.496094 44.316406 C 24.492188 42.894531 25.652344 41.972656 27.644531 41.972656 C 31.300781 41.972656 32.960938 43.980469 37.773438 43.980469 C 48.402344 43.980469 55.375 36.359375 55.375 29.40625 C 55.375 21.867188 47.15625 15.835938 47.15625 10.890625 C 47.15625 7.457031 49.980469 5.53125 53.382812 5.53125 C 60.023438 5.53125 60.773438 10.222656 60.773438 10.222656 L 64.425781 10.222656 L 68.160156 3.183594 Z M 64.011719 3.183594 "/>
</g>
</svg>
