<?xml version="1.0" encoding="UTF-8"?>
<svg xmlns="http://www.w3.org/2000/svg" xmlns:xlink="http://www.w3.org/1999/xlink" width="70px" height="54px" viewBox="0 0 69 54" version="1.1">
<g id="surface1">
<path style=" stroke:none;fill-rule:nonzero;fill:rgb(100%,100%,100%);fill-opacity:1;" d="M 48.507812 2.261719 L 48.507812 14.324219 L 51.140625 14.324219 L 47.726562 32.414062 L 40.695312 2.261719 L 28.304688 2.261719 L 21.277344 32.414062 L 17.859375 14.324219 L 20.492188 14.324219 L 20.492188 2.261719 L 2.226562 2.261719 L 2.226562 14.324219 L 5.574219 14.324219 L 13.828125 51.734375 L 26.636719 51.734375 L 34.5 21.671875 L 42.363281 51.734375 L 55.171875 51.734375 L 63.425781 14.324219 L 66.773438 14.324219 L 66.773438 2.261719 Z M 48.507812 2.261719 "/>
<path style=" stroke:none;fill-rule:nonzero;fill:rgb(11.764706%,23.921569%,47.450981%);fill-opacity:1;" d="M 46.28125 0.0195312 L 46.28125 16.414062 L 42.457031 0.0195312 L 26.539062 0.0195312 L 22.722656 16.414062 L 22.722656 0.0195312 L 0 0.0195312 L 0 16.570312 L 3.789062 16.570312 L 12.042969 53.980469 L 28.351562 53.980469 L 34.5 30.472656 L 40.648438 53.980469 L 56.957031 53.980469 L 65.210938 16.570312 L 69 16.570312 L 69 0.0195312 Z M 48.445312 16.570312 L 47.496094 21.621094 L 46.316406 16.570312 Z M 22.683594 16.570312 L 21.507812 21.621094 L 20.554688 16.570312 Z M 66.773438 14.324219 L 63.425781 14.324219 L 55.171875 51.734375 L 42.363281 51.734375 L 34.5 21.671875 L 26.636719 51.734375 L 13.828125 51.734375 L 5.574219 14.324219 L 2.226562 14.324219 L 2.226562 2.261719 L 20.492188 2.261719 L 20.492188 14.324219 L 17.859375 14.324219 L 21.277344 32.414062 L 28.304688 2.261719 L 40.695312 2.261719 L 47.726562 32.414062 L 51.140625 14.324219 L 48.507812 14.324219 L 48.507812 2.261719 L 66.773438 2.261719 Z M 66.773438 14.324219 "/>
<path style=" stroke:none;fill-rule:nonzero;fill:rgb(11.764706%,23.921569%,47.450981%);fill-opacity:1;" d="M 58.1875 51.871094 L 58.878906 51.871094 L 58.878906 53.980469 L 59.128906 53.980469 L 59.128906 51.871094 L 59.859375 51.871094 L 59.859375 51.617188 L 58.1875 51.617188 Z M 58.1875 51.871094 "/>
<path style=" stroke:none;fill-rule:nonzero;fill:rgb(11.764706%,23.921569%,47.450981%);fill-opacity:1;" d="M 61.199219 53.542969 L 60.601562 51.617188 L 60.195312 51.617188 L 60.195312 53.980469 L 60.445312 53.980469 L 60.445312 51.972656 L 61.074219 53.980469 L 61.324219 53.980469 L 61.953125 51.972656 L 61.953125 53.980469 L 62.203125 53.980469 L 62.203125 51.617188 L 61.800781 51.617188 Z M 61.199219 53.542969 "/>
</g>
</svg>
